<?xml version="1.0" encoding="UTF-8" standalone="no"?>
<svg width="25" height="24" viewBox="0 0 25 24" fill="none"
                                xmlns="http://www.w3.org/2000/svg" class="flex-grow-0 flex-shrink-0 w-6 h-[23.2px]"
                                preserveAspectRatio="xMidYMid meet">
                                <path
                                    d="M20.8269 0.117323H7.74313C7.24352 0.117323 6.83707 0.523776 6.83707 1.02339V10.232C6.83707 10.6617 7.13874 11.0259 7.54519 11.1148V1.99069C7.54519 1.81287 7.58012 1.64244 7.64574 1.48791C7.84368 1.02325 8.30412 0.69828 8.83757 0.69828H21.6693C21.538 0.353229 21.21 0.117323 20.8269 0.117323Z"
                                    fill="white"></path>
                                <path d="M17.6441 6.59845L22.8318 10.7901V2.39844L17.6441 6.59845Z" fill="white"></path>
                                <path
                                    d="M15.5855 7.77129L17.2188 6.44715L22.8202 1.90625C22.816 1.87873 22.816 1.85545 22.8128 1.82898C22.8086 1.81734 22.8086 1.80146 22.8054 1.78982C22.7938 1.74325 22.7821 1.70091 22.7631 1.65857C22.7588 1.64692 22.7557 1.63528 22.7514 1.62787C22.7324 1.58553 22.7091 1.54319 22.6858 1.50403C22.6816 1.49662 22.6742 1.48498 22.6699 1.47651C22.6424 1.43735 22.6117 1.39924 22.5768 1.36431C22.5683 1.36008 22.5651 1.35267 22.5567 1.34526C22.5217 1.31033 22.4836 1.27964 22.4402 1.25212C22.4328 1.24788 22.4286 1.24047 22.4212 1.23624C22.3788 1.20872 22.3323 1.18226 22.2815 1.16321C22.2772 1.15897 22.274 1.15897 22.2656 1.1558C22.1576 1.10922 22.037 1.08594 21.9131 1.08594H8.82938C8.76693 1.08594 8.70554 1.09335 8.64732 1.10499C8.64308 1.10499 8.63991 1.10922 8.63144 1.10922C8.58063 1.12087 8.52665 1.13674 8.48008 1.1558C8.4642 1.16003 8.45256 1.17168 8.44092 1.17485C8.40175 1.1939 8.36788 1.20978 8.33295 1.23307C8.32766 1.24471 8.31178 1.25635 8.29591 1.268C8.26521 1.29128 8.23769 1.31457 8.21123 1.33785C8.19535 1.35373 8.18053 1.36855 8.16465 1.38866C8.14137 1.41195 8.11808 1.43947 8.09903 1.46593C8.08315 1.48498 8.07151 1.50509 8.05987 1.52838C8.04399 1.5559 8.02917 1.58236 8.01329 1.61306C8.00165 1.63635 7.99424 1.65963 7.98577 1.68609C7.97413 1.71361 7.96672 1.74431 7.95825 1.775C7.95084 1.80252 7.94661 1.82899 7.94237 1.85651C7.93814 1.87238 7.93814 1.89144 7.93814 1.90731L13.5448 6.44712L15.178 7.77127C15.2986 7.86335 15.4649 7.86338 15.5855 7.77129Z"
                                    fill="white"></path>
                                <path
                                    d="M17.3381 6.84375L15.8245 8.07051C15.561 8.27903 15.1979 8.27903 14.9344 8.07051L13.4208 6.84375L7.93987 11.283C7.93987 11.2989 7.9441 11.3137 7.9441 11.3296C7.94833 11.3603 7.95574 11.3878 7.95998 11.4185C7.96739 11.446 7.97585 11.4693 7.98326 11.4958C7.99491 11.5265 8.00655 11.554 8.01819 11.5847C8.02984 11.6037 8.04148 11.627 8.05312 11.6471C8.069 11.6778 8.08805 11.7054 8.10711 11.7318C8.11875 11.7477 8.13039 11.7625 8.14627 11.7784C8.16956 11.8059 8.19708 11.8366 8.22354 11.8599C8.23518 11.8715 8.24682 11.879 8.25847 11.8906C8.28916 11.9181 8.32092 11.9446 8.35479 11.9636C8.3622 11.971 8.37384 11.9753 8.38231 11.9795C8.42147 12.0028 8.45958 12.0218 8.50192 12.042C8.50933 12.0462 8.51356 12.0462 8.52097 12.0494C8.62152 12.0843 8.72631 12.1076 8.83852 12.1076H21.9182C21.9573 12.1076 21.9912 12.1002 22.0261 12.0959C22.0494 12.0917 22.0685 12.0917 22.0918 12.0885C22.1193 12.0843 22.1458 12.0726 22.1733 12.0652C22.204 12.0578 22.2315 12.0494 22.2622 12.0377C22.2855 12.0303 22.3045 12.0144 22.3278 12.007C22.3585 11.9911 22.3903 11.9763 22.4167 11.9605C22.4358 11.9488 22.4517 11.9329 22.4675 11.9213C22.4982 11.898 22.5257 11.879 22.5522 11.8514C22.5639 11.8398 22.5755 11.8239 22.5914 11.8091C22.6189 11.7816 22.6422 11.7509 22.6644 11.7202C22.6718 11.7043 22.6835 11.6927 22.6919 11.6778C22.7152 11.6429 22.7343 11.608 22.7501 11.5699C22.7575 11.554 22.7618 11.5424 22.766 11.5275C22.7819 11.4884 22.7935 11.446 22.8052 11.4037C22.8094 11.3878 22.8126 11.373 22.8126 11.3614C22.8168 11.3381 22.8168 11.3106 22.82 11.2883L17.3381 6.84375Z"
                                    fill="white"></path>
                                <path d="M7.93286 2.39453V10.7946L13.1195 6.59888L7.93286 2.39453Z" fill="white"></path>
                                <path
                                    d="M23.9538 17.4334C24.2978 17.2397 24.5 16.8915 24.5 16.5158C24.5 16.1559 24.3179 15.8267 24.012 15.633C23.7061 15.4393 23.3304 15.4202 23.0054 15.579L17.5205 18.2262C17.2569 18.602 16.8198 18.8455 16.3287 18.8455L10.7578 18.8465C10.6498 18.8465 10.5641 18.7618 10.5641 18.6528C10.5641 18.5449 10.6488 18.4591 10.7578 18.4591H16.3316C16.7074 18.4591 17.0366 18.2654 17.2292 17.9712V17.9669C17.3372 17.8007 17.3996 17.6028 17.3996 17.3901C17.3996 17.1032 17.2874 16.8365 17.0863 16.6354C16.8852 16.4342 16.6174 16.3221 16.3316 16.3221H13.4442C13.3976 16.3221 13.3511 16.303 13.3161 16.2713C12.0121 15.0942 10.3748 14.3745 8.92968 14.3396C7.21071 14.2972 5.68239 14.3237 5.16376 14.3353V20.1072C5.90681 20.5444 10.8498 23.4128 12.7276 23.3122C15.883 23.1429 23.8734 17.4917 23.9538 17.4334Z"
                                    fill="white"></path>
                                <path
                                    d="M3.85668 20.1241C3.85668 20.7697 2.88818 20.7697 2.88818 20.1241C2.88818 19.4795 3.85668 19.4795 3.85668 20.1241Z"
                                    fill="white"></path>
                                <path
                                    d="M4.11898 21.7622C4.48311 21.7622 4.77735 21.468 4.77735 21.1038V13.8576C4.77735 13.4935 4.48311 13.1992 4.11898 13.1992L1.15837 13.2003C0.794245 13.2003 0.5 13.4945 0.5 13.8586V21.1049C0.5 21.469 0.794245 21.7633 1.15837 21.7633L4.11898 21.7622ZM3.3717 19.2536C3.85118 19.2536 4.24281 19.6442 4.24281 20.1247C4.24281 20.6042 3.85224 20.9959 3.3717 20.9959C2.89222 20.9959 2.50059 20.6053 2.50059 20.1247C2.50165 19.6453 2.89222 19.2536 3.3717 19.2536Z"
                                    fill="white"></path>
                            </svg>
