<?xml version="1.0" encoding="UTF-8" standalone="no"?>
<svg width="26" height="16" viewBox="0 0 26 16" fill="none" xmlns="http://www.w3.org/2000/svg"
                            class="absolute left-[387.5px] top-[20.5px]" preserveAspectRatio="xMidYMid meet">
                            <path
                                d="M3.91339 1.9053C3.91339 2.9565 3.03728 3.8106 1.95901 3.8106C0.880734 3.8106 0.00462937 2.9565 0.00462937 1.9053C0.00462937 0.854104 0.880734 0 1.95901 0C3.03728 0 3.91339 0.849703 3.91339 1.9053ZM25.6405 0H6.50124C6.30805 0 6.1463 0.153301 6.1463 0.346026V3.46906C6.1463 3.6574 6.30355 3.81509 6.50124 3.81509H25.6451C25.8383 3.81509 26 3.66179 26 3.46906V0.346026C25.9955 0.153306 25.8381 0 25.6405 0ZM1.95438 6.09246C0.876105 6.09246 0 6.94656 0 7.99776C0 9.04895 0.876105 9.90306 1.95438 9.90306C3.03265 9.90306 3.90876 9.04895 3.90876 7.99776C3.91325 6.94656 3.03717 6.09246 1.95438 6.09246ZM25.6405 6.09246H6.50124C6.30805 6.09246 6.1463 6.24576 6.1463 6.43848V9.56152C6.1463 9.74986 6.30355 9.90754 6.50124 9.90754H25.6451C25.8383 9.90754 26 9.75424 26 9.56152V6.43848C25.9955 6.24576 25.8381 6.09246 25.6405 6.09246ZM1.95438 12.1849C0.876105 12.1849 0 13.039 0 14.0902C0 15.1414 0.876105 15.9955 1.95438 15.9955C3.03265 15.9955 3.90876 15.1414 3.90876 14.0902C3.91325 13.039 3.03717 12.1849 1.95438 12.1849ZM25.6405 12.1849H6.50124C6.30805 12.1849 6.1463 12.3382 6.1463 12.5309V15.654C6.1463 15.8423 6.30355 16 6.50124 16H25.6451C25.8383 16 26 15.8467 26 15.654V12.5309C25.9955 12.3382 25.8381 12.1849 25.6405 12.1849Z"
                                fill="#F7A71E"></path>
                        </svg>
