<svg width="64" height="62" viewBox="0 0 64 62" fill="none" xmlns="http://www.w3.org/2000/svg">
<path d="M31.9993 0.75C32.7203 0.75 33.3231 1.11907 33.6165 1.66113L35.0394 4.31641L35.221 4.6543L35.6009 4.70508L38.7552 5.12793C39.4237 5.21738 39.9376 5.61116 40.1663 6.12988L40.2083 6.23535C40.3957 6.79688 40.2462 7.39768 39.765 7.83594L37.4759 9.89258L37.1624 10.1748L37.2406 10.5889L37.7865 13.502V13.5029C37.893 14.0791 37.649 14.6699 37.0931 15.0449C36.7723 15.2566 36.395 15.3671 36.0189 15.3672C35.8005 15.3672 35.577 15.3293 35.3568 15.2539L35.138 15.166L32.3284 13.7969L31.9993 13.6367L31.6712 13.7969L28.848 15.1729H28.846C28.2201 15.479 27.4752 15.4265 26.9105 15.0479C26.3523 14.6734 26.1063 14.0818 26.2122 13.5049L26.7591 10.5889L26.8363 10.1748L26.5228 9.89258L24.2357 7.83789H24.2366C23.7509 7.39698 23.6016 6.79071 23.7943 6.22559L23.7933 6.22461C23.9988 5.65925 24.5347 5.22284 25.2435 5.12793H25.2445L28.3978 4.70508L28.7786 4.6543L28.9593 4.31641L30.3822 1.66113L30.3831 1.66211C30.6765 1.1198 31.2783 0.750098 31.9993 0.75Z" stroke="black" stroke-width="1.5"/>
<path d="M9.03027 7.82678C9.75315 7.82678 10.3645 8.19711 10.6572 8.73303V8.73401L12.0693 11.3903L12.25 11.7311L12.6318 11.7819L15.7988 12.2047C16.5067 12.2994 17.0347 12.7372 17.2393 13.3121C17.4352 13.8633 17.2863 14.4669 16.7949 14.9137L14.5176 16.9713L14.208 17.2516L14.2832 17.6627L14.8174 20.5778L14.8184 20.5817C14.9247 21.15 14.6876 21.7369 14.124 22.109L14.1133 22.1168C13.7979 22.3334 13.4254 22.4439 13.0498 22.444C12.8305 22.444 12.6084 22.4061 12.3975 22.3326L12.1904 22.2467L9.35742 20.8737L9.03027 20.7145L8.70215 20.8737L5.88477 22.2467C5.25115 22.5481 4.51674 22.5007 3.94336 22.1139L3.94141 22.1129L3.84082 22.0406C3.35857 21.6676 3.15579 21.116 3.25586 20.5817L3.25684 20.5778L3.79102 17.6627L3.86621 17.2506L3.55371 16.9694L1.27246 14.9196C0.788429 14.4721 0.637447 13.8651 0.833984 13.3121C1.03847 12.7372 1.56664 12.2995 2.27441 12.2047L5.44141 11.7819L5.82324 11.7311L6.00488 11.3903L7.41602 8.73401L7.41504 8.73303C7.7094 8.19338 8.31138 7.82687 9.03027 7.82678Z" stroke="black" stroke-width="1.5"/>
<path d="M32.0005 20.4995C42.1867 20.4996 50.3794 28.1418 50.3794 37.4302C50.3794 40.76 49.3245 43.8803 47.4985 46.5132L46.6821 47.6909H47.8472L54.2065 53.5698L54.2173 53.5786C54.3295 53.6786 54.3645 53.8259 54.3149 53.9634C54.2655 54.1004 54.1236 54.234 53.8999 54.2612L53.8921 54.2622L48.2319 55.0142L47.6763 55.0884L47.5894 55.6421L46.7759 60.8735L46.7739 60.8833C46.7557 61.011 46.6568 61.1529 46.4556 61.2192C46.3597 61.2424 46.3052 61.2505 46.2573 61.2505C46.1369 61.2504 46.0265 61.2169 45.9409 61.1655L45.8638 61.1079L37.978 53.8198L37.6714 53.5356L37.2681 53.6479C35.6036 54.1118 33.8397 54.3608 32.0132 54.3608C30.1866 54.3608 28.4228 54.1117 26.7583 53.6479L26.355 53.5356L26.0474 53.8198L18.1626 61.1079C18.0728 61.1909 17.9289 61.2505 17.7681 61.2505C17.7122 61.2505 17.645 61.2394 17.5728 61.2202C17.3698 61.1542 17.2697 61.0114 17.2515 60.8833L17.2505 60.8735L16.9731 59.0962L18.6519 59.0825H18.6646L19.5317 59.0747L19.4585 58.6021L24.4331 54.0044L25.2827 53.2192L24.2183 52.7642C21.786 51.7248 19.6607 50.2001 17.9517 48.3384L17.4429 47.7837L16.8901 48.2954L12.3882 52.4565L11.2144 53.5415L12.7983 53.7505L16.894 54.2915L16.9917 54.311C17.1959 54.3701 17.3123 54.5262 17.3315 54.6567L17.3325 54.6616L17.854 58.0415L16.9409 58.8862L16.436 55.6421L16.3501 55.0884L15.7944 55.0142L10.1343 54.2622L10.1265 54.2612L10.0464 54.2456C9.86837 54.2 9.7537 54.0833 9.71045 53.9634C9.6636 53.8334 9.69016 53.6897 9.81982 53.5698L16.395 47.4917L16.8735 47.0493L16.5024 46.5132C14.6765 43.88 13.6216 40.7597 13.6216 37.4302C13.6216 28.1417 21.8142 20.4995 32.0005 20.4995ZM46.0229 48.3384C44.3138 50.2002 42.1877 51.7248 39.7554 52.7642L38.6919 53.2192L39.5415 54.0044L44.8198 58.8833L45.855 59.8403L46.0698 58.4468L46.6548 54.6616L46.6558 54.6567C46.6777 54.5077 46.8264 54.3256 47.0884 54.2925L47.0874 54.2896L51.1753 53.7505L52.7603 53.5415L51.5864 52.4565L47.0845 48.2944L46.5317 47.7837L46.0229 48.3384ZM32.0005 23.7485C23.9224 23.7485 17.2593 29.8257 17.2593 37.4302C17.2593 41.997 19.6833 46.0406 23.3667 48.5044V48.5034C23.458 48.5706 23.547 48.6265 23.6382 48.6763C26.0188 50.2159 28.9002 51.1117 32.0005 51.1118C35.1006 51.1118 37.9814 50.2156 40.3618 48.6763C40.453 48.6265 40.5419 48.5706 40.6333 48.5034L40.6343 48.5044C44.3176 46.0401 46.7417 41.9968 46.7417 37.4302C46.7417 29.8253 40.0786 23.7485 32.0005 23.7485Z" stroke="black" stroke-width="1.5"/>
<path d="M54.9697 7.82715C55.6779 7.82716 56.2904 8.19572 56.584 8.7334V8.73438L57.9961 11.3906L58.1768 11.7314L58.5586 11.7822L61.7256 12.2051C62.4335 12.2998 62.9615 12.7376 63.166 13.3125C63.3626 13.8656 63.2116 14.4725 62.7275 14.9199L60.4463 16.9697L60.1338 17.251L60.21 17.6631L60.7441 20.5781V20.582C60.8509 21.152 60.6126 21.7416 60.0586 22.1133L60.0527 22.1172C59.4977 22.4978 58.7561 22.5488 58.1211 22.249L55.2979 20.874L54.9707 20.7148L54.6426 20.874L51.8096 22.2471C51.5396 22.3761 51.2428 22.4443 50.9502 22.4443C50.5746 22.4442 50.2021 22.3337 49.8867 22.1172H49.8877L49.876 22.1104L49.7744 22.0381C49.2841 21.6649 49.0828 21.115 49.1826 20.582V20.5781L49.7168 17.6631L49.792 17.252L49.4824 16.9717L47.2061 14.915H47.207C46.7146 14.4682 46.5646 13.8643 46.7607 13.3125C46.9652 12.7375 47.4933 12.2998 48.2012 12.2051L51.3682 11.7822L51.75 11.7314L51.9307 11.3906L53.3418 8.7334C53.6336 8.19887 54.2572 7.82715 54.9697 7.82715Z" stroke="black" stroke-width="1.5"/>
<path d="M32 27.6004C37.9504 27.6004 42.6963 32.0684 42.6963 37.4305C42.6962 39.6828 41.8648 41.7658 40.459 43.4344C39.2907 41.2645 37.1919 39.6312 34.6797 38.9432C36.4882 38.0485 37.7471 36.2773 37.7471 34.1971C37.747 31.1904 35.1177 28.827 31.999 28.827C28.8805 28.8271 26.2511 31.1905 26.251 34.1971C26.251 36.285 27.5087 38.0529 29.3154 38.9451C26.8054 39.6341 24.7076 41.2659 23.54 43.4344C22.1345 41.7659 21.3038 39.6826 21.3037 37.4305C21.3037 32.0687 26.0496 27.6004 32 27.6004Z" stroke="black" stroke-width="1.5"/>
<path d="M31.9995 42.4361C34.4986 42.4361 36.5647 43.9738 37.1997 46.0093C35.6664 46.808 33.89 47.2603 31.9995 47.2603C30.1089 47.2603 28.3327 46.8081 26.7993 46.0093C27.4342 43.9738 29.5005 42.4362 31.9995 42.4361Z" stroke="black" stroke-width="1.5"/>
<path d="M32.0005 32.679C32.4693 32.679 32.9063 32.8249 33.2114 33.0754C33.4988 33.3114 33.7046 33.6666 33.7046 34.1975C33.7045 34.7282 33.4987 35.0827 33.2114 35.3186C32.9063 35.5692 32.4694 35.715 32.0005 35.7151C31.5314 35.7151 31.0938 35.5693 30.7886 35.3186C30.5013 35.0827 30.2955 34.7282 30.2954 34.1975C30.2954 33.6666 30.5012 33.3114 30.7886 33.0754C31.0938 32.8248 31.5314 32.679 32.0005 32.679Z" stroke="black" stroke-width="1.5"/>
</svg>
