<?xml version="1.0" encoding="UTF-8" standalone="no"?>
<svg width="25" height="24" viewBox="0 0 25 24" fill="none"
                                xmlns="http://www.w3.org/2000/svg" class="flex-grow-0 flex-shrink-0"
                                preserveAspectRatio="none">
                                <path d="M1.70166 21.4141H23.2981V22.0735H1.70166V21.4141Z" fill="white"></path>
                                <path d="M0.75293 22.457H24.2459V23.1164H0.75293V22.457Z" fill="white"></path>
                                <path d="M7.4399 2.79263V0.966797H3.62817V5.07797L7.4399 2.79263Z" fill="white"></path>
                                <path d="M3.27466 0H7.7933V0.524678H3.27466V0Z" fill="white"></path>
                                <path
                                    d="M2.77979 7.93562C2.79194 7.96545 2.80298 8.00079 2.80298 8.03614V20.9728H9.94855V17.32C9.94855 15.9183 11.0918 14.7696 12.499 14.7696C13.9073 14.7696 15.0561 15.9183 15.0561 17.32V20.9728H22.196L22.1971 8.03614C22.1971 8.00079 22.2092 7.96545 22.2269 7.93562L12.5002 2.10352L2.77979 7.93562ZM6.30874 15.4412H4.06978C3.94607 15.4412 3.84555 15.3406 3.84555 15.2236V12.767H6.30762L6.30874 15.4412ZM6.30874 12.3132H3.84557V9.85661C3.84557 9.73842 3.94609 9.63901 4.0698 9.63901H6.30876L6.30874 12.3132ZM9.21815 15.2226C9.21815 15.3408 9.11763 15.4402 9.00055 15.4402H6.75607V12.766H9.21814L9.21815 15.2226ZM9.21815 12.3132H6.75608V9.63902H9.00056C9.11875 9.63902 9.21816 9.73954 9.21816 9.85662L9.21815 12.3132ZM18.7206 9.64454H20.9352C21.059 9.64454 21.1528 9.74505 21.1528 9.86213V12.3187H18.7195L18.7206 9.64454ZM18.7206 12.766H21.154V15.2226C21.154 15.3408 21.0601 15.4402 20.9364 15.4402H18.7217L18.7206 12.766ZM15.7869 9.86198C15.7869 9.7438 15.8808 9.64438 16.0045 9.64438H18.2666V12.3185H15.7869L15.7869 9.86198ZM15.7869 12.766H18.2666V15.4402H16.0045C15.8807 15.4402 15.7869 15.3396 15.7869 15.2226L15.7869 12.766ZM15.4036 6.84541C15.4036 8.44814 14.1013 9.74944 12.4995 9.74944C10.8968 9.74944 9.5955 8.44715 9.5955 6.84541C9.5955 5.24267 10.8978 3.94137 12.4995 3.94137C14.1023 3.94137 15.4036 5.24366 15.4036 6.84541Z"
                                    fill="white"></path>
                                <path
                                    d="M14.9444 7.06934H12.7231V9.28398C13.9017 9.17794 14.8329 8.24789 14.9444 7.06934Z"
                                    fill="white"></path>
                                <path
                                    d="M24.2292 7.30438L12.5 0.270508L0.777246 7.30438C0.606038 7.4049 0.5 7.59266 0.5 7.78707C0.5 7.99362 0.606038 8.17588 0.788283 8.28191C0.965013 8.38243 1.17709 8.3758 1.35933 8.27639L12.3884 1.65564C12.4591 1.61477 12.5475 1.61477 12.6182 1.65564L23.6462 8.27102C23.8229 8.38258 24.035 8.38258 24.2172 8.28317C24.394 8.17713 24.5 7.99488 24.5 7.78832C24.5 7.59392 24.3938 7.40488 24.2292 7.30438Z"
                                    fill="white"></path>
                                <path
                                    d="M12.7241 4.40625V6.62754H14.9454C14.8327 5.44345 13.9016 4.51229 12.7241 4.40625Z"
                                    fill="white"></path>
                                <path
                                    d="M12.5 15.2109C11.3391 15.2109 10.3914 16.1598 10.3914 17.3195V20.9724H14.6154V17.3195C14.6154 16.1586 13.6664 15.2109 12.5 15.2109Z"
                                    fill="white"></path>
                                <path
                                    d="M10.061 6.62754H12.2823V4.40625C11.1037 4.51229 10.1671 5.44345 10.061 6.62754Z"
                                    fill="white"></path>
                                <path
                                    d="M12.2823 9.28398V7.06934H10.061C10.1671 8.24792 11.1037 9.17794 12.2823 9.28398Z"
                                    fill="white"></path>
                            </svg>
