<?xml version="1.0" encoding="UTF-8" standalone="no"?>
<svg width="57" height="62" viewBox="0 0 57 62" fill="none" xmlns="http://www.w3.org/2000/svg"
                        class="flex-grow-0 flex-shrink-0" preserveAspectRatio="none">
                        <path
                            d="M25.7301 56.4074C25.5597 56.3612 25.4182 56.2399 25.3488 56.0781C25.2795 55.9164 25.2882 55.7286 25.3719 55.5755L26.279 53.9001L18.1673 54.1312L22.4253 61.0468L23.5519 58.9669C23.6819 58.7242 23.9678 58.6087 24.2278 58.6896C28.4049 59.9635 32.8941 60.0992 37.1086 59.0738L36.4298 56.5519C32.9344 57.3925 29.2314 57.3405 25.7301 56.4074Z"
                            fill="#F7A71E"></path>
                        <path
                            d="M10.0703 48.7787H3.46381C1.82882 48.7787 0.5 50.1076 0.5 51.7426V55.1975H13.0339V51.7426C13.0339 50.1076 11.7053 48.7787 10.0703 48.7787Z"
                            fill="#F7A71E"></path>
                        <path
                            d="M34.7691 13.9178C34.7691 12.2828 33.4403 10.954 31.8053 10.954H25.1959C23.5609 10.954 22.2321 12.2828 22.2321 13.9178V17.3756H34.769L34.7691 13.9178Z"
                            fill="#F7A71E"></path>
                        <path
                            d="M9.7182 19.1895C9.89153 19.4033 9.88864 19.7095 9.71531 19.9204C6.91908 23.3146 5.09626 27.3672 4.42612 31.6719L7.0144 32.0128C7.57481 28.4568 9.03363 25.0712 11.2464 22.1825C11.3533 22.0409 11.5208 21.96 11.697 21.9572C11.8761 21.9514 12.0437 22.0323 12.1535 22.1709L13.3523 23.6499L16.2468 16.067L8.22754 17.3525L9.7182 19.1895Z"
                            fill="#F7A71E"></path>
                        <path
                            d="M6.76813 45.5524C8.32517 45.5524 9.59328 44.2843 9.59328 42.7244V40.6474C9.59328 39.0903 8.32517 37.8222 6.76813 37.8222C5.21109 37.8222 3.94298 39.0903 3.94298 40.6474V42.7244C3.94298 44.2843 5.20821 45.5524 6.76813 45.5524Z"
                            fill="#F7A71E"></path>
                        <path
                            d="M50.2324 37.8215C48.6753 37.8215 47.4072 39.0896 47.4072 40.6467V42.7236C47.4072 44.2836 48.6753 45.5517 50.2324 45.5517C51.7923 45.5517 53.0575 44.2836 53.0575 42.7236V40.6467C53.0604 39.0896 51.7923 37.8215 50.2324 37.8215Z"
                            fill="#F7A71E"></path>
                        <path
                            d="M38.3248 33.431L37.2906 33.0641C36.8458 32.9053 36.502 32.5846 36.3258 32.1628C36.1525 31.744 36.1698 31.2645 36.3691 30.8427L36.84 29.8519C37.0075 29.4994 36.9093 28.9246 36.632 28.6473L35.2541 27.2665C34.9912 27.0007 34.3874 26.8996 34.0524 27.0585L33.0616 27.5322C32.8334 27.642 32.5936 27.6969 32.3481 27.6969C31.6635 27.6969 31.0712 27.2722 30.8401 26.6136L30.4733 25.5795C30.3433 25.2098 29.8666 24.8747 29.4766 24.8747H27.5268C27.1368 24.8747 26.6601 25.2098 26.5301 25.5795L26.1633 26.6136C25.9293 27.2723 25.3371 27.6969 24.6553 27.6969C24.4098 27.6969 24.17 27.642 23.9418 27.5322L22.951 27.0614C22.6131 26.8996 22.0122 27.0036 21.7465 27.2693L20.3656 28.6502C20.0883 28.9275 19.9901 29.4994 20.1576 29.8519L20.6314 30.8427C20.8307 31.2644 20.848 31.744 20.6747 32.1628C20.4985 32.5875 20.1576 32.9081 19.7099 33.0641L18.6758 33.431C18.306 33.561 17.9709 34.0376 17.9709 34.4276V36.3775C17.9709 36.7675 18.306 37.2441 18.6758 37.3741L19.7099 37.741C20.1547 37.8999 20.4985 38.2205 20.6747 38.6423C20.8509 39.067 20.8336 39.5349 20.6314 39.9625L20.1605 40.9533C19.993 41.3057 20.0912 41.8806 20.3656 42.155L21.7464 43.5358C22.0093 43.7987 22.6131 43.9056 22.951 43.7409L23.9418 43.27C24.17 43.1603 24.4098 43.1054 24.6553 43.1054C25.34 43.1054 25.9322 43.53 26.1633 44.1886L26.5301 45.2227C26.6601 45.5925 27.1368 45.9276 27.5268 45.9276H29.4766C29.8666 45.9276 30.3433 45.5925 30.4733 45.2227L30.8401 44.1886C31.0741 43.53 31.6663 43.1054 32.3481 43.1054C32.5936 43.1054 32.8334 43.1603 33.0616 43.2672L34.0524 43.7409C34.165 43.7958 34.3066 43.8218 34.4597 43.8218C34.7659 43.8218 35.0779 43.7091 35.2541 43.5329L36.6349 42.1521C36.9122 41.8748 37.0104 41.3029 36.8429 40.9475L36.3691 39.9567C36.164 39.5292 36.1496 39.0613 36.3258 38.6366C36.502 38.2119 36.8429 37.8913 37.2906 37.7352L38.3248 37.3684C38.6945 37.2384 39.0296 36.7617 39.0296 36.3717V34.4219C39.0296 34.0377 38.6916 33.5638 38.3248 33.431ZM28.5004 41.0864C25.3661 41.0864 22.8183 38.5386 22.8183 35.4043C22.8183 32.2701 25.3661 29.7222 28.5004 29.7222C31.6318 29.7222 34.1825 32.2701 34.1825 35.4043C34.1825 38.5386 31.6318 41.0864 28.5004 41.0864Z"
                            fill="#F7A71E"></path>
                        <path
                            d="M47.312 24.5134C47.4015 24.6665 47.4131 24.8514 47.3495 25.0161C47.2831 25.1807 47.1473 25.3049 46.9769 25.3569L45.1542 25.9L51.0529 31.4753L52.9306 23.5743L50.663 24.2474C50.4001 24.3254 50.117 24.207 49.9899 23.9643C47.9216 20.0819 44.874 16.8494 41.1535 14.5844L39.8507 16.8462C42.9156 18.7239 45.4891 21.3649 47.312 24.5134Z"
                            fill="#F7A71E"></path>
                        <path
                            d="M28.5003 7.73017C30.0573 7.73017 31.3254 6.46206 31.3254 4.90502V2.82515C31.3254 1.26811 30.0573 0 28.5003 0C26.9432 0 25.6751 1.26811 25.6751 2.82515V4.90502C25.6751 6.46206 26.9432 7.73017 28.5003 7.73017Z"
                            fill="#F7A71E"></path>
                        <path
                            d="M53.5363 48.7787H46.9299C45.4017 48.7787 43.966 51.7079 43.966 53.4758V55.1975H56.5V53.4758C56.5 51.7079 55.0645 48.7787 53.5363 48.7787Z"
                            fill="#F7A71E"></path>
                    </svg>
