<?xml version="1.0" encoding="UTF-8" standalone="no"?>
<svg width="64" height="62" viewBox="0 0 64 62" fill="none" xmlns="http://www.w3.org/2000/svg"
                            class="absolute left-[126.5px] top-[-0.5px]" preserveAspectRatio="xMidYMid meet">
                            <path
                                d="M38.746 12.1947C37.8023 11.2578 36.2743 11.2578 35.3306 12.1947L30.5216 16.985L28.6655 15.1361L28.6686 15.1392C27.7249 14.1992 26.1969 14.1992 25.2532 15.1392C24.3126 16.0762 24.3126 17.5982 25.2532 18.5382L28.8154 22.0866C29.7591 23.0235 31.2871 23.0235 32.2308 22.0866L38.746 15.5968C39.6866 14.6568 39.6866 13.1347 38.746 12.1947ZM37.4899 14.3455L30.9715 20.8322C30.7247 21.0781 30.3216 21.0781 30.0747 20.8322L26.5125 17.2838C26.2719 17.0348 26.2781 16.6426 26.5218 16.3998C26.7656 16.157 27.1593 16.1508 27.4093 16.3874L29.8935 18.8619V18.8651C30.2435 19.2106 30.806 19.2106 31.1528 18.8651L36.5931 13.4459H36.59C36.7056 13.309 36.8744 13.2249 37.0556 13.2187C37.2337 13.2094 37.4087 13.2779 37.5368 13.4055C37.6618 13.5331 37.7305 13.7074 37.7212 13.8879C37.7118 14.0654 37.6274 14.2334 37.4868 14.3486L37.4899 14.3455ZM63.3946 35.5676L54.5576 22.0995C53.4139 20.3782 51.1047 19.8739 49.3454 20.9603L46.43 22.778C45.5863 23.3009 44.9895 24.1382 44.777 25.1063C44.7239 25.3397 44.6957 25.5794 44.6895 25.8222C44.1833 26.009 43.6583 26.1397 43.1209 26.2144C43.2584 25.9809 43.3959 25.7444 43.5208 25.5047C46.3551 20.179 46.3738 13.235 46.3894 7.65081L46.3988 5.43776C46.3988 5.05802 46.1581 4.71874 45.7957 4.59734L32.2837 0.0466896C32.0994 -0.0155632 31.8994 -0.0155632 31.715 0.0466896L18.2063 4.59734C17.8438 4.71873 17.6001 5.058 17.6001 5.43776L17.6063 7.65392C17.6219 13.238 17.6407 20.1857 20.4748 25.5078H20.4717C20.7873 26.0992 21.1404 26.6719 21.5248 27.2228C20.7623 26.8867 20.0186 26.51 19.3 26.0929C19.3218 25.7505 19.2937 25.4081 19.2187 25.072C19.0094 24.104 18.4125 23.2605 17.5688 22.7406L14.6534 20.9229C12.891 19.8366 10.5818 20.3408 9.44126 22.0621L0.604218 35.5271V35.5302C0.0605009 36.3582 -0.126983 37.3698 0.0854991 38.3377C0.301109 39.3026 0.894808 40.1431 1.73851 40.6691L4.65393 42.4869C5.25702 42.8604 5.95073 43.0596 6.66004 43.0596C7.26938 43.0565 7.8662 42.9164 8.40681 42.6425C9.90359 43.623 10.7691 44.2237 11.6004 44.8245L10.9285 45.8734L10.9317 45.8703C10.2317 46.9629 10.1848 48.3449 10.8098 49.4809C11.4316 50.614 12.6253 51.3205 13.9252 51.3236C14.0064 51.3236 14.0783 51.3236 14.1533 51.3143C13.9627 52.6839 14.5939 54.0379 15.7688 54.7756C16.3375 55.1304 16.9969 55.3203 17.6718 55.3203C17.7531 55.3203 17.8249 55.3203 17.903 55.3141C17.6468 56.9233 18.528 58.5014 20.0373 59.1333C21.5466 59.7683 23.2965 59.292 24.2714 57.9816C24.8808 59.1613 26.0995 59.9022 27.4275 59.9053C28.4618 59.9053 29.4429 59.4602 30.1211 58.682L34.2208 61.2872V61.2903C34.9333 61.7479 35.7645 61.9938 36.6113 62C36.7988 62 36.9863 61.9875 37.1738 61.9626C38.1799 61.8475 39.083 61.2934 39.6361 60.4499C40.0548 59.7869 40.2235 58.9995 40.1142 58.2244C41.5891 58.5886 43.1358 58.0065 43.9983 56.7615C44.4295 56.0829 44.5983 55.2705 44.4733 54.4768C45.9138 54.788 47.3981 54.1998 48.2324 52.9889C48.6136 52.4006 48.8105 51.7096 48.798 51.0093C49.4823 51.2209 50.2073 51.2552 50.9072 51.1089C51.8041 50.9346 52.5915 50.3992 53.0789 49.6303C53.5695 48.8615 53.7164 47.9246 53.4914 47.0437C53.3039 46.2594 52.8914 45.5435 52.3071 44.9832C52.8008 44.6221 53.232 44.2517 53.6508 43.8907V43.8938C54.1882 43.3989 54.7694 42.9569 55.3882 42.5709C55.9819 42.9133 56.6537 43.0969 57.338 43.0969C58.0474 43.0969 58.7442 42.8977 59.3473 42.5242L62.2627 40.7064C63.1064 40.1835 63.7001 39.3431 63.9126 38.3751C64.1282 37.4071 63.9407 36.3954 63.397 35.5675L63.3946 35.5676ZM19.3846 7.6473L19.3815 6.06917L31.9991 1.82045L44.6167 6.07228V7.65041C44.6011 13.0384 44.5854 19.7432 41.9575 24.6796V24.6765C41.67 25.215 41.3481 25.7347 40.9951 26.2359C40.5263 26.1954 40.0358 26.1332 39.492 26.0585H39.4952C39.9858 25.4328 40.4201 24.7667 40.792 24.0664C43.2668 19.413 43.2856 12.8892 43.298 7.64438H43.3012C43.3012 7.26464 43.0574 6.92537 42.695 6.80396L32.2828 3.29916C32.0985 3.23691 31.8985 3.23691 31.7141 3.29916L21.302 6.80396C20.9395 6.92535 20.6958 7.26464 20.6958 7.64438C20.7114 12.8892 20.727 19.4136 23.2018 24.0664H23.205C24.2674 26.074 25.8235 27.7798 27.7296 29.0217C27.4484 29.3517 27.1765 29.6941 26.911 30.0458H26.9141C26.4235 29.719 25.9517 29.3641 25.4986 28.9813C25.483 28.9658 25.4642 28.9471 25.4423 28.9346C24.0518 27.7425 22.8987 26.2982 22.0457 24.6797C19.4177 19.74 19.399 13.0355 19.3834 7.64734L19.3846 7.6473ZM28.9904 27.7236C27.2092 26.6279 25.7562 25.0778 24.7782 23.2352C22.6033 19.1483 22.497 13.2062 22.4814 8.27617L31.9992 5.06707L41.517 8.27617C41.5014 13.2066 41.3952 19.149 39.2203 23.2352C38.7297 24.1596 38.1172 25.0156 37.3986 25.7751C36.6986 25.6879 35.9393 25.607 35.0956 25.5478C32.8426 25.3704 30.6184 26.161 28.9904 27.7236ZM5.60148 40.9869L2.68607 39.1692V39.1723C2.24859 38.8984 1.93924 38.4626 1.82676 37.9584C1.71739 37.4572 1.81426 36.9312 2.0955 36.5017L10.9293 23.0336C11.3074 22.4608 11.9511 22.1154 12.6417 22.1185C13.0198 22.1185 13.3917 22.2243 13.7104 22.4235L16.6258 24.2413H16.6289C17.0664 24.5121 17.3757 24.9509 17.4851 25.452C17.5976 25.9532 17.5007 26.4792 17.2163 26.9087L8.37931 40.3737V40.3768C7.7731 41.295 6.54206 41.5659 5.60148 40.9869ZM12.9761 49.2755C12.1479 48.7464 11.9043 47.6507 12.4323 46.8259L15.1197 42.6363C15.3759 42.2379 15.779 41.9577 16.2415 41.8612C16.3696 41.8332 16.5008 41.8176 16.632 41.8176C16.9695 41.8176 17.2976 41.9141 17.582 42.0947C18.4101 42.6207 18.6538 43.7164 18.1257 44.5443L15.4415 48.737C15.1852 49.1354 14.7821 49.4156 14.3197 49.5152C13.8572 49.6179 13.3729 49.5307 12.9761 49.2755ZM16.7165 53.2752L16.7196 53.2783C16.3227 53.0293 16.0446 52.634 15.9446 52.1796C15.8446 51.7282 15.929 51.252 16.1852 50.863L20.6256 44.0432L20.6225 44.0401C20.96 43.5265 21.5349 43.2152 22.1537 43.2184C22.4911 43.2184 22.8255 43.3148 23.113 43.4954C23.7848 43.9156 24.0879 44.7373 23.8442 45.4937L19.21 52.7274C18.6695 53.5585 17.5602 53.8013 16.7164 53.2784L16.7165 53.2752ZM21.8005 57.5987H21.8037C21.1006 57.7543 20.3725 57.4742 19.9631 56.8859C19.5507 56.2976 19.5319 55.5226 19.9194 54.9187L20.7131 53.6798L25.141 46.8787V46.8756C25.266 46.6857 25.3691 46.4865 25.4534 46.2779L25.4972 46.2095C25.7534 45.811 26.1565 45.5309 26.619 45.4344C26.7471 45.4064 26.8783 45.3908 27.0096 45.3908C27.6564 45.3939 28.2532 45.7488 28.5626 46.3153C28.8719 46.8819 28.8501 47.5728 28.5032 48.1175L22.9192 56.8269C22.666 57.2222 22.263 57.5024 21.8005 57.602L21.8005 57.5987ZM26.4784 57.857H26.4815C25.6534 57.331 25.4097 56.2353 25.9378 55.4074L28.622 51.2147C28.8783 50.8194 29.2814 50.5392 29.7438 50.4396C29.8719 50.4116 30.0032 50.3961 30.1344 50.3961C30.4719 50.3961 30.8 50.4926 31.0843 50.6731C31.9124 51.2022 32.1561 52.2979 31.6281 53.1227L29.1407 57.0042L28.9438 57.3123V57.3155C28.6907 57.7139 28.2876 57.994 27.8252 58.0967C27.3627 58.1995 26.8784 58.1123 26.4815 57.8602L26.4784 57.857ZM51.5704 48.6902C51.3267 49.0513 50.9517 49.2972 50.5236 49.3781C49.8642 49.5057 49.1768 49.3688 48.6175 48.9953L46.9582 47.9339L46.9426 47.9246L41.2898 44.3014H41.2929C41.093 44.1645 40.8492 44.1116 40.6117 44.1582C40.3743 44.2049 40.1649 44.345 40.0337 44.5473C39.9024 44.7527 39.8618 44.9987 39.918 45.2321C39.9743 45.4655 40.1243 45.6679 40.3305 45.7893L45.977 49.4093L45.9833 49.4155L45.9989 49.4249L45.9958 49.4217C46.4739 49.7019 46.8207 50.1532 46.9708 50.6823C47.0801 51.1492 46.9926 51.6379 46.7301 52.0363C46.1927 52.8767 44.8396 53.0137 43.7741 52.3382L42.4898 51.5228L42.4835 51.5165L38.8244 49.1914C38.4088 48.9299 37.8589 49.0482 37.5932 49.4622C37.3307 49.873 37.4495 50.4208 37.8619 50.6855L41.5273 53.0169C42.0523 53.3375 42.446 53.8323 42.6397 54.4175C42.8022 54.8782 42.7491 55.3887 42.496 55.8089C41.9585 56.6493 40.6054 56.7863 39.5399 56.1108L36.2245 54.0036H36.2276C35.812 53.739 35.2621 53.8604 34.9964 54.2713C34.734 54.6852 34.8527 55.2331 35.2683 55.4977L37.1619 56.7023C38.2244 57.3777 38.6681 58.6601 38.1306 59.5005V59.4974C37.8556 59.902 37.415 60.1666 36.9244 60.2133C36.312 60.288 35.6932 60.1417 35.1777 59.8024L31.1123 57.2158L33.1184 54.0783C34.1746 52.4255 33.6872 50.2373 32.0341 49.1821C31.4935 48.8397 30.8717 48.6468 30.2342 48.6281C30.7936 47.408 30.6092 45.9761 29.7593 44.9303C28.9124 43.8876 27.5438 43.4145 26.2251 43.7039C25.9907 43.7568 25.7626 43.8315 25.5439 43.928C25.297 43.128 24.7721 42.4432 24.0596 41.9981C22.7628 41.192 21.1004 41.2853 19.9036 42.2316C19.3943 41.0115 18.2475 40.1773 16.9287 40.062C15.607 39.9469 14.332 40.5694 13.6165 41.6806L12.5603 43.3334C11.7354 42.7389 10.9604 42.2004 9.80112 41.4409C9.82299 41.4098 9.84486 41.3786 9.86674 41.3475L18.7038 27.8826C18.7163 27.8608 18.7288 27.839 18.7444 27.8203V27.8172C20.0099 28.4958 21.313 29.1028 22.6504 29.6318C23.2285 29.8715 23.8285 30.1236 24.4284 30.3882H24.4253C24.8972 30.7835 25.3877 31.1539 25.8939 31.4994C25.5627 31.9943 25.2409 32.4954 24.9253 32.9873H24.9284C24.0941 34.3755 23.1504 35.6952 22.1067 36.931C21.4287 37.6811 21.6099 38.8172 22.5598 39.7635C23.4004 40.7221 24.5941 41.3042 25.8721 41.3727H25.994C28.0501 41.3011 29.6062 39.5207 31.1092 37.7993C32.281 36.4578 33.4966 35.0727 34.5153 35.1194C35.1934 35.4026 35.8121 35.8104 36.3339 36.3239C37.2182 37.1239 38.2338 37.7713 39.3337 38.2351L50.577 45.8797C50.5863 45.886 50.5988 45.8953 50.6082 45.9015V45.8984C51.1801 46.2408 51.5926 46.7948 51.755 47.4392C51.8644 47.8625 51.7985 48.3137 51.5704 48.6902ZM52.4859 42.5552C51.9516 43.0346 51.3829 43.4765 50.786 43.8782L44.2396 39.424C45.2708 39.5174 46.3145 39.3991 47.2987 39.0754C47.755 38.9011 47.9799 38.3906 47.805 37.9361C47.6331 37.4817 47.1238 37.2514 46.6644 37.4226C45.2238 37.9704 42.4959 37.6622 40.1835 36.6724H40.1867C40.1398 36.6475 40.0929 36.6257 40.0429 36.6102C39.1336 36.2242 38.293 35.6889 37.5555 35.0289C37.5368 35.0134 35.8119 33.4041 34.612 33.3481C32.7183 33.2547 31.2184 34.9729 29.7685 36.6319C28.5155 38.0669 27.2156 39.5516 25.9281 39.5983H25.9313C25.1031 39.5423 24.3376 39.147 23.8158 38.5089C23.6783 38.375 23.5689 38.2194 23.4939 38.042C24.5783 36.7502 25.5594 35.3775 26.4281 33.9364C27.3718 32.3365 28.478 30.8394 29.7248 29.4636L29.7436 29.4449C31.0591 27.9632 32.9902 27.1757 34.9745 27.3127C36.4151 27.4154 37.6243 27.5866 38.693 27.7329C41.0804 28.066 42.874 28.315 45.0926 27.5586L45.0895 27.5617C45.152 27.6831 45.2207 27.8014 45.2926 27.9134L54.0792 41.3011C53.5199 41.687 52.989 42.1039 52.4859 42.5552ZM62.1757 37.9983C62.0663 38.4994 61.7539 38.9383 61.3164 39.2091L58.3979 41.0237C57.4573 41.6027 56.2262 41.3319 55.6168 40.4137L46.7829 26.9455C46.4986 26.516 46.4017 25.99 46.5142 25.4888C46.6236 24.9846 46.9329 24.5488 47.3704 24.2749L50.2858 22.4572H50.2889C51.2295 21.8783 52.4606 22.1491 53.07 23.0673L61.9071 36.5322V36.5353C62.1914 36.9649 62.2883 37.4909 62.1758 37.9951L62.1757 37.9983Z"
                                fill="black"></path>
                        </svg>
