<?xml version="1.0" encoding="UTF-8" standalone="no"?>
<svg width="20" height="21" viewBox="0 0 20 21" fill="none"
                                        xmlns="http://www.w3.org/2000/svg" class="flex-grow-0 flex-shrink-0"
                                        preserveAspectRatio="none">
                                        <path
                                            d="M18.0691 11.9324H11.7421C10.2375 11.9324 9.56273 11.4802 8.85004 10.9997C8.08259 10.4822 7.28779 9.94702 5.55556 9.94702H1.93112C1.85399 9.94702 1.77587 9.9519 1.70069 9.96167L1.70166 2.09249C1.70166 1.82979 1.91452 1.6179 2.17619 1.6179H6.13857C6.40123 1.6179 6.6131 1.83078 6.6131 2.09249V3.23506H6.01359C5.36624 3.23506 4.83897 3.7624 4.83897 4.40984V4.67742C4.83897 4.85222 4.98153 4.99284 5.15435 4.99284H8.70654C8.88132 4.99284 9.02192 4.85026 9.02192 4.67742L9.01997 4.40984C9.01997 3.7624 8.4927 3.23506 7.84535 3.23506H7.24584V2.09249C7.24584 1.48215 6.74885 0.985077 6.13859 0.985077H2.17446C1.56421 0.985077 1.06721 1.48215 1.06721 2.09249V10.1519C0.434507 10.4693 0 11.1246 0 11.8765V12.5161C0 12.6909 0.142555 12.8316 0.315376 12.8316H1.06526V15.1089C1.06526 16.8735 2.10807 18.3989 3.60786 19.1011C3.5854 19.1607 3.53268 19.2085 3.46531 19.2261C3.0181 19.3286 2.74277 19.7261 2.79549 20.1958C2.85114 20.6597 3.20655 20.9849 3.66353 20.9849H4.8157C5.31562 20.9849 5.7384 20.6099 5.79797 20.1128C5.838 19.7729 6.12799 19.5152 6.47071 19.5152H13.5371C13.8798 19.5152 14.1698 19.7729 14.2099 20.1128C14.2645 20.6099 14.6873 20.9849 15.1873 20.9849H16.3394C16.7964 20.9849 17.1518 20.6597 17.2045 20.1948C17.2572 19.7251 16.9819 19.3276 16.5347 19.2251C16.4693 19.2105 16.4175 19.1626 16.3921 19.103C17.8919 18.4009 18.9347 16.8755 18.9347 15.1108V14.8179H19.6846C19.8594 14.8179 20 14.6753 20 14.5024V13.8628C19.999 12.7974 19.1334 11.9324 18.0691 11.9324ZM8.38311 4.36017H5.46857C5.49395 4.08282 5.72633 3.86505 6.00853 3.86505H7.84027C8.12538 3.86798 8.35772 4.08478 8.38311 4.36017ZM4.81342 20.3523H3.66125C3.46597 20.3523 3.43082 20.1775 3.42593 20.1247C3.42105 20.0847 3.40836 19.8874 3.60852 19.8425C3.88388 19.78 4.10065 19.5798 4.19828 19.3279C4.56345 19.4382 4.94816 19.5027 5.34555 19.5124C5.25084 19.6677 5.18835 19.8445 5.16589 20.0378C5.14539 20.2204 4.99602 20.3523 4.81342 20.3523ZM16.3916 19.8425C16.5918 19.8874 16.5791 20.0847 16.5742 20.1247C16.5693 20.1775 16.5342 20.3523 16.3389 20.3523H15.1867C15.0041 20.3523 14.8547 20.2194 14.8342 20.0368C14.8118 19.8445 14.7493 19.6667 14.6546 19.5114C15.052 19.4987 15.4367 19.4362 15.8018 19.3269C15.8995 19.5798 16.1163 19.78 16.3916 19.8425ZM18.2985 15.11C18.2985 17.1901 16.6064 18.8855 14.5236 18.8855H5.47329C3.39354 18.8855 1.69838 17.1932 1.69838 15.11V12.8327H5.55328C6.19088 12.8327 6.46819 12.9099 6.87337 13.155C6.98566 13.2224 7.11064 13.3054 7.25319 13.4021C7.8283 13.7898 8.35849 14.0847 8.88771 14.3024C9.77037 14.6677 10.6521 14.8171 11.7398 14.8171H18.2982L18.2985 15.11ZM19.3657 14.1853H11.7419C11.1844 14.1853 10.6923 14.1452 10.2275 14.0524C9.33802 13.8776 8.55006 13.5124 7.60793 12.8777C7.58548 12.863 7.56009 12.8474 7.53763 12.8327C7.15292 12.5779 6.87269 12.4099 6.54559 12.3152C6.2761 12.2351 5.9734 12.2029 5.55354 12.2029H0.63431V11.8806C0.63431 11.1657 1.21624 10.5827 1.93196 10.5827H5.55639C7.0962 10.5827 7.7787 11.0398 8.49843 11.528C9.25809 12.0407 10.046 12.571 11.7429 12.571H18.0692C18.7839 12.571 19.3668 13.153 19.3668 13.8688L19.3657 14.1853ZM7.72507 7.40982C7.89984 7.40982 8.04044 7.55239 8.04044 7.72524V8.56996C8.04044 8.74476 7.89789 8.88538 7.72507 8.88538C7.55224 8.88538 7.40969 8.7428 7.40969 8.56996V7.72524C7.41067 7.55044 7.55029 7.40982 7.72507 7.40982ZM6.96836 5.55046C7.14314 5.55046 7.28374 5.69304 7.28374 5.86588V6.7106C7.28374 6.8854 7.14118 7.02602 6.96836 7.02602C6.79554 7.02602 6.65298 6.88344 6.65298 6.7106V5.86588C6.65103 5.69206 6.79359 5.55046 6.96836 5.55046ZM5.43345 5.69792C5.60823 5.69792 5.74882 5.8405 5.74882 6.01334V6.85806C5.74882 7.03286 5.60627 7.17348 5.43345 7.17348C5.25867 7.17348 5.11807 7.0309 5.11807 6.85806V6.01334C5.11807 5.84049 5.25868 5.69792 5.43345 5.69792ZM6.20578 7.21743C6.38056 7.21743 6.52115 7.36001 6.52115 7.53285V8.37757C6.52115 8.55237 6.3786 8.69299 6.20578 8.69299C6.03295 8.69299 5.8904 8.55041 5.8904 8.37757V7.53285C5.88845 7.35707 6.03101 7.21743 6.20578 7.21743ZM8.73563 6.11001V6.95473C8.73563 7.12954 8.59308 7.27015 8.42026 7.27015C8.24743 7.27015 8.10488 7.12758 8.10488 6.95473L8.10586 6.11001C8.10586 5.93521 8.24841 5.79459 8.42123 5.79459C8.59308 5.79459 8.73563 5.93522 8.73563 6.11001ZM10.3174 2.58755H11.8221V7.02201C11.8221 7.19681 11.9646 7.33743 12.1374 7.33743H13.1773V7.85695C13.1773 8.28174 13.522 8.62647 13.9467 8.62647H17.5037C17.9284 8.62647 18.2731 8.28174 18.2731 7.85695L18.274 4.77973C18.274 3.96236 18.0143 3.20747 17.574 2.58737H19.1938C19.6361 2.58737 19.9964 2.22703 19.9964 1.78466C19.9955 1.34228 19.6381 0.984863 19.1958 0.984863H10.3172C9.87486 0.984863 9.51456 1.34521 9.51456 1.78758C9.51456 2.22995 9.87511 2.58755 10.3174 2.58755ZM12.4548 6.70751V2.6373C12.8727 2.77206 13.1773 3.16464 13.1773 3.62751V6.70748L12.4548 6.70751ZM13.8091 7.85985V3.62739C13.8091 3.23482 13.6714 2.87447 13.4468 2.58735H13.8589C14.0434 2.89007 14.1489 3.24749 14.1489 3.62739V7.99735H13.9487C13.8716 7.99735 13.8091 7.93504 13.8091 7.85985ZM19.196 1.61766C19.2887 1.61766 19.3659 1.6948 19.3659 1.78758C19.3659 1.88035 19.2887 1.9575 19.196 1.9575H17.0117C16.8741 1.83543 16.7296 1.72215 16.5743 1.6196H19.1959L19.196 1.61766ZM14.482 1.61766C16.2268 1.61766 17.6435 3.03757 17.6435 4.77963V7.8596C17.6435 7.93675 17.581 7.99729 17.5058 7.99729H14.7817V3.62733C14.7817 3.57948 14.7788 3.53261 14.7768 3.48476C14.7768 3.47011 14.7739 3.45448 14.7739 3.43691C14.771 3.40468 14.769 3.37441 14.7661 3.34218C14.7632 3.3246 14.7612 3.30507 14.7583 3.28749C14.7554 3.26015 14.7505 3.22987 14.7456 3.20253C14.7427 3.183 14.7378 3.16542 14.7358 3.14492C14.7309 3.11757 14.7261 3.09218 14.7212 3.06484C14.7163 3.04531 14.7134 3.02773 14.7085 3.00722C14.7036 2.98183 14.6958 2.95449 14.689 2.93007C14.6841 2.91054 14.6792 2.89297 14.6743 2.87246C14.6665 2.84707 14.6597 2.82265 14.6519 2.79726C14.647 2.77969 14.6392 2.76015 14.6343 2.74258C14.6245 2.71719 14.6167 2.69277 14.6069 2.66738C14.5991 2.6498 14.5943 2.63223 14.5874 2.61465C14.5777 2.58926 14.565 2.56484 14.5552 2.5375C14.5474 2.52285 14.5405 2.50527 14.5327 2.48965C14.52 2.45938 14.5054 2.43203 14.4898 2.40469C14.4849 2.39199 14.4771 2.38223 14.4722 2.36953C14.4497 2.32949 14.4292 2.29239 14.4048 2.25235C14.3999 2.24453 14.3951 2.2377 14.3902 2.22989C14.3707 2.19961 14.3531 2.17032 14.3326 2.14004C14.3228 2.12735 14.313 2.1127 14.3052 2.1C14.2877 2.07754 14.273 2.05215 14.2554 2.02969C14.2457 2.01504 14.233 2.00235 14.2232 1.98672C14.2056 1.96719 14.191 1.94375 14.1734 1.92422C14.1607 1.90957 14.148 1.89688 14.1363 1.88125C14.1187 1.86172 14.1012 1.84121 14.0836 1.82364C14.0709 1.80899 14.0562 1.79629 14.0436 1.78067C14.026 1.76309 14.0084 1.74356 13.9889 1.72598C13.9762 1.71329 13.9615 1.69864 13.9459 1.68594C13.9264 1.66836 13.9088 1.65078 13.8883 1.63321C13.8785 1.62539 13.8707 1.61563 13.861 1.60782L14.482 1.60977V1.61766ZM10.3176 1.61766H12.1396C12.5516 1.61766 12.9344 1.74266 13.2547 1.95555H10.3206C10.2279 1.95555 10.1507 1.87841 10.1507 1.78563C10.1507 1.69188 10.2249 1.61766 10.3176 1.61766Z"
                                            fill="white"></path>
                                    </svg>
