<?xml version="1.0" encoding="UTF-8" standalone="no"?>
<svg width="56" height="58" viewBox="0 0 56 58" fill="none"
                                    xmlns="http://www.w3.org/2000/svg" class="flex-grow-0 flex-shrink-0"
                                    preserveAspectRatio="none">
                                    <path fill-rule="evenodd" clip-rule="evenodd"
                                        d="M41.5139 29.7176C41.4843 29.8084 41.4326 29.8919 41.3587 29.9508C41.3513 29.9606 41.3365 29.9729 41.3217 29.9827V29.9802C37.8975 33.2053 33.5225 34.8744 29.1175 34.9676C24.735 35.0609 20.3231 33.6029 16.7656 30.5717C16.6991 30.4637 16.6548 30.3435 16.6548 30.2208C16.6474 30.0809 16.6917 29.936 16.7804 29.8109C16.8617 29.6882 16.9873 29.5998 17.1204 29.5556C17.2164 29.5237 17.3125 29.5139 17.416 29.5237C18.4999 30.4589 19.67 31.2394 20.8919 31.8653C20.9215 31.8824 20.951 31.8972 20.9806 31.9094C23.4785 33.1661 26.2106 33.7871 28.9425 33.7723C31.7114 33.7576 34.473 33.09 36.9782 31.772C37.0078 31.7621 37.0299 31.7499 37.0521 31.7351C38.3036 31.07 39.4983 30.2404 40.5872 29.2488C40.6094 29.2292 40.6316 29.2071 40.6537 29.185C40.7276 29.1089 40.8163 29.0598 40.905 29.0427C40.9863 29.0255 41.075 29.0279 41.1637 29.0525C41.245 29.077 41.3262 29.1163 41.3854 29.1727C41.4593 29.2415 41.511 29.3298 41.5406 29.4378C41.5578 29.5311 41.5508 29.6268 41.5139 29.7176ZM26.3342 24.1509L22.5257 30.7164C24.5654 31.6098 26.753 32.0516 28.9331 32.0394C31.1724 32.0271 33.4117 31.5387 35.4886 30.5741L31.6875 24.0231L29.3251 24.0403C28.8102 24.0452 28.2264 24.0722 27.6376 24.0992C27.204 24.1188 26.7678 24.1387 26.3342 24.1509ZM17.8476 16.8711C17.6407 16.4514 17.4362 16.0267 17.2662 15.6929L14.0317 9.37253C16.0123 8.70738 17.1184 10.0009 18.0545 11.7583C18.3354 12.2737 18.6211 12.8774 18.9094 13.4862C19.9785 15.7271 21.0822 18.0465 23.1515 19.0185C24.8686 19.8235 26.7605 19.8137 28.6179 19.8014C31.1159 19.7867 33.5227 19.772 34.7471 22.2583L29.3102 22.305C28.7214 22.3099 28.1474 22.3369 27.5636 22.3639C25.3982 22.4621 23.0555 22.5676 21.4493 21.6055C19.6165 20.5132 18.7615 18.7512 17.8476 16.8711ZM17.8698 7.83374C17.9806 7.6693 18.1063 7.51712 18.2442 7.37722C18.6187 7.5343 19.0252 7.63494 19.4514 7.66684C20.4022 7.73557 21.299 7.45085 22.0158 6.9305C22.0454 6.95259 22.0823 6.97468 22.1193 6.99677C22.2893 7.10722 22.4371 7.23485 22.575 7.3723C22.9224 7.80428 23.2525 8.25096 23.5629 8.70751C23.8954 9.18122 24.2107 9.67703 24.5211 10.19C24.9695 10.9288 25.3021 11.5399 25.5829 12.0455C27.2408 15.0816 27.263 15.1185 33.0888 15.3075C33.111 15.3099 33.1258 15.3099 33.148 15.3075C34.2171 15.278 35.3134 15.7247 36.2864 16.5052C37.2817 17.3102 38.1267 18.4638 38.644 19.8138C38.9544 20.879 39.2106 21.8583 39.4471 22.8179C39.6023 23.4733 39.7427 24.1114 39.8658 24.752L38.7326 24.8625C38.4222 24.8919 38.1365 24.8232 37.8926 24.6759C37.6561 24.5311 37.4664 24.3029 37.3482 24.0181C37.2447 23.758 37.1486 23.5223 37.06 23.3112C36.9787 23.1296 36.89 22.9554 36.8087 22.7835C35.4169 18.0269 32.0788 18.0465 28.6103 18.0661C26.9524 18.076 25.26 18.0858 23.8952 17.4452C22.3925 16.7358 21.4268 14.706 20.4858 12.7425C20.205 12.1411 19.9192 11.5447 19.594 10.9409C19.02 9.86589 18.3943 8.91598 17.6281 8.26314C17.6996 8.11833 17.7737 7.97119 17.8698 7.83374ZM17.6284 3.68328C17.6727 3.10403 17.9462 2.5984 18.3575 2.24741C18.7615 1.89398 19.3084 1.69762 19.8898 1.7418C20.4712 1.78598 20.9811 2.05842 21.3334 2.46093C21.6808 2.86837 21.8778 3.41078 21.8409 3.99004C21.8039 4.49075 21.5896 4.93499 21.2743 5.27373C21.2669 5.28354 21.2595 5.29336 21.2521 5.30073C21.2078 5.34491 21.1634 5.38663 21.1117 5.42835C20.7077 5.77933 20.1608 5.97569 19.5794 5.93397C19.2173 5.90697 18.8946 5.79406 18.6063 5.61734C18.5989 5.60998 18.5842 5.60262 18.5768 5.59525C18.4142 5.48971 18.2664 5.35963 18.1358 5.21482C17.7811 4.80493 17.5914 4.26499 17.6284 3.68328ZM42.5168 31.2439C42.8272 30.9764 43.0465 30.6401 43.1721 30.2744C43.2978 29.8939 43.3273 29.4743 43.2313 29.0643C43.1278 28.5857 42.8913 28.193 42.5686 27.9009C42.2951 27.6456 41.965 27.4689 41.6177 27.3732C41.2703 27.2799 40.8959 27.2677 40.5264 27.3487C40.115 27.4395 39.7233 27.6456 39.3931 27.9794C38.6492 28.6544 37.8535 29.2459 37.0208 29.7515L33.6853 24.0008L35.4467 23.9861C35.4541 23.9935 35.4541 24.0033 35.4615 24.0131C35.5501 24.2144 35.6388 24.4279 35.7275 24.6512C35.9788 25.2992 36.4272 25.8171 36.9864 26.1582C37.5382 26.4969 38.2082 26.6565 38.9005 26.5878L40.9329 26.3865C40.9698 26.3865 40.9994 26.3816 41.029 26.3767C41.5069 26.2981 41.8246 25.849 41.7507 25.3778C41.5734 24.3494 41.3763 23.3896 41.1398 22.4153C40.9033 21.4384 40.6397 20.4321 40.3219 19.33H40.3145C40.3145 19.3104 40.3071 19.2883 40.2923 19.2662C39.674 17.5923 38.6197 16.1565 37.3756 15.1501C36.102 14.1266 34.6141 13.5351 33.1187 13.572C28.3174 13.4149 28.2953 13.3854 27.1079 11.2157C26.8197 10.6855 26.4748 10.0498 26.0166 9.29878C25.6914 8.75145 25.3465 8.22621 24.9992 7.72059C24.6444 7.20517 24.2848 6.71916 23.9152 6.26267C23.9004 6.24304 23.8856 6.22095 23.8635 6.20131C23.6418 5.97305 23.4077 5.77179 23.1565 5.59998C23.3856 5.15082 23.5383 4.65012 23.5752 4.11258C23.6492 3.05717 23.287 2.0705 22.6391 1.32435C21.9986 0.583108 21.0625 0.0848395 20.0106 0.0112616C18.9488 -0.0697369 17.9561 0.291065 17.2121 0.936609C16.4607 1.5821 15.968 2.50744 15.8867 3.56286C15.8128 4.61827 16.1749 5.60739 16.8155 6.35109H16.8229C16.6751 6.51798 16.5346 6.69225 16.4189 6.87879C16.2932 7.06287 16.1824 7.25432 16.0863 7.45558C15.1132 7.21995 13.9505 7.39422 12.4921 8.1551C12.4773 8.16247 12.4552 8.17228 12.4404 8.17965C12.0068 8.39809 11.8368 8.92089 12.0585 9.35042L15.7119 16.4852C15.941 16.9294 16.1085 17.2804 16.2785 17.6289C17.3106 19.7495 18.2739 21.7376 20.5501 23.0998C21.6833 23.7772 22.9889 24.0448 24.3291 24.1307L20.9714 29.9305C20.0722 29.4102 19.21 28.7965 18.4069 28.0848C18.3256 28.0111 18.2221 27.9498 18.1039 27.9105C17.5964 27.7387 17.0569 27.746 16.5716 27.9056C16.0863 28.0651 15.6503 28.3793 15.3424 28.8211C15.032 29.258 14.894 29.7758 14.9162 30.2863C14.931 30.7969 15.1083 31.3 15.4458 31.7148C15.4828 31.7541 15.5123 31.7933 15.5567 31.8277C19.4613 35.1903 24.3214 36.8078 29.1477 36.7046C33.9786 36.6016 38.7676 34.7755 42.5168 31.2484L42.5168 31.2439ZM54.2576 22.9455C54.265 22.8596 54.2576 22.7786 54.228 22.7025C54.1911 22.6215 54.132 22.538 54.0507 22.462C53.9398 22.3589 53.8289 22.2902 53.7107 22.2533C53.5777 22.2092 53.4077 22.192 53.2032 22.192C52.9519 22.192 52.7327 22.2582 52.5701 22.3687C52.4223 22.4669 52.3188 22.5994 52.2745 22.7516L49.6608 31.7814C49.4908 32.3582 49.2716 32.8859 48.9981 33.3768C48.8355 33.659 48.6508 33.929 48.4537 34.1917C48.7567 34.7022 48.8946 35.2691 48.8651 35.8312C48.8207 36.5111 48.5399 37.1738 48.0251 37.7113C47.9216 37.8169 47.8107 37.9224 47.6777 38.0206L40.9083 43.305C40.5339 43.5995 39.9796 43.5308 39.6865 43.1553C39.3909 42.7773 39.4574 42.2324 39.8417 41.9379L46.611 36.6535C46.6628 36.6093 46.7219 36.5627 46.7736 36.5062C46.9879 36.2804 47.1062 36.008 47.121 35.733C47.1357 35.4606 47.0544 35.1833 46.8623 34.9452C46.8253 34.8985 46.781 34.847 46.7293 34.7955C46.4041 34.4887 45.9632 34.3218 45.5 34.3021C45.0369 34.2825 44.5639 34.4101 44.2042 34.6899L34.5623 42.2174V42.2223C34.3184 42.4358 34.0104 42.6984 33.7148 42.9537C32.1086 44.3233 30.9163 45.3468 30.9163 47.6171V56.2592H39.659V56.2617H39.6737C40.0137 56.2592 40.329 56.1463 40.5581 55.9524C40.7502 55.7954 40.8759 55.5769 40.8759 55.3241V55.3143C40.8611 53.5422 40.9941 51.8143 41.5164 50.1551C42.0534 48.4616 42.9969 46.849 44.5883 45.3494C45.554 44.4486 46.5024 43.7442 47.4238 43.0618C48.9191 41.9574 50.3183 40.9216 51.4392 39.201C53.3903 36.1821 53.7376 30.694 54.016 26.2391C54.0874 25.0733 54.1615 23.9763 54.2576 22.9455ZM55.849 22.0644C55.7233 21.7478 55.5238 21.4557 55.2454 21.198C54.9424 20.9157 54.6271 20.7267 54.2649 20.6089C53.925 20.496 53.5801 20.4518 53.2032 20.4518C52.607 20.4518 52.0478 20.6285 51.5896 20.9353C51.1191 21.2569 50.7644 21.7208 50.6018 22.2779L47.9881 31.3077C47.8624 31.7421 47.6924 32.1446 47.4806 32.5226C47.3845 32.6871 47.281 32.8466 47.1702 33.0012C46.6849 32.7411 46.1306 32.5987 45.5714 32.5742C44.7091 32.5349 43.8248 32.7853 43.1252 33.3301L33.4933 40.8532C33.4563 40.8753 33.4268 40.8973 33.3972 40.9243C33.0646 41.2189 32.8158 41.43 32.5793 41.6337C30.6282 43.3026 29.1625 44.552 29.1625 47.6151V57.1287C29.1625 57.6098 29.5517 58 30.0395 58H39.6593V57.9975H39.6889C40.4255 57.9902 41.1399 57.73 41.6769 57.2882C42.2435 56.8096 42.6204 56.1297 42.6204 55.3271V55.3026C42.6056 53.6998 42.7165 52.1487 43.1796 50.6809C43.6354 49.25 44.4311 47.8877 45.7859 46.6163C46.6777 45.7769 47.5843 45.1044 48.4588 44.4589C50.0871 43.2586 51.6194 42.1272 52.9005 40.144C55.0954 36.7495 55.4575 31.0111 55.7507 26.3527C55.832 25.1598 55.8985 24.0381 55.9872 23.1103C56.0241 22.7422 55.982 22.3909 55.849 22.0644ZM25.0879 56.2596V47.6149C25.0879 45.3446 23.8956 44.3211 22.2894 42.9515C21.9938 42.6987 21.6859 42.4336 21.4419 42.2201V42.2152L11.8 34.6946C11.4379 34.4124 10.9674 34.2847 10.5042 34.3068C10.0485 34.3265 9.59765 34.4934 9.27495 34.8002C9.22322 34.8517 9.17888 34.9033 9.14192 34.9499C8.94977 35.1904 8.86848 35.4678 8.88326 35.7378C8.89804 36.0102 9.01628 36.2826 9.2306 36.5109C9.28233 36.5649 9.34146 36.614 9.39319 36.6582L16.1625 41.9426C16.5444 42.2371 16.6109 42.782 16.3177 43.16C16.0221 43.5355 15.4703 43.6043 15.0959 43.3097L8.32651 38.0253C8.19348 37.9247 8.08262 37.8216 7.97916 37.716C7.46429 37.1785 7.18347 36.5158 7.13914 35.8359C7.10958 35.2739 7.24999 34.7069 7.55053 34.1964C7.35099 33.9337 7.1687 33.6638 7.00611 33.3815C6.73267 32.8906 6.51342 32.3629 6.34343 31.7861L3.72725 22.7513C3.68291 22.5991 3.57945 22.4666 3.43164 22.3684C3.26905 22.2579 3.0498 22.1917 2.79853 22.1917C2.5916 22.1917 2.42408 22.2088 2.29106 22.253C2.17281 22.2923 2.06195 22.3586 1.9511 22.4616C1.8698 22.5402 1.81068 22.6212 1.77373 22.7022C1.74663 22.7783 1.73924 22.8593 1.74663 22.9452C1.8427 23.9736 1.91661 25.0731 1.99052 26.2415C2.27135 30.6962 2.61624 36.1842 4.56973 39.2009C5.68812 40.9214 7.08986 41.9596 8.58519 43.0617C9.5065 43.7415 10.4549 44.4459 11.4206 45.3492C13.012 46.8488 13.9555 48.4614 14.4926 50.1549C15.0148 51.8141 15.1479 53.5396 15.1331 55.3141V55.3239C15.1331 55.5767 15.2587 55.7927 15.4509 55.9523C15.68 56.1461 15.9953 56.2566 16.3352 56.2615H16.35V56.2591L25.0879 56.2596ZM23.4251 41.6338C23.1886 41.4301 22.9398 41.2166 22.6072 40.9245C22.5776 40.8975 22.5481 40.8754 22.5111 40.8533L12.8767 33.3303C12.1771 32.7854 11.2927 32.5351 10.4305 32.5743C9.87131 32.5989 9.32443 32.7412 8.83171 33.0014C8.72085 32.8468 8.61739 32.6872 8.52131 32.5228C8.30699 32.1448 8.13947 31.7423 8.01383 31.3078L5.40012 22.2781C5.23753 21.7184 4.88525 21.257 4.41227 20.9355C3.95653 20.6287 3.39485 20.452 2.7987 20.452C2.42425 20.452 2.07693 20.4962 1.73694 20.6091C1.37481 20.7269 1.0595 20.9159 0.756478 21.1981C0.475645 21.4583 0.278568 21.7479 0.15293 22.0645C0.0199017 22.391 -0.0244388 22.7419 0.0125108 23.1101C0.101192 24.0379 0.167707 25.1596 0.249003 26.3525C0.544619 31.0086 0.904308 36.747 3.09921 40.1438C4.38762 42.1294 5.91246 43.2584 7.54085 44.4587C8.41783 45.1066 9.32439 45.7767 10.2137 46.6161C11.5686 47.8875 12.3644 49.2497 12.8201 50.6807C13.2832 52.146 13.3941 53.6972 13.3793 55.3024V55.3269C13.3793 56.1295 13.7537 56.8094 14.3302 57.288C14.8598 57.7298 15.5742 57.99 16.3108 57.9973H16.3403V57.9998H25.9602C26.4455 57.9998 26.8372 57.6096 26.8372 57.1285L26.8421 47.6149C26.8421 44.5518 25.3762 43.3028 23.4251 41.6338Z"
                                        fill="#F7A71E"></path>
                                </svg>
