<?xml version="1.0" encoding="UTF-8" standalone="no"?>
<svg width="28" height="29" viewBox="0 0 28 29" fill="none" xmlns="http://www.w3.org/2000/svg"
                            class="flex-grow-0 flex-shrink-0 w-7 h-[27.89px]" preserveAspectRatio="xMidYMid meet">
                            <path
                                d="M20.4641 19.8205C23.0358 19.8205 25.1288 17.7433 25.1288 15.19C25.1288 12.7453 23.2099 10.7372 20.7879 10.5718C20.192 9.23391 18.8594 8.34666 17.343 8.34666C17.1925 8.34666 17.0464 8.35804 16.9073 8.37466C15.929 6.48379 13.9524 5.25879 11.771 5.25879C8.64115 5.25879 6.0844 7.73941 5.9934 10.8229C4.1454 11.4625 2.87052 13.1933 2.87052 15.1892C2.87052 17.7424 4.96352 19.8197 7.53515 19.8197L20.4641 19.8205ZM4.62052 15.19C4.62052 13.7883 5.63815 12.5965 7.0399 12.3559L7.84315 12.2185L7.76265 11.4074C7.74865 11.2718 7.74165 11.1344 7.74165 10.9935C7.74165 8.79641 9.5494 7.00879 11.771 7.00879C13.4781 7.00879 15.0041 8.08241 15.5703 9.67929L15.8564 10.4895L16.6728 10.2165C16.9055 10.1387 17.1435 10.0958 17.3439 10.0958C18.2845 10.0958 19.093 10.7302 19.31 11.6384L19.471 12.3104H20.465C22.0724 12.3104 23.3796 13.6028 23.3796 15.19C23.3796 16.7782 22.0724 18.0705 20.465 18.0705H7.53515C5.92777 18.0705 4.62052 16.779 4.62052 15.19Z"
                                fill="black"></path>
                            <path
                                d="M11.724 15.6497L12.9604 16.8905L15.5399 14.3206V16.3576H17.2899V11.3972H15.5399V13.4342L12.9595 10.8652L11.7249 12.106L12.6261 13.002H8.64575V14.752H12.6261L11.724 15.6497Z"
                                fill="black"></path>
                            <path
                                d="M14 28.1777C21.7192 28.1777 28 21.9224 28 14.2329C28 6.54336 21.7192 0.287109 14 0.287109C6.28075 0.287109 0 6.54336 0 14.2329C0 21.9224 6.28075 28.1777 14 28.1777ZM14 2.03711C20.755 2.03711 26.25 7.50761 26.25 14.2329C26.25 20.9581 20.755 26.4277 14 26.4277C7.245 26.4277 1.75 20.9572 1.75 14.2329C1.75 7.50848 7.245 2.03711 14 2.03711Z"
                                fill="black"></path>
                        </svg>
