<?xml version="1.0" encoding="UTF-8" standalone="no"?>
<svg width="24" height="37" viewBox="0 0 24 37" fill="none"
                                    xmlns="http://www.w3.org/2000/svg" class="absolute left-[-0.5px] top-[0.5px]"
                                    preserveAspectRatio="xMidYMid meet">
                                    <path
                                        d="M11.3265 31.6265C10.295 29.8716 8.80187 27.967 7.25249 25.989C3.76951 21.5442 0 16.7355 0 11.8265C0 8.57392 1.34382 5.62636 3.51497 3.49453C5.68611 1.3627 8.68618 0.0429688 12 0.0429688C15.3123 0.0429688 18.314 1.36255 20.485 3.49453C22.656 5.62651 24 8.57246 24 11.8265C24 16.7367 20.2321 21.5438 16.7491 25.989C15.1995 27.9669 13.7064 29.8716 12.675 31.6265C12.4617 31.9916 11.9864 32.1172 11.6146 31.9078C11.4912 31.8375 11.3937 31.7402 11.3282 31.6265H11.3265ZM17.529 29.3045C17.1435 29.1175 16.9851 28.6597 17.1755 28.2812C17.366 27.9026 17.8322 27.7471 18.2177 27.9341C19.0572 28.3395 19.7428 28.8333 20.2212 29.3883C20.7347 29.9853 21.0181 30.6526 21.0181 31.3647C21.0181 32.4539 20.3629 33.4294 19.2446 34.2044C18.2207 34.9136 16.7779 35.4656 15.0988 35.7724C14.6768 35.8472 14.2715 35.5734 14.1938 35.1589C14.1176 34.7445 14.3964 34.3465 14.8185 34.2702C16.2705 34.0039 17.5 33.5401 18.3487 32.9536C19.048 32.4689 19.4579 31.9198 19.4579 31.3648C19.4579 31.0296 19.3071 30.6945 19.0328 30.3758C18.6931 29.9824 18.1781 29.6173 17.529 29.3031L17.529 29.3045ZM12.2115 34.5169C12.6412 34.5154 12.9901 34.855 12.9916 35.277C12.9931 35.6989 12.6473 36.0415 12.2176 36.043H11.7803C11.3507 36.0415 11.0048 35.6974 11.0063 35.277C11.0078 34.855 11.3583 34.5154 11.7864 34.5169H12.2115ZM9.18107 34.27C9.6031 34.3448 9.88346 34.7443 9.80576 35.1587C9.72958 35.5732 9.32277 35.8485 8.90074 35.7722C7.22172 35.4655 5.77734 34.9134 4.7534 34.2042C3.63506 33.4292 2.97838 32.4537 2.97838 31.3645C2.97838 30.6509 3.26177 29.9836 3.77524 29.3881C4.25367 28.8331 4.93929 28.3393 5.77879 27.9339C6.16426 27.7469 6.63049 27.9025 6.82095 28.281C7.0114 28.6595 6.85294 29.1173 6.46747 29.3044C5.8184 29.6185 5.3019 29.9821 4.96213 30.3771C4.68788 30.6943 4.53706 31.0294 4.53706 31.366C4.53706 31.9196 4.94692 32.4702 5.64627 32.9549C6.49493 33.5429 7.72447 34.0067 9.17801 34.2715L9.18107 34.27ZM11.9998 6.46169C13.5081 6.46169 14.8748 7.06313 15.8636 8.03413L15.9048 8.07752C16.8692 9.0455 17.4649 10.3696 17.4649 11.8283C17.4649 13.3095 16.8525 14.6515 15.8636 15.6225C14.8748 16.5935 13.5081 17.1949 11.9998 17.1949C10.4944 17.1949 9.12774 16.5935 8.13894 15.6225C7.14705 14.6515 6.53456 13.3095 6.53456 11.8283C6.53456 10.3501 7.14705 9.00811 8.13589 8.03715C9.12473 7.06316 10.4914 6.46169 11.9998 6.46169ZM14.7605 9.11732C14.0551 8.42461 13.0785 7.99522 11.9998 7.99522C10.9211 7.99522 9.94443 8.42461 9.23899 9.11732C8.53203 9.81003 8.09628 10.769 8.09628 11.8283C8.09628 12.8875 8.53356 13.8466 9.23899 14.5393C9.94443 15.2335 10.9211 15.6614 11.9998 15.6614C13.0785 15.6614 14.0551 15.232 14.7605 14.5393C15.466 13.8466 15.9033 12.8875 15.9033 11.8283C15.9033 10.7855 15.4812 9.83994 14.7956 9.15022L14.759 9.1173L14.7605 9.11732ZM8.48316 25.057C9.75841 26.6848 10.9956 28.2632 11.9996 29.7891C13.0037 28.263 14.2409 26.6831 15.5177 25.0555C18.8422 20.814 22.4394 16.2237 22.4394 11.8283C22.4394 8.99759 21.2708 6.43472 19.383 4.57943C17.4953 2.72574 14.8839 1.57821 12.0011 1.57821C9.11823 1.57821 6.50844 2.72574 4.61907 4.57943C2.73133 6.43312 1.56271 8.99744 1.56271 11.8283C1.56271 16.2252 5.15998 20.814 8.48445 25.057H8.48316Z"
                                        fill="white"></path>
                                </svg>
