<?xml version="1.0" encoding="UTF-8" standalone="no"?>
<svg width="16" height="14" viewBox="0 0 16 14" fill="none"
                                    xmlns="http://www.w3.org/2000/svg" class="flex-grow-0 flex-shrink-0"
                                    preserveAspectRatio="none">
                                    <path fill-rule="evenodd" clip-rule="evenodd"
                                        d="M11.7373 1.14642C10.4056 1.14642 8.90307 2.58525 8.43987 3.13819C8.22564 3.39874 7.77691 3.39874 7.56268 3.13819C7.09658 2.58525 5.59697 1.14642 4.26237 1.14642C0.354101 1.14642 0.432266 4.98811 2.80618 7.35912L7.99983 12.3675L13.1877 7.36781C15.4082 5.14733 15.909 1.14642 11.7373 1.14642ZM13.9664 8.21025L8.39355 13.5747C8.18221 13.7889 7.82034 13.7889 7.60611 13.5747L2.02742 8.19288C-1.19184 5.39051 -0.670733 0 4.26237 0C5.82857 0 7.29344 1.23327 7.99983 1.93097C8.70621 1.23327 10.174 0 11.7373 0C16.9599 0 16.983 5.20813 13.9664 8.21025Z"
                                        fill="white"></path>
                                </svg>
