<?xml version="1.0" encoding="UTF-8" standalone="no"?>
<svg width="50" height="25" viewBox="0 0 50 25" fill="none"
                                xmlns="http://www.w3.org/2000/svg" class="flex-grow-0 flex-shrink-0"
                                preserveAspectRatio="none">
                                <path
                                    d="M28.0195 10.3875L49.1381 18.6842C49.4809 18.8042 49.4295 19.2842 49.0866 19.3527L21.54 24.9924C21.4714 25.0096 21.4028 24.9924 21.3514 24.9753L0.232854 16.6786C-0.10998 16.5586 -0.0585549 16.0786 0.284279 16.0101L27.831 10.3704C27.8995 10.3532 27.9681 10.3704 28.0195 10.3875Z"
                                    fill="#131313"></path>
                                <path
                                    d="M33.7111 14.1572L31.0027 13.3516L23.7175 14.1572L19.912 15.4772L19.1921 17.4656L29.8885 15.4772L33.7111 14.1572Z"
                                    fill="black"></path>
                                <path
                                    d="M39.574 18.7846C39.5397 18.7846 39.5054 18.7846 39.4711 18.7846C39.7625 18.6131 39.574 18.4417 39.0254 18.4417C38.7855 18.4417 38.5112 18.476 38.2541 18.5103C38.1512 18.4074 37.8598 18.3389 37.397 18.3389C36.7627 18.3389 35.9742 18.4589 35.3914 18.6474C35.2543 18.6131 35.0486 18.596 34.7915 18.596C33.9344 18.596 32.8202 18.8188 32.3059 19.1274C32.0831 19.2474 31.9802 19.3674 32.0659 19.4702H39.2654C39.5911 19.4017 39.8654 19.316 40.0711 19.196C40.4482 18.956 40.2425 18.7846 39.574 18.7846Z"
                                    fill="black"></path>
                                <path
                                    d="M37.2761 16.6615C37.2418 16.6615 37.2075 16.6615 37.1732 16.6787C37.1218 16.1301 36.6761 15.7016 36.1276 15.7016C35.8876 15.7016 35.6648 15.7873 35.4934 15.9073C35.1848 15.5987 34.7905 15.4102 34.3277 15.4102C33.6935 15.4102 33.1449 15.7873 32.8707 16.3187C32.665 16.2158 32.4079 16.1473 32.1679 16.1473C31.3108 16.1473 30.6423 16.8329 30.6423 17.6729C30.6423 18.05 30.7623 18.3757 31.0022 18.65H38.2017C38.3732 18.4443 38.5103 18.17 38.5103 17.8786C38.476 17.1929 37.9446 16.6615 37.2761 16.6615Z"
                                    fill="#999999"></path>
                                <path
                                    d="M19.2254 11.8448C17.0998 11.8448 15.2143 10.7477 14.1343 9.08496V9.17067L19.2254 17.4845V11.8448Z"
                                    fill="#FBBD00"></path>
                                <path
                                    d="M19.2088 0C15.9347 0 13.2606 2.65699 13.2606 5.94823C13.2606 7.11388 13.6206 8.2281 14.2034 9.15377V9.22233C15.2662 10.8508 17.1003 11.9307 19.1916 11.9307V17.4847L24.197 9.30804V9.18805C24.7969 8.24525 25.1569 7.14817 25.1569 5.94823C25.1569 2.67413 22.5 0 19.2088 0ZM17.0318 8.12525C16.4832 7.57671 16.1404 6.80533 16.1404 5.96537C16.1404 4.28547 17.5117 2.91412 19.1916 2.91412C20.8715 2.91412 22.2428 4.28547 22.2428 5.96537C22.2428 7.64528 20.8715 9.01663 19.1916 9.01663C18.3517 9.01663 17.5803 8.67379 17.0318 8.12525Z"
                                    fill="#F7A81E"></path>
                            </svg>
