<?xml version="1.0" encoding="UTF-8" standalone="no"?>
<svg width="24" height="26" viewBox="0 0 24 26" fill="none"
                                    xmlns="http://www.w3.org/2000/svg" class="absolute left-[-0.5px] top-[108.5px]"
                                    preserveAspectRatio="xMidYMid meet">
                                    <path
                                        d="M4.01836 7.38737L2.06646 8.65795C1.89329 8.77156 1.74261 8.9031 1.6164 9.0506L4.01833 11.0616L4.01836 7.38737ZM12 8.9559C12.2906 8.9559 12.5538 8.83532 12.7436 8.64198C12.9334 8.44866 13.0518 8.18059 13.0518 7.88461C13.0518 7.58863 12.9334 7.32058 12.7436 7.12723C12.5538 6.93291 12.2906 6.81332 12 6.81332C11.7094 6.81332 11.4462 6.9329 11.2564 7.12723C11.0666 7.32056 10.9482 7.58863 10.9482 7.88461C10.9482 8.18059 11.0666 8.44863 11.2564 8.64198C11.4462 8.83531 11.7094 8.9559 12 8.9559ZM13.5566 9.4701C13.1574 9.8767 12.6076 10.1278 12 10.1278C11.3924 10.1278 10.8416 9.87668 10.4434 9.4701C10.0452 9.06452 9.79865 8.50346 9.79865 7.88463C9.79865 7.26581 10.0452 6.70474 10.4434 6.29917C10.8416 5.89359 11.3924 5.64246 12 5.64246C12.453 5.64246 12.8737 5.78198 13.224 6.02015C13.3277 5.91651 13.4705 5.85274 13.6271 5.85274C13.945 5.85274 14.2024 6.11481 14.2024 6.4387V7.88567C14.2024 8.07999 14.2816 8.25736 14.4078 8.38691L14.4059 8.3889C14.5331 8.51646 14.7072 8.59618 14.899 8.59618C15.0898 8.59618 15.2639 8.51646 15.3911 8.38691C15.5183 8.25736 15.5966 8.08098 15.5966 7.88567C15.5966 6.8742 15.1935 5.95738 14.5429 5.29476C13.8922 4.63205 12.9931 4.2215 11.9991 4.2215C11.0061 4.2215 10.1059 4.63208 9.45536 5.29476C8.80472 5.95746 8.40164 6.87326 8.40164 7.88567C8.40164 8.89713 8.80475 9.81395 9.45536 10.4766C10.106 11.1393 11.0051 11.5498 11.9991 11.5498C12.9922 11.5498 13.8923 11.1403 14.5429 10.4766C14.7542 10.2613 14.9381 10.0202 15.0917 9.75808C15.0281 9.76506 14.9636 9.76805 14.899 9.76805C14.4421 9.76805 14.0224 9.59665 13.6985 9.31365C13.6535 9.36845 13.6065 9.42227 13.5566 9.47309L13.5566 9.4701ZM15.3559 11.3027C14.4968 12.1777 13.3101 12.7188 11.9991 12.7188C10.689 12.7188 9.50127 12.1777 8.64234 11.3027C7.78331 10.4278 7.25107 9.21897 7.25107 7.88372C7.25107 6.54936 7.78233 5.33957 8.64234 4.46471C9.50137 3.58976 10.6882 3.04864 11.9991 3.04864C13.3092 3.04864 14.4969 3.58976 15.3559 4.46471C16.2149 5.33967 16.7471 6.54846 16.7471 7.88372C16.7471 9.21808 16.2159 10.4279 15.3559 11.3027ZM5.16785 12.0242L9.84458 15.9407L10.009 15.8031C10.594 15.3129 11.2965 15.0687 11.999 15.0687C12.7015 15.0687 13.4049 15.3139 13.989 15.8031L14.1534 15.9407L18.8301 12.0242V3.09938C18.8301 2.58018 18.6217 2.10983 18.2871 1.76801C17.9515 1.42621 17.4897 1.21493 16.98 1.21493H7.01713C6.50838 1.21493 6.04559 1.42719 5.70999 1.76801C5.37441 2.1098 5.16698 2.58018 5.16698 3.09938V12.0242H5.16785ZM19.9818 11.0606L22.3837 9.04957C22.2575 8.90209 22.1068 8.77053 21.9336 8.65693L19.9817 7.38635L19.9818 11.0606ZM19.9818 6.0012L22.549 7.67238C23.0109 7.97334 23.3738 8.36697 23.6204 8.82536C23.6321 8.84728 23.6429 8.86921 23.6546 8.89013L23.6556 8.89213L23.6624 8.90508C23.8836 9.34556 24 9.83884 24 10.363V21.8471C24 22.727 23.6478 23.5262 23.0793 24.1052C22.5109 24.6842 21.7272 25.043 20.8623 25.043H3.13771C2.27379 25.043 1.48913 24.6842 0.920669 24.1052C0.352232 23.5263 0 22.728 0 21.8471V10.363C0 9.83981 0.116427 9.34553 0.337555 8.90508L0.344404 8.89213L0.345382 8.89013C0.357123 8.86821 0.367885 8.84628 0.379626 8.82536C0.627158 8.36595 0.988187 7.97232 1.45095 7.67238L4.01824 6.0012V3.09931C4.01824 2.25723 4.35482 1.49389 4.89879 0.939838C5.4418 0.386757 6.1932 0.0429688 7.01894 0.0429688H16.9818C17.8085 0.0429688 18.558 0.385788 19.1019 0.939838C19.645 1.49292 19.9825 2.25726 19.9825 3.09931V6.0012H19.9818ZM4.26792 12.7805C4.24053 12.7616 4.21509 12.7397 4.19161 12.7168L1.1587 10.1766C1.15381 10.2374 1.15087 10.3002 1.15087 10.363V21.8471C1.15087 22.2526 1.26926 22.6313 1.47277 22.9492L8.94171 16.6959L4.26699 12.7815L4.26792 12.7805ZM19.8077 12.7168C19.7842 12.7407 19.7588 12.7616 19.7314 12.7805L15.0566 16.695L22.5256 22.9482C22.7291 22.6304 22.8475 22.2527 22.8475 21.8461V10.362C22.8475 10.2992 22.8445 10.2374 22.8397 10.1756L19.8067 12.7158L19.8077 12.7168ZM10.2165 17.1394L10.1999 17.1533L2.36778 23.7115C2.60455 23.8131 2.8648 23.8699 3.13679 23.8699H20.8614C21.1343 23.8699 21.3946 23.8131 21.6304 23.7115L13.7983 17.1533L13.7816 17.1394L13.2621 16.7039C12.8913 16.394 12.4461 16.2395 11.999 16.2395C11.5529 16.2395 11.1067 16.395 10.7359 16.7039L10.2165 17.1394Z"
                                        fill="white"></path>
                                </svg>
