<?xml version="1.0" encoding="UTF-8" standalone="no"?>
<svg width="40" height="30" viewBox="0 0 40 30" fill="none"
                                xmlns="http://www.w3.org/2000/svg">
                                <path d="M38.2353 28.0586H40V29.2155H0V28.0586H1.60784H38.2353Z" fill="#F7A81E" />
                                <path
                                    d="M38.2355 7.56824V28.0585H1.60808V8.17608L7.80416 5.39176L13.6669 2.78391L20.7257 8.2153L26.2551 5.31333L31.8238 2.35254L38.2355 7.56824Z"
                                    fill="#131313" />
                                <path d="M26.1962 0V4.68629L22.9805 6.39217V0H26.1962Z" fill="#F7A81E" />
                                <path d="M7.70584 0V4.80393L4.49016 6.25492V0H7.70584Z" fill="#F7A81E" />
                                <path d="M10.4314 13.2363H4.37256V16.5893H10.4314V13.2363Z" fill="white" />
                                <path d="M10.4314 19.3936H4.37256V28.0014H10.4314V19.3936Z" fill="white" />
                                <path d="M17.6081 13.2363H11.5493V16.5893H17.6081V13.2363Z" fill="white" />
                                <path d="M17.6081 19.3936H11.5493V28.0014H17.6081V19.3936Z" fill="white" />
                                <path d="M27.863 13.2363H21.8042V16.5893H27.863V13.2363Z" fill="white" />
                                <path d="M27.863 19.3936H21.8042V28.0014H27.863V19.3936Z" fill="white" />
                                <path d="M35.0194 13.2363H28.9606V16.5893H35.0194V13.2363Z" fill="white" />
                                <path d="M35.0194 19.3936H28.9606V28.0014H35.0194V19.3936Z" fill="white" />
                            </svg>
