<?xml version="1.0" encoding="UTF-8" standalone="no"?>
<svg width="25" height="25" viewBox="0 0 25 25" fill="none"
                                    xmlns="http://www.w3.org/2000/svg" class="absolute left-[-1px] top-[60px]"
                                    preserveAspectRatio="xMidYMid meet">
                                    <path
                                        d="M3.67963 2.69668L4.62623 1.75008C5.01675 1.35955 5.64992 1.35955 6.04044 1.75008L9.95956 5.6692C10.3501 6.05972 10.3501 6.69289 9.95956 7.08341L8.36233 8.68064C8.14595 8.89702 8.09231 9.22758 8.22916 9.50128C9.81137 12.6657 12.3773 15.2316 15.5417 16.8138C15.8154 16.9507 16.146 16.897 16.3623 16.6806L17.9596 15.0834C18.3501 14.6929 18.9832 14.6929 19.3738 15.0834L23.2929 19.0025C23.6834 19.3931 23.6834 20.0262 23.2929 20.4167L22.3463 21.3633C20.2349 23.4747 16.8924 23.7122 14.5037 21.9207L10.6286 19.0144C8.88504 17.7068 7.33622 16.1579 6.02857 14.4144L3.12226 10.5393C1.33072 8.1506 1.56827 4.80803 3.67963 2.69668Z"
                                        stroke="white" stroke-width="2"></path>
                                </svg>
