<?xml version="1.0" encoding="UTF-8" standalone="no"?>
<svg width="24" height="25" viewBox="0 0 24 25" fill="none"
                                    xmlns="http://www.w3.org/2000/svg" class="absolute left-[-0.5px] top-[157.5px]"
                                    preserveAspectRatio="xMidYMid meet">
                                    <path
                                        d="M12 0.0429688C5.382 0.0429688 0 5.42497 0 12.043C0 18.661 5.382 24.043 12 24.043C18.618 24.043 24 18.661 24 12.043C24 5.42497 18.618 0.0429688 12 0.0429688ZM21.2235 7.24147H16.566C16.3605 5.98972 16.0785 4.84447 15.7252 3.85672C15.4845 3.18172 15.21 2.58472 14.9017 2.05972C17.6512 2.85547 19.926 4.74847 21.2235 7.24147ZM15.342 12.043C15.342 13.1665 15.2632 14.227 15.1515 15.2432H9.13725C9.0255 14.227 8.94675 13.1665 8.94675 12.043C8.94675 10.9187 9.02475 9.85747 9.13725 8.84122H15.1515C15.2647 9.85747 15.342 10.9187 15.342 12.043ZM11.1967 2.23972C11.5658 1.80247 11.8605 1.65997 12.1042 1.64722C12.141 1.64722 12.1763 1.65247 12.2123 1.65322C12.45 1.67722 12.741 1.82347 13.092 2.23897C13.4782 2.69572 13.8802 3.44047 14.22 4.39372C14.5102 5.20522 14.7518 6.17272 14.9393 7.24072H9.348C9.5355 6.17272 9.7785 5.20522 10.068 4.39372C10.4093 3.44122 10.8112 2.69722 11.1967 2.23972ZM9.43725 1.97272C9.1065 2.51797 8.817 3.14497 8.562 3.85747C8.2095 4.84447 7.92675 5.99047 7.72125 7.24222H2.775C4.125 4.64722 6.5355 2.70622 9.43725 1.97272ZM1.59975 12.043C1.59975 10.9247 1.77975 9.84997 2.1045 8.84122H7.5075C7.40325 9.85972 7.3455 10.9322 7.3455 12.043C7.3455 13.1537 7.40325 14.2232 7.5075 15.2432H2.1045C1.77975 14.2345 1.59975 13.1612 1.59975 12.043ZM2.7765 16.8445H7.722C7.9275 18.0977 8.2095 19.2452 8.56275 20.2337C8.817 20.9455 9.10725 21.5702 9.438 22.1132C6.537 21.3797 4.12725 19.438 2.7765 16.8445ZM13.092 21.8462C12.7432 22.2587 12.4552 22.405 12.219 22.4305C12.18 22.4312 12.1425 22.4365 12.105 22.4365C11.8612 22.4237 11.5658 22.2827 11.1975 21.8455C10.8113 21.3887 10.41 20.6485 10.0695 19.6952C9.78 18.8837 9.5355 17.914 9.348 16.8437H14.9415C14.754 17.914 14.511 18.8837 14.2208 19.6952C13.8802 20.6492 13.4782 21.3887 13.092 21.8462ZM14.9032 22.0262C15.2115 21.5027 15.4837 20.908 15.7252 20.2337C16.0785 19.2452 16.362 18.0977 16.5675 16.8445H21.222C19.9245 19.336 17.652 21.2305 14.9032 22.0262ZM16.7797 15.2432C16.8847 14.224 16.9425 13.1545 16.9425 12.043C16.9425 10.9315 16.8847 9.85972 16.7797 8.84122H21.8932C22.2188 9.84997 22.398 10.9247 22.398 12.043C22.398 13.1612 22.2188 14.2345 21.8932 15.2432H16.7797Z"
                                        fill="white"></path>
                                </svg>
