<svg width="20" height="23" viewBox="0 0 20 23" fill="none" xmlns="http://www.w3.org/2000/svg">
<path d="M18.5162 21.2139H1.56053C1.25225 21.2139 0.982498 21.4836 0.982498 21.7919C0.982498 22.1002 1.25225 22.3699 1.56053 22.3699H18.5162C18.8245 22.3699 19.0943 22.1002 19.0943 21.7919C19.0943 21.4836 18.8245 21.2139 18.5162 21.2139Z" fill="black"/>
<path d="M11.1944 5.41437C11.5027 5.41437 11.7725 5.14462 11.7725 4.83634C11.7725 4.52805 11.5027 4.2583 11.1944 4.2583H8.88231C8.57403 4.2583 8.30428 4.52805 8.30428 4.83634C8.30428 5.14462 8.57403 5.41437 8.88231 5.41437H11.1944Z" fill="black"/>
<path d="M2.13867 11.0016C2.13867 11.3099 2.40842 11.5797 2.71671 11.5797H17.3603C17.6685 11.5797 17.9383 11.3099 17.9383 11.0016C17.9383 10.6933 17.6685 10.4236 17.3603 10.4236H2.71671C2.40842 10.4236 2.13867 10.6933 2.13867 11.0016Z" fill="black"/>
<path d="M2.33132 14.6629H3.87274V13.5068H2.33132C2.02303 13.5068 1.75328 13.7766 1.75328 14.0849C1.75328 14.3932 2.02303 14.6629 2.33132 14.6629Z" fill="black"/>
<path d="M2.33132 17.7454H3.87274V16.5894H2.33132C2.02303 16.5894 1.75328 16.8591 1.75328 17.1674C1.75328 17.4757 2.02303 17.7454 2.33132 17.7454Z" fill="black"/>
<path d="M2.33132 16.2042H3.87274V15.0481H2.33132C2.02303 15.0481 1.75328 15.3178 1.75328 15.6261C1.75328 15.9344 2.02303 16.2042 2.33132 16.2042Z" fill="black"/>
<path d="M1.75328 12.5434C1.75328 12.8517 2.02303 13.1214 2.33132 13.1214H17.7456C18.0539 13.1214 18.3236 12.8517 18.3236 12.5434C18.3236 12.2351 18.0539 11.9653 17.7456 11.9653H2.33132C2.02303 11.9653 1.75328 12.2351 1.75328 12.5434Z" fill="black"/>
<path d="M11.58 13.5068H8.88254V14.6629H11.58V13.5068Z" fill="black"/>
<path d="M11.58 15.0481H8.88254V16.2042H11.58V15.0481Z" fill="black"/>
<path d="M11.58 16.5894H8.88254V17.7454H11.58V16.5894Z" fill="black"/>
<path d="M17.7457 16.5894H15.8189V17.7454H17.7457C18.054 17.7454 18.3237 17.4757 18.3237 17.1674C18.3237 16.8591 18.054 16.5894 17.7457 16.5894Z" fill="black"/>
<path d="M17.7457 15.0481H15.8189V16.2042H17.7457C18.054 16.2042 18.3237 15.9344 18.3237 15.6261C18.3237 15.3178 18.054 15.0481 17.7457 15.0481Z" fill="black"/>
<path d="M17.7457 13.5068H15.8189V14.6629H17.7457C18.054 14.6629 18.3237 14.3932 18.3237 14.0849C18.3237 13.7766 18.054 13.5068 17.7457 13.5068Z" fill="black"/>
<path d="M2.33132 19.2872H11.5799V18.1311H2.33132C2.02303 18.1311 1.75328 18.4009 1.75328 18.7091C1.75328 19.0174 2.02303 19.2872 2.33132 19.2872Z" fill="black"/>
<path d="M17.7457 18.1311H15.8189V19.2872H17.7457C18.054 19.2872 18.3237 19.0174 18.3237 18.7091C18.3237 18.4009 18.054 18.1311 17.7457 18.1311Z" fill="black"/>
<path d="M2.33132 20.8287H11.5799V19.6726H2.33132C2.02303 19.6726 1.75328 19.9424 1.75328 20.2506C1.75328 20.5589 2.02303 20.8287 2.33132 20.8287Z" fill="black"/>
<path d="M17.7457 19.6726H15.8189V20.8287H17.7457C18.054 20.8287 18.3237 20.5589 18.3237 20.2506C18.3237 19.9424 18.054 19.6726 17.7457 19.6726Z" fill="black"/>
<path d="M19.8266 10.5395L14.6628 5.37574V1.17534H13.1214V3.83431L10.8478 1.5607L11.4258 0.982662C11.657 0.751447 11.657 0.404626 11.4258 0.173411C11.1946 -0.0578036 10.8478 -0.0578036 10.6166 0.173411L10.0385 0.751447L9.4605 0.173411C9.22929 -0.0578036 8.88247 -0.0578036 8.65125 0.173411C8.42004 0.404626 8.42004 0.751447 8.65125 0.982662L9.22929 1.5607L0.17341 10.5781C-0.0578035 10.8093 -0.0578035 11.1561 0.17341 11.3873C0.289017 11.5029 0.44316 11.5415 0.597303 11.5415C0.751445 11.5415 0.905588 11.5029 1.02119 11.3873L10.0385 2.36995L19.0173 11.3488C19.2486 11.58 19.5954 11.58 19.8266 11.3488C20.0578 11.1561 20.0578 10.7707 19.8266 10.5395Z" fill="black"/>
<path d="M3.68025 9.4606C3.68025 9.76889 3.95 10.0386 4.25829 10.0386H15.819C16.1273 10.0386 16.397 9.76889 16.397 9.4606C16.397 9.15232 16.1273 8.88257 15.819 8.88257H11.2332C10.9635 9.22939 10.5396 9.4606 10.0386 9.4606C9.53767 9.4606 9.11378 9.22939 8.84403 8.88257H4.25829C3.95 8.88257 3.68025 9.15232 3.68025 9.4606Z" fill="black"/>
<path d="M6.76305 6.3776C6.76305 6.68588 7.0328 6.95563 7.34108 6.95563H8.84397C9.11372 6.60881 9.53761 6.3776 10.0386 6.3776C10.5395 6.3776 10.9634 6.60881 11.2332 6.95563H12.7361C13.0444 6.95563 13.3141 6.68588 13.3141 6.3776C13.3141 6.06931 13.0444 5.79956 12.7361 5.79956H7.34108C7.0328 5.79956 6.76305 6.06931 6.76305 6.3776Z" fill="black"/>
<path d="M14.2776 8.49689C14.5859 8.49689 14.8556 8.22714 14.8556 7.91886C14.8556 7.61057 14.5859 7.34082 14.2776 7.34082H11.4645C11.5416 7.5335 11.5801 7.72618 11.5801 7.91886C11.5801 8.11154 11.5416 8.30421 11.4645 8.49689H14.2776Z" fill="black"/>
<path d="M5.22147 7.91886C5.22147 8.22714 5.49122 8.49689 5.7995 8.49689H8.6126C8.53553 8.30421 8.497 8.11154 8.497 7.91886C8.497 7.72618 8.53553 7.5335 8.6126 7.34082H5.7995C5.49122 7.34082 5.22147 7.61057 5.22147 7.91886Z" fill="black"/>
</svg>
