<?xml version="1.0" encoding="UTF-8" standalone="no"?>
<svg width="64" height="68" viewBox="0 0 64 68" fill="none" xmlns="http://www.w3.org/2000/svg"
                        class="flex-grow-0 flex-shrink-0 w-16 h-[68px]" preserveAspectRatio="none">
                        <path fill-rule="evenodd" clip-rule="evenodd"
                            d="M40.486 43.2997C41.9521 42.6158 43.3084 41.7619 44.5172 40.7613C44.7396 40.5797 44.9567 40.4792 45.2033 40.4522C46.9455 42.7356 48.3097 45.4208 49.3015 48.4963C50.4379 52.02 51.0866 56.069 51.25 60.6474C51.25 60.6783 51.2527 60.7092 51.2554 60.7401C50.2289 61.169 49.4757 62.5367 49.4757 64.1594C49.4757 66.1261 50.58 67.7179 51.9442 67.7179C53.3085 67.7179 54.4128 66.1261 54.4128 64.1594C54.4128 62.5058 53.6302 61.1149 52.5688 60.7169C52.5741 60.6628 52.5741 60.6087 52.5714 60.5546C52.3999 55.7289 51.7111 51.4441 50.505 47.7042C49.6339 44.9996 48.4974 42.5848 47.0929 40.4521L58.0659 40.4483C61.3331 40.4483 64 36.6078 64 31.8942C64 27.1844 61.3358 23.34 58.0659 23.34H45.3371C45.0369 23.34 44.7769 23.2396 44.5169 23.0232C41.2363 20.3109 36.8917 18.6611 32.1236 18.6611C27.3554 18.6611 23.0108 20.3109 19.7304 23.0232C19.4704 23.2396 19.2104 23.34 18.9102 23.34H6.17864C2.91139 23.34 0.244523 27.1805 0.244523 31.8942C0.244523 36.604 2.90872 40.4483 6.17864 40.4483H17.6799C16.187 42.6506 14.9862 45.1619 14.0776 47.9863C12.8715 51.7302 12.1827 56.015 12.0111 60.8367C12.0085 60.8908 12.0111 60.9487 12.0138 60.999C10.9524 61.3969 10.1698 62.7878 10.1698 64.4415C10.1698 66.4081 11.2741 68 12.6384 68C14.0026 68 15.1069 66.4081 15.1069 64.4415C15.1069 62.8227 14.3537 61.4549 13.3272 61.0222C13.3299 60.9913 13.3325 60.9604 13.3325 60.9295C13.496 56.3549 14.1447 52.3019 15.2811 48.7784C16.2943 45.6372 17.696 42.9056 19.4918 40.5913C19.5722 40.6338 19.6526 40.6918 19.7303 40.7575C20.9391 41.7581 22.2954 42.612 23.7615 43.2959V42.218C23.7615 39.9616 24.9515 37.9486 26.557 37.9486H37.6912C39.2967 37.9486 40.4867 39.9616 40.4867 42.218L40.486 43.2997ZM26.5565 39.8648H37.6906C38.4974 39.8648 39.1567 40.9235 39.1567 42.2178V50.5826C39.1567 51.8769 38.4974 52.9356 37.6906 52.9356L26.5565 52.9394C25.7497 52.9394 25.0904 51.8808 25.0904 50.5865V42.2217C25.0877 40.9235 25.747 39.8648 26.5565 39.8648ZM32.1234 42.2139C32.9248 42.2139 33.6512 42.6814 34.1765 43.4387C34.7018 44.196 35.0262 45.2431 35.0262 46.3983C35.0262 47.5536 34.7019 48.6007 34.1765 49.3579C33.6512 50.1152 32.9248 50.5827 32.1234 50.5827C31.322 50.5827 30.5956 50.1152 30.0703 49.3579C29.545 48.6006 29.2206 47.5536 29.2206 46.3983C29.2206 45.2431 29.545 44.196 30.0703 43.4387C30.5956 42.6853 31.322 42.2139 32.1234 42.2139ZM33.2384 44.7949C33.5225 45.2044 33.6994 45.7724 33.6994 46.4022C33.6994 47.0281 33.5225 47.596 33.2384 48.0095C32.9543 48.419 32.5603 48.674 32.1234 48.674C31.6892 48.674 31.2926 48.419 31.0084 48.0095C30.7243 47.5999 30.5474 47.032 30.5474 46.4022C30.5474 45.7763 30.7243 45.2083 31.0084 44.7949C31.2925 44.3853 31.6892 44.1303 32.1234 44.1303C32.5576 44.1303 32.9516 44.3853 33.2384 44.7949ZM0.66471 8.09436C0.297509 8.09436 0 7.6655 0 7.13617C0 6.60685 0.297509 6.17798 0.66471 6.17798L15.8026 6.18185C16.1698 6.18185 16.4673 6.61071 16.4673 7.14004C16.4673 7.66936 16.1698 8.09823 15.8026 8.09823H9.76391V15.6014C10.6779 16.3355 11.2997 17.7458 11.2997 19.357V21.4279H6.17774C5.83466 21.4279 5.49694 21.4627 5.16456 21.5322V19.357C5.16456 17.7961 5.74619 16.4245 6.61461 15.671H6.52616V8.09434L0.66471 8.09436ZM47.7842 8.09436C47.417 8.09436 47.1194 7.6655 47.1194 7.13617C47.1194 6.60685 47.417 6.17798 47.7842 6.17798H62.9248C63.292 6.17798 63.5895 6.60685 63.5895 7.13617C63.5895 7.6655 63.292 8.09436 62.9248 8.09436H56.9719V15.6711C57.8403 16.4245 58.4219 17.796 58.4219 19.357V21.4396C58.304 21.4319 58.186 21.428 58.0681 21.428H52.2867V19.357C52.2867 17.7961 52.8684 16.4245 53.7368 15.671V8.09435L47.7842 8.09436ZM24.4337 6.57985C24.1791 6.95849 23.7583 6.96622 23.4983 6.59917C23.2356 6.23213 23.2303 5.62939 23.4849 5.25073C24.6025 3.60477 25.9453 2.27186 27.441 1.36387C28.883 0.482957 30.4643 0 32.1207 0C33.7825 0 35.3692 0.486825 36.8166 1.36773C38.3176 2.28342 39.663 3.6202 40.7807 5.27388C41.0353 5.65251 41.03 6.25525 40.7673 6.62232C40.5046 6.98936 40.0865 6.98164 39.8319 6.603C38.8348 5.12706 37.6394 3.93322 36.3046 3.12186C35.0235 2.34141 33.611 1.90863 32.1234 1.90863C30.6411 1.90863 29.2314 2.3375 27.9555 3.11415C26.6208 3.92552 25.4281 5.11164 24.4337 6.57985ZM29.277 14.3342C28.9634 14.6124 28.556 14.4694 28.363 14.0212C28.17 13.5692 28.2692 12.9819 28.5801 12.7038C29.1028 12.244 29.6737 11.8769 30.2821 11.6297C30.8691 11.3901 31.4883 11.2626 32.1208 11.2626C32.7587 11.2626 33.3778 11.3902 33.9648 11.6297C34.5706 11.877 35.1415 12.244 35.6695 12.7116C35.9804 12.9859 36.0769 13.577 35.8839 14.0252C35.6936 14.4734 35.2836 14.6125 34.9727 14.3343C34.5545 13.9595 34.0936 13.6659 33.6057 13.4688C33.1367 13.2756 32.6381 13.1752 32.1181 13.1752C31.6008 13.1752 31.105 13.2756 30.6359 13.465C30.1561 13.6659 29.6978 13.9594 29.277 14.3342ZM26.8835 10.4589C27.5991 9.5664 28.4246 8.85547 29.3279 8.3725C30.1936 7.90886 31.1344 7.65386 32.1234 7.65386C33.1124 7.65386 34.0559 7.90886 34.9216 8.3725C35.8249 8.85932 36.653 9.5702 37.3687 10.4666C37.6448 10.8105 38.0629 10.768 38.3041 10.37C38.5427 9.97207 38.5132 9.36936 38.2371 9.02545C37.4036 7.9861 36.4387 7.15545 35.3853 6.58751C34.3641 6.03887 33.2653 5.74137 32.1234 5.74137C30.9843 5.74137 29.8854 6.03887 28.8669 6.58365C27.8135 7.14774 26.8513 7.97848 26.0178 9.01386C25.7417 9.35773 25.7122 9.96046 25.9508 10.3584C26.1866 10.7603 26.6047 10.8028 26.8835 10.4589ZM49.9691 32.8531C49.6019 32.8531 49.3044 32.4242 49.3044 31.8949C49.3044 31.3656 49.6019 30.9367 49.9691 30.9367H52.7646C53.1318 30.9367 53.4293 31.3656 53.4293 31.8949C53.4293 32.4242 53.1318 32.8531 52.7646 32.8531H49.9691ZM6.0368 32.8531C5.6696 32.8531 5.37209 32.4242 5.37209 31.8949C5.37209 31.3656 5.6696 30.9367 6.0368 30.9367H8.83232C9.19952 30.9367 9.49703 31.3656 9.49703 31.8949C9.49703 32.4242 9.19952 32.8531 8.83232 32.8531H6.0368ZM11.4831 32.8531C11.1159 32.8531 10.8184 32.4242 10.8184 31.8949C10.8184 31.3656 11.1159 30.9367 11.4831 30.9367H14.2787C14.6459 30.9367 14.9434 31.3656 14.9434 31.8949C14.9434 32.4242 14.6459 32.8531 14.2787 32.8531H11.4831ZM28.8195 27.8845H27.624C27.2568 27.8845 26.9593 27.4556 26.9593 26.9263C26.9593 26.3969 27.2568 25.9681 27.624 25.9681H28.8195V24.979C28.8195 24.4497 29.117 24.0208 29.4842 24.0208H30.1703V22.2976C30.1703 21.7683 30.4678 21.3394 30.835 21.3394C31.2022 21.3394 31.4997 21.7683 31.4997 22.2976V24.0208H32.7514V22.2976C32.7514 21.7683 33.0489 21.3394 33.4161 21.3394C33.7833 21.3394 34.0808 21.7683 34.0808 22.2976V24.0208H34.767C35.1342 24.0208 35.4317 24.4497 35.4317 24.979V25.9681H36.6271C36.9943 25.9681 37.2918 26.3969 37.2918 26.9263C37.2918 27.4556 36.9943 27.8845 36.6271 27.8845H35.4317V29.6888H36.6271C36.9943 29.6888 37.2918 30.1176 37.2918 30.647C37.2918 31.1763 36.9943 31.6052 36.6271 31.6052H35.4317V32.5943C35.4317 33.1236 35.1342 33.5524 34.767 33.5524H34.0808V35.2757C34.0808 35.805 33.7833 36.2338 33.4161 36.2338C33.0489 36.2338 32.7514 35.805 32.7514 35.2757V33.5524H31.4997V35.2757C31.4997 35.805 31.2022 36.2338 30.835 36.2338C30.4678 36.2338 30.1703 35.805 30.1703 35.2757V33.5524H29.4842C29.117 33.5524 28.8195 33.1236 28.8195 32.5943V31.6052H27.624C27.2568 31.6052 26.9593 31.1763 26.9593 30.647C26.9593 30.1176 27.2568 29.6888 27.624 29.6888H28.8195V27.8845ZM34.0996 25.9371V31.636H30.1462V25.9371H34.0996ZM55.4156 32.8531C55.0484 32.8531 54.7509 32.4242 54.7509 31.8949C54.7509 31.3656 55.0484 30.9367 55.4156 30.9367H58.2111C58.5783 30.9367 58.8758 31.3656 58.8758 31.8949C58.8758 32.4242 58.5783 32.8531 58.2111 32.8531H55.4156Z"
                            fill="black"></path>
                    </svg>
