<?xml version="1.0" encoding="UTF-8" standalone="no"?>
<svg width="64" height="68" viewBox="0 0 64 68" fill="none" xmlns="http://www.w3.org/2000/svg"
                        class="flex-grow-0 flex-shrink-0 w-16 h-[68px]" preserveAspectRatio="xMidYMid meet">
                        <path fill-rule="evenodd" clip-rule="evenodd"
                            d="M28.839 50.6634C28.1728 50.6309 27.6486 50.1498 27.6486 49.5655C27.6486 48.9841 28.1728 48.503 28.839 48.4705H59.1676C59.5126 48.4558 59.8474 48.565 60.0976 48.7716C60.3479 48.9782 60.4899 49.2645 60.4899 49.5655C60.4899 49.8666 60.3479 50.1558 60.0976 50.3624C59.8474 50.569 59.5126 50.6782 59.1676 50.6635L28.839 50.6634ZM16.965 50.6634C16.2988 50.6309 15.7746 50.1498 15.7746 49.5655C15.7746 48.9841 16.2988 48.503 16.965 48.4705H24.2361C24.581 48.4558 24.9192 48.565 25.1695 48.7716C25.4197 48.9782 25.5618 49.2645 25.5618 49.5655C25.5618 49.8666 25.4197 50.1558 25.1695 50.3624C24.9192 50.569 24.581 50.6782 24.2361 50.6635L16.965 50.6634ZM47.2937 55.2853C47.9599 55.3148 48.4841 55.7959 48.4841 56.3803C48.4841 56.9646 47.9599 57.4458 47.2937 57.4752H16.965C16.2988 57.4457 15.7746 56.9646 15.7746 56.3803C15.7746 55.7959 16.2988 55.3148 16.965 55.2853H47.2937ZM59.1676 55.2853C59.5126 55.2676 59.8474 55.3768 60.0976 55.5834C60.3479 55.7929 60.4899 56.0792 60.4899 56.3803C60.4899 56.6813 60.3479 56.9676 60.0976 57.1772C59.8474 57.3838 59.5126 57.493 59.1676 57.4753H51.8932C51.5517 57.493 51.2135 57.3838 50.9632 57.1772C50.713 56.9676 50.5709 56.6813 50.5709 56.3803C50.5709 56.0792 50.713 55.793 50.9632 55.5834C51.2135 55.3768 51.5517 55.2676 51.8932 55.2853H59.1676ZM28.839 64.2991C28.1728 64.2667 27.6486 63.7856 27.6486 63.2012C27.6486 62.6198 28.1728 62.1388 28.839 62.1063H59.1676C59.8339 62.1387 60.3581 62.6198 60.3581 63.2012C60.3581 63.7856 59.8339 64.2667 59.1676 64.2991H28.839ZM16.965 64.2991C16.2988 64.2667 15.7746 63.7856 15.7746 63.2012C15.7746 62.6198 16.2988 62.1388 16.965 62.1063H24.2361C24.9057 62.1387 25.4299 62.6198 25.4299 63.2012C25.4299 63.7856 24.9057 64.2667 24.2361 64.2991H16.965ZM45.8426 37.8455C48.2269 35.7972 50.0464 33.3003 51.1623 30.5496C51.1826 30.4995 51.1962 30.4493 51.2097 30.3991C51.2165 30.346 51.2198 30.2929 51.2165 30.2397V18.9804L38.0707 15.5273L24.9119 18.9804V30.2428C24.9085 30.2959 24.9119 30.349 24.9187 30.3992C24.9322 30.4523 24.9457 30.5025 24.966 30.5527C26.0821 33.3033 27.9015 35.8002 30.2857 37.8485C32.467 39.8259 35.1252 41.3547 38.0708 42.3199C41.0131 41.3519 43.6678 39.823 45.8459 37.8455L45.8426 37.8455ZM53.5466 31.2343H53.55C52.3054 34.3097 50.2797 37.0988 47.6215 39.3891C45.0681 41.703 41.923 43.4591 38.4426 44.5127C38.1924 44.5835 37.9252 44.5835 37.6749 44.5127C34.1984 43.4591 31.06 41.7059 28.5099 39.392C25.8518 37.1018 23.826 34.3097 22.5848 31.2342C22.4631 30.9125 22.4022 30.579 22.3988 30.2426V18.1657C22.3988 17.661 22.7979 17.2183 23.3627 17.1002L37.7084 13.3342C37.9485 13.2722 38.2021 13.2722 38.4423 13.3372L52.8321 17.115C53.3631 17.2537 53.7284 17.6816 53.7284 18.1656V30.2425C53.725 30.579 53.6649 30.9126 53.5466 31.2343ZM31.5847 31.0927C31.2972 30.9392 31.091 30.6913 31.0132 30.402C30.9388 30.1157 30.9963 29.8117 31.1789 29.5638C31.3615 29.3159 31.6523 29.1418 31.9838 29.0827C32.3152 29.0237 32.6602 29.0827 32.9409 29.251L36.3735 31.1871L42.9174 24.5228V24.5199C43.1305 24.2926 43.4416 24.148 43.7798 24.1214C44.1146 24.0949 44.4494 24.1893 44.7064 24.3812C44.9635 24.573 45.119 24.8445 45.1427 25.1397C45.163 25.4348 45.048 25.724 44.8248 25.9424L37.5943 33.3033C37.1918 33.743 36.4782 33.8463 35.9371 33.5423L31.588 31.0897L31.5847 31.0927ZM5.96308 5.20034V1.55242L1.7797 5.20328L5.96308 5.20034ZM18.0939 11.9975V8.34954L13.9105 12.0004L18.0939 11.9975ZM20.6066 6.80004V13.0983C20.6066 13.7033 20.0452 14.1962 19.3486 14.1962H12.1317V64.5853C12.1384 66.4683 13.8868 67.9971 16.0479 68H64V10.2148C63.9932 8.33178 62.2448 6.80593 60.0838 6.80004H20.6032H20.6066ZM18.4557 4.93471C18.4862 4.9052 18.52 4.87863 18.5572 4.85207C18.6383 4.79599 18.7263 4.74582 18.821 4.70745C18.9867 4.63956 19.1659 4.6071 19.3486 4.6071H51.8684V3.41475C51.865 1.53175 50.1133 0.00589337 47.9556 0H8.47498V6.29827C8.47498 6.90331 7.91358 7.39617 7.21693 7.39617H0V57.7852C0.00676422 59.6682 1.75517 61.1941 3.9162 61.2H9.61804V13.098C9.61804 12.9386 9.65863 12.7793 9.73303 12.6346C9.77699 12.552 9.83449 12.4753 9.90212 12.4044C9.92918 12.3749 9.95961 12.3454 9.99343 12.3159L18.4557 4.93471Z"
                            fill="black"></path>
                    </svg>
