<?xml version="1.0" encoding="UTF-8" standalone="no"?>
<svg width="33" height="34" viewBox="0 0 33 34" fill="none"
                                            xmlns="http://www.w3.org/2000/svg" class="flex-grow-0 flex-shrink-0"
                                            preserveAspectRatio="none">
                                            <path
                                                d="M11.0632 21.5934C11.0153 21.7625 10.9515 21.9156 10.8734 22.0496C11.0664 22.072 11.2482 22.1262 11.4205 22.2091C11.2897 22.0113 11.1717 21.804 11.0632 21.5934Z"
                                                fill="black"></path>
                                            <path
                                                d="M10.398 19.4719C10.3852 19.373 10.3693 19.2757 10.3613 19.1752C10.3023 19.2374 10.24 19.2948 10.1762 19.3474C10.2528 19.3825 10.3262 19.424 10.398 19.4719Z"
                                                fill="black"></path>
                                            <path
                                                d="M4.67151 19.4878C4.91079 19.4463 8.32442 19.1943 8.99768 19.1449C9.04075 19.1401 9.08701 19.1385 9.13486 19.1369C9.3869 19.0683 10.3041 18.7445 10.2515 17.6151C10.2052 16.6149 9.03437 16.4363 9.01685 16.4331L4.38115 16.2401C4.36838 16.2401 4.35722 16.2337 4.34286 16.2305C2.96624 16.6436 3.15445 19.5468 4.66828 19.4894L4.67151 19.4878Z"
                                                fill="black"></path>
                                            <path
                                                d="M11.6933 18.5785C11.6933 21.4705 14.0366 23.8235 16.9158 23.8235C19.795 23.8235 22.1383 21.4706 22.1383 18.5785C22.1383 15.6992 19.795 13.3576 16.9158 13.3576C14.0349 13.3576 11.6933 15.6993 11.6933 18.5785ZM16.8504 14.0114C17.0387 14.0114 17.1918 14.1629 17.1918 14.3512L17.2046 18.3997C17.2046 18.5879 17.053 18.7411 16.8648 18.7411C16.6766 18.7411 16.5234 18.5895 16.5234 18.4013L16.5107 14.3528C16.5107 14.1645 16.6622 14.013 16.8504 14.0114Z"
                                                fill="black"></path>
                                            <path
                                                d="M10.8529 25.1662C11.6154 24.8791 11.8706 24.1309 11.7238 23.5711C11.5627 22.9617 11.0252 22.6092 10.4445 22.7368L5.81209 23.7242C4.99696 24.5585 6.05455 26.1505 7.0611 26.2669C7.18074 26.2813 7.36577 26.2988 7.59707 26.3212L10.8529 25.1662Z"
                                                fill="black"></path>
                                            <path
                                                d="M31.8626 13.2337L28.0693 13.2384C28.0693 13.2384 24.5392 9.57595 22.3747 7.58348C22.1641 7.38887 21.2581 6.61522 20.0697 6.57695C18.8845 6.53867 17.5765 6.53548 16.8028 6.59929C16.7917 6.60088 15.4549 6.77635 14.7227 7.07466C14.0783 7.33626 11.6329 8.20561 10.2659 8.80063C10.1909 9.03831 10.5052 9.57746 11.1608 10.1167C12.2917 10.9557 14.0974 10.718 14.0974 10.718L14.0767 11.3753C14.0767 11.3753 9.3724 11.6975 6.4853 11.8219C3.78947 11.8969 3.67623 15.0649 4.98425 15.545C4.97308 15.5562 4.96032 15.5705 4.94915 15.5833C6.1806 15.6344 9.05358 15.7556 9.0789 15.7572C9.12356 15.7636 9.17142 15.7715 9.22087 15.7827C9.25277 15.7779 9.28467 15.7715 9.31817 15.7763C9.32455 15.7779 10.0009 15.8593 10.4188 15.5243C10.6166 15.3664 10.7267 15.1399 10.7554 14.8288C10.8495 13.8382 9.70102 13.6548 9.53351 13.6308C8.89863 13.4761 7.82509 13.2209 7.64962 13.197C7.55232 13.1698 7.36728 13.0693 7.3928 12.8109C7.42311 12.511 7.71343 12.5015 7.73576 12.5222C8.00693 12.5573 9.52233 12.9274 9.65632 12.9625C10.3263 13.0486 11.5577 13.5623 11.4317 14.8926C11.4286 14.9197 11.4206 14.9437 11.4174 14.9692C12.4159 13.4538 14.0255 12.3786 15.8918 12.0851V11.7278H17.9272L17.9256 12.082C21.076 12.5717 23.4977 15.2946 23.4977 18.579C23.4977 22.2207 20.5435 25.1846 16.9145 25.1846C15.1471 25.1846 13.5424 24.4779 12.3589 23.3374C12.3652 23.3582 12.3748 23.3773 12.3812 23.398C12.6045 24.2466 12.2281 25.3776 11.0907 25.8035L9.2164 26.4687C12.3987 26.7478 17.725 27.1801 17.725 27.1801C21.4959 27.4449 25.9367 26.9999 27.9642 24.2658H31.322C31.322 24.2658 32.4992 21.6019 32.6619 18.3973C32.788 15.9216 31.8626 13.2337 31.8626 13.2337ZM18.0678 11.4774H15.5921C15.2268 11.4774 14.9301 11.002 14.9301 10.4166C14.9301 9.83117 15.2268 9.3558 15.5921 9.3558H18.0678C18.4331 9.3558 18.7298 9.83117 18.7298 10.4166C18.7298 11.002 18.4331 11.4774 18.0678 11.4774Z"
                                                fill="black"></path>
                                            <path
                                                d="M10.6197 16.6516C10.6819 16.449 10.7537 16.2512 10.8335 16.0582C10.6771 16.1826 10.5033 16.2688 10.331 16.3294C10.4378 16.4235 10.5352 16.5304 10.6197 16.6516Z"
                                                fill="black"></path>
                                            <path
                                                d="M5.7353 23.0449L9.69766 22.1994C9.74232 22.1675 9.8141 22.1436 9.90343 22.1037C9.93374 22.0894 10.6228 21.697 10.4362 20.684C10.2639 19.7413 9.18402 19.8099 9.05482 19.821C7.53302 19.9327 5.25356 20.1066 4.84054 20.1512C3.95203 20.8164 4.43856 23.2379 5.72587 23.0177C5.72906 23.0273 5.73211 23.0353 5.7353 23.0449Z"
                                                fill="black"></path>
                                            <path
                                                d="M23.8101 4.36571C24.4482 4.71026 24.8007 4.9272 25.5249 5.42651L25.9109 4.86501C25.1612 4.34978 24.7959 4.12327 24.1339 3.76595L23.8101 4.36571Z"
                                                fill="black"></path>
                                            <path
                                                d="M27.0595 6.67394C27.5859 7.17002 27.8714 7.47151 28.444 8.13987L28.9609 7.69643C28.3691 7.00573 28.0739 6.69309 27.5252 6.17783L27.0595 6.67394Z"
                                                fill="black"></path>
                                            <path
                                                d="M29.6084 9.74621C29.9913 10.3603 30.1923 10.724 30.5751 11.5152L31.1876 11.2185C30.7904 10.4002 30.5847 10.0237 30.1843 9.38568L29.6084 9.74621Z"
                                                fill="black"></path>
                                            <path
                                                d="M30.0919 25.224C29.7394 25.8557 29.5161 26.2066 29.0072 26.9244L29.5624 27.3184C30.0872 26.5767 30.3185 26.2146 30.6854 25.5574L30.0919 25.224Z"
                                                fill="black"></path>
                                            <path
                                                d="M27.739 28.435C27.2397 28.9582 26.935 29.2422 26.265 29.8101L26.7053 30.3301C27.3992 29.7431 27.7134 29.4479 28.2334 28.904L27.739 28.435Z"
                                                fill="black"></path>
                                            <path
                                                d="M24.6367 30.9554C24.0162 31.3271 23.6461 31.5185 22.8485 31.8869L23.1324 32.5043C23.9571 32.1246 24.3384 31.9252 24.9844 31.5376L24.6367 30.9554Z"
                                                fill="black"></path>
                                            <path
                                                d="M20.9949 32.5745C20.301 32.7739 19.8942 32.8664 19.028 33.0195L19.1445 33.6895C20.041 33.5315 20.4589 33.4374 21.1831 33.2285L20.9949 32.5745Z"
                                                fill="black"></path>
                                            <path
                                                d="M17.0595 33.1886C16.3369 33.2062 15.9206 33.1902 15.0449 33.1184L14.9874 33.7964C15.8935 33.8713 16.3226 33.8857 17.0755 33.8682L17.0595 33.1886Z"
                                                fill="black"></path>
                                            <path
                                                d="M13.094 32.785C12.3937 32.608 11.9965 32.482 11.1718 32.1773L10.9357 32.8153C11.7891 33.1312 12.1975 33.2604 12.9281 33.4454L13.094 32.785Z"
                                                fill="black"></path>
                                            <path
                                                d="M9.37418 31.3637C8.74408 31.0128 8.39158 30.7879 7.67373 30.2806L7.27972 30.8358C8.02306 31.3606 8.38356 31.5903 9.04237 31.9572L9.37418 31.3637Z"
                                                fill="black"></path>
                                            <path
                                                d="M6.15344 29.0205C5.63025 28.5228 5.34628 28.2181 4.77841 27.5481L4.25841 27.9868C4.84702 28.6807 5.13891 28.9933 5.68448 29.5134L6.15344 29.0205Z"
                                                fill="black"></path>
                                            <path
                                                d="M3.63305 25.9275C3.25818 25.3101 3.06359 24.9416 2.68712 24.1473L2.0714 24.436C2.45902 25.2591 2.66001 25.6371 3.05081 26.2816L3.63305 25.9275Z"
                                                fill="black"></path>
                                            <path
                                                d="M1.99638 22.3064C1.79539 21.6126 1.70287 21.2074 1.54812 20.3412L0.878166 20.4593C1.03768 21.3541 1.13179 21.7721 1.34235 22.4963L1.99638 22.3064Z"
                                                fill="black"></path>
                                            <path
                                                d="M1.36138 18.3792C1.34383 17.6566 1.35978 17.2418 1.43157 16.3645L0.753607 16.3071C0.678636 17.2131 0.662681 17.6422 0.680229 18.3951L1.36138 18.3792Z"
                                                fill="black"></path>
                                            <path
                                                d="M1.75705 14.4073C1.92773 13.7054 2.05056 13.3082 2.34725 12.4803L1.7076 12.2506C1.39973 13.1056 1.27371 13.5156 1.09665 14.2477L1.75705 14.4073Z"
                                                fill="black"></path>
                                            <path
                                                d="M3.16713 10.6778C3.51009 10.0413 3.72863 9.68715 4.22311 8.96138L3.66162 8.57694C3.14798 9.32665 2.92306 9.69197 2.56574 10.3556L3.16713 10.6778Z"
                                                fill="black"></path>
                                            <path
                                                d="M5.48335 7.44436C5.97943 6.91794 6.28092 6.63401 6.94928 6.05977L6.50744 5.54295C5.81833 6.13475 5.50569 6.42828 4.98883 6.97699L5.48335 7.44436Z"
                                                fill="black"></path>
                                            <path
                                                d="M8.55419 4.91444C9.16992 4.53479 9.5352 4.33857 10.3296 3.95896L10.0361 3.34483C9.21621 3.73724 8.83815 3.93981 8.1969 4.33543L8.55419 4.91444Z"
                                                fill="black"></path>
                                            <path
                                                d="M12.1894 3.25229C12.8817 3.04332 13.2869 2.94762 14.1499 2.78492L14.0255 2.11656C13.1322 2.28564 12.7143 2.38455 11.9932 2.60149L12.1894 3.25229Z"
                                                fill="black"></path>
                                            <path
                                                d="M23.8085 4.36415C24.4465 4.70711 24.8007 4.92406 25.5265 5.42013L25.9093 4.85864C25.1596 4.34659 24.7927 4.12008 24.1291 3.76435L23.8085 4.36415Z"
                                                fill="black"></path>
                                            <path
                                                d="M22.7974 2.37497L19.9452 0.277344V1.59655L17.2127 1.59974L17.2143 1.04462L16.5348 1.04302L16.5252 3.52667L17.2064 3.52986L17.2079 2.9604L19.9452 2.95721V4.5109L22.7974 2.37497Z"
                                                fill="black"></path>
                                        </svg>
