<?xml version="1.0" encoding="UTF-8" standalone="no"?>
<svg width="64" height="62" viewBox="0 0 64 62" fill="none" xmlns="http://www.w3.org/2000/svg"
                            class="absolute left-[256.5px] top-[-0.5px]" preserveAspectRatio="none">
                            <path fill-rule="evenodd" clip-rule="evenodd"
                                d="M22.6707 55.8547V60.0034C22.6707 60.0668 22.7082 60.1246 22.7708 60.1659L22.775 60.1632C22.8376 60.2045 22.9211 60.2293 23.0171 60.2293H43.8109C43.9027 60.2293 43.9903 60.2045 44.0529 60.1632L44.0822 60.1439C44.1281 60.1053 44.1531 60.0557 44.1531 60.0034V55.8547C44.1531 55.7914 44.1155 55.7363 44.0529 55.695L44.0488 55.6977C43.9862 55.6564 43.9027 55.6288 43.8067 55.6288H23.0129C22.9211 55.6288 22.8334 55.6564 22.7708 55.6977L22.7416 55.717C22.6957 55.7528 22.6707 55.8024 22.6707 55.8547ZM46.2521 54.6978C51.2606 53.1496 55.5387 50.6978 58.2394 47.3536C60.8314 44.1415 61.9875 40.0891 60.9649 35.1858C60.5851 33.3594 59.8714 31.6514 59.2161 30.0867C58.2604 27.7975 57.4172 25.781 57.7678 23.938C56.6868 24.3733 55.6183 24.9903 54.6375 25.781C53.0556 27.0509 51.7116 28.7616 50.902 30.869C50.7225 31.34 49.9921 31.6238 49.2784 31.5053C49.0363 31.464 48.8234 31.3814 48.6565 31.2712C41.031 27.0371 41.6529 22.1224 42.2748 17.219C42.6128 14.5331 42.9551 11.8527 41.7864 9.41221C40.8515 7.45635 39.3573 5.84203 37.3038 4.56933C35.7344 3.5969 33.8312 2.81453 31.594 2.22504C34.2569 10.3238 29.8536 13.5692 24.5613 17.4698C19.9659 20.8554 14.6402 24.7751 13.3133 33.395C13.2424 33.8771 12.5913 34.2325 11.8567 34.1829C11.5896 34.1663 11.3475 34.0975 11.1513 33.9928C9.21884 32.9708 7.79562 31.676 6.88153 30.1086C6.53511 29.5136 6.26381 28.8827 6.06347 28.2133C5.62105 28.8855 5.21202 29.5521 4.84475 30.2132C3.93904 31.8303 3.27964 33.406 2.98324 34.9459C1.96067 40.2488 3.42566 44.5686 6.46832 47.9156C9.63616 51.4031 14.5404 53.8494 20.1332 55.2597C20.2667 54.9787 20.4963 54.7225 20.7926 54.5104L20.8803 54.4471C21.3937 54.1082 22.0948 53.8906 22.8712 53.8658L22.8211 51.5876C19.5197 50.3342 17.6039 48.8741 16.4895 47.1414C15.3375 45.348 15.1038 43.3233 15.0787 40.9459C15.0328 39.6677 15.7758 38.7229 16.9361 37.957C17.7959 37.3923 18.8519 36.9515 19.9537 36.5521L19.937 35.1113C19.9287 34.2766 20.4003 33.5108 21.1682 32.9543C21.9613 32.3731 23.0757 32.0122 24.3111 32.0039H24.3152V32.0011L24.453 32.0067C25.63 32.0287 26.6943 32.3758 27.4706 32.924C27.5833 33.0039 27.6918 33.0893 27.792 33.1802C28.5224 32.7863 29.4365 32.5521 30.434 32.5466C31.5985 32.5411 32.6628 32.8551 33.4558 33.3758C33.6645 33.5135 33.8523 33.665 34.0234 33.8276C34.2029 33.7532 34.3907 33.6898 34.5827 33.632C35.5176 33.3593 36.5778 33.3014 37.6128 33.497C38.6312 33.6926 39.491 34.1113 40.1004 34.665L40.1505 34.7118C40.8558 34.3647 41.7156 34.1636 42.6297 34.1609C43.6189 34.1553 44.5455 34.384 45.2925 34.7807C46.0188 35.1664 46.5739 35.7145 46.8452 36.3619C46.8827 36.4473 46.8952 36.5327 46.8911 36.6181L47.1331 45.6372C47.0163 48.1633 46.0229 49.739 45.1339 51.1632C44.5704 52.064 44.0488 52.8932 43.8859 53.8628C44.6831 53.8766 45.4094 54.097 45.9353 54.4468V54.4496C46.0521 54.5267 46.1561 54.6096 46.2521 54.6978ZM19.9994 57.1027C13.5384 55.5958 7.83688 52.8383 4.1848 48.822C0.849956 45.1554 -0.756938 40.456 0.344884 34.7289C0.67044 33.032 1.37998 31.3323 2.33996 29.6106C3.2874 27.9109 4.48943 26.1809 5.82087 24.4041C6.04625 24.1066 6.51788 23.9055 7.05208 23.9165C7.78667 23.9303 8.36685 24.3325 8.34591 24.82C8.26243 26.6189 8.60051 28.1726 9.36431 29.4811C9.78168 30.1973 10.3284 30.842 11.0088 31.4177C12.841 23.4727 18.0457 19.6412 22.5784 16.302C27.6745 12.5501 31.8567 9.47023 28.4342 1.10387C28.3758 0.952358 28.3758 0.792576 28.4425 0.632802C28.6471 0.167245 29.3858 -0.0999911 30.0912 0.035016C33.7391 0.73197 36.7526 1.82007 39.1274 3.2939C41.519 4.77874 43.2553 6.64369 44.3279 8.88608C45.6552 11.6574 45.2921 14.5086 44.9331 17.3649C44.4114 21.4668 43.8938 25.5772 48.9399 29.0476C49.8582 27.301 51.127 25.8328 52.5794 24.6675C54.6579 22.9981 57.1246 21.9431 59.4996 21.5795C59.8084 21.5244 60.1465 21.5436 60.4553 21.6483C61.1106 21.8715 61.3652 22.4004 61.0313 22.8329C59.6707 24.5683 60.6348 26.8741 61.7826 29.6234C62.4629 31.2459 63.2017 33.0117 63.6065 34.9593C64.7083 40.2512 63.4312 44.6617 60.5889 48.1878C57.5003 52.0169 52.5711 54.7772 46.8236 56.4685V60.0111C46.8236 60.5262 46.5189 61 46.0264 61.3526L45.9388 61.416C45.392 61.7769 44.6408 62 43.8101 62L23.0121 61.9917C22.1815 61.9917 21.426 61.7686 20.8834 61.4077V61.405C20.3367 61.0441 19.9986 60.5483 19.9986 60.0028L19.9994 57.1027ZM22.6748 42.8961C22.6581 40.8851 22.6373 38.8714 22.6164 36.8576L22.5955 35.1083C22.5913 34.7254 22.8 34.3811 23.1381 34.1332C23.447 33.9073 23.8643 33.7668 24.3152 33.764V33.7668L24.407 33.764C24.8285 33.7805 25.2209 33.9128 25.5172 34.1221C25.8595 34.3645 26.0765 34.7061 26.0807 35.0808L26.0765 35.0836L26.0849 35.169L26.089 35.4665C26.0932 35.9513 26.6901 36.3425 27.4246 36.3397C28.13 36.337 28.7018 35.9734 28.7478 35.516C28.7853 35.1634 28.9982 34.8521 29.3237 34.6318C29.6242 34.4279 30.0207 34.304 30.4423 34.3012C30.8681 34.2985 31.2687 34.4197 31.5734 34.6208C31.9031 34.8384 32.1244 35.1469 32.1661 35.5023C32.2245 35.9871 32.8673 36.348 33.6019 36.3121C34.0819 36.2874 34.4868 36.0973 34.6912 35.8328C34.9292 35.5601 35.2714 35.359 35.6512 35.2461C36.031 35.1359 36.4568 35.1083 36.8658 35.1882C37.2915 35.2681 37.663 35.4554 37.9343 35.7006C38.2222 35.9623 38.3934 36.2901 38.4059 36.6427C38.4184 37.1275 39.0278 37.5132 39.7623 37.505C40.3717 37.4967 40.8768 37.2185 41.027 36.8466C41.1355 36.5656 41.3692 36.3314 41.6697 36.1662C41.9494 36.0119 42.2916 35.921 42.6381 35.921C42.997 35.9182 43.3393 36.0064 43.6189 36.1551C43.8902 36.2984 44.1031 36.4995 44.2324 36.7419L44.4704 45.6065C44.366 47.7965 43.4728 49.218 42.6673 50.4962C41.9828 51.5843 41.3567 52.587 41.2023 53.8652L25.534 53.8625L25.4756 51.0499C25.4714 50.7165 25.1834 50.43 24.7702 50.2841L24.7744 50.2813C21.6357 49.1822 19.8953 47.9315 18.9478 46.4577C17.967 44.9288 17.7666 43.0969 17.7416 40.9206V40.9041C17.7166 40.1851 18.1465 39.6451 18.8185 39.2043C19.1482 38.9867 19.5447 38.7829 19.9787 38.5928L20.0205 42.9012C20.0246 43.3861 20.6215 43.7773 21.3561 43.7745C22.0865 43.7745 22.679 43.3809 22.6748 42.8961Z"
                                fill="black"></path>
                        </svg>
