<?xml version="1.0" encoding="UTF-8" standalone="no"?>
<svg width="32" height="34" viewBox="0 0 32 34" fill="none"
                                xmlns="http://www.w3.org/2000/svg" class="flex-grow-0 flex-shrink-0"
                                preserveAspectRatio="none">
                                <path
                                    d="M3.8619 10.4805H6.06879C6.37362 10.4805 6.62052 10.7853 6.62052 11.0322V13.2391C6.62052 13.5439 6.37362 13.7908 6.06879 13.7908H3.8619C3.55707 13.7908 3.31017 13.486 3.31017 13.2391V11.0322C3.31017 10.7274 3.55707 10.4805 3.8619 10.4805Z"
                                    fill="black"></path>
                                <path
                                    d="M9.37917 10.4805H11.5861C11.8909 10.4805 12.1378 10.7853 12.1378 11.0322V13.2391C12.1378 13.5439 11.8909 13.7908 11.5861 13.7908H9.37917C9.07434 13.7908 8.82745 13.486 8.82745 13.2391V11.0322C8.82745 10.7274 9.07434 10.4805 9.37917 10.4805Z"
                                    fill="black"></path>
                                <path
                                    d="M14.8964 10.4805H17.1033C17.4081 10.4805 17.655 10.7853 17.655 11.0322V13.2391C17.655 13.5439 17.4081 13.7908 17.1033 13.7908H14.8964C14.5915 13.7908 14.3447 13.486 14.3447 13.2391V11.0322C14.3447 10.7274 14.5915 10.4805 14.8964 10.4805Z"
                                    fill="black"></path>
                                <path
                                    d="M20.4136 10.4805H22.6205C22.9254 10.4805 23.1723 10.7853 23.1723 11.0322V13.2391C23.1723 13.5439 22.9254 13.7908 22.6205 13.7908H20.4136C20.1088 13.7908 19.8619 13.486 19.8619 13.2391V11.0322C19.8619 10.7274 20.1088 10.4805 20.4136 10.4805Z"
                                    fill="black"></path>
                                <path
                                    d="M3.8619 15.4473H6.06879C6.37362 15.4473 6.62052 15.7521 6.62052 15.999V18.2059C6.62052 18.5107 6.37362 18.7576 6.06879 18.7576H3.8619C3.55707 18.7576 3.31017 18.4528 3.31017 18.2059V15.999C3.31017 15.6942 3.55707 15.4473 3.8619 15.4473Z"
                                    fill="black"></path>
                                <path
                                    d="M9.37917 15.4473H11.5861C11.8909 15.4473 12.1378 15.7521 12.1378 15.999V18.2059C12.1378 18.5107 11.8909 18.7576 11.5861 18.7576H9.37917C9.07434 18.7576 8.82745 18.4528 8.82745 18.2059V15.999C8.82745 15.6942 9.07434 15.4473 9.37917 15.4473Z"
                                    fill="black"></path>
                                <path
                                    d="M14.8964 15.4473H17.1033C17.4081 15.4473 17.655 15.7521 17.655 15.999V18.2059C17.655 18.5107 17.4081 18.7576 17.1033 18.7576H14.8964C14.5915 18.7576 14.3447 18.4528 14.3447 18.2059V15.999C14.3447 15.6942 14.5915 15.4473 14.8964 15.4473Z"
                                    fill="black"></path>
                                <path
                                    d="M20.4136 15.4473H22.6205C22.9254 15.4473 23.1723 15.7521 23.1723 15.999V18.2059C23.1723 18.5107 22.9254 18.7576 22.6205 18.7576H20.4136C20.1088 18.7576 19.8619 18.4528 19.8619 18.2059V15.999C19.8619 15.6942 20.1088 15.4473 20.4136 15.4473Z"
                                    fill="black"></path>
                                <path
                                    d="M3.8619 20.4141H6.06879C6.37362 20.4141 6.62052 20.7189 6.62052 20.9658V23.1727C6.62052 23.4775 6.37362 23.7244 6.06879 23.7244H3.8619C3.55707 23.7244 3.31017 23.4196 3.31017 23.1727V20.9658C3.31017 20.661 3.55707 20.4141 3.8619 20.4141Z"
                                    fill="black"></path>
                                <path
                                    d="M9.37917 20.4141H11.5861C11.8909 20.4141 12.1378 20.7189 12.1378 20.9658V23.1727C12.1378 23.4775 11.8909 23.7244 11.5861 23.7244H9.37917C9.07434 23.7244 8.82745 23.4196 8.82745 23.1727V20.9658C8.82745 20.661 9.07434 20.4141 9.37917 20.4141Z"
                                    fill="black"></path>
                                <path
                                    d="M14.8964 20.4141H17.1033C17.4081 20.4141 17.655 20.7189 17.655 20.9658V23.1727C17.655 23.4775 17.4081 23.7244 17.1033 23.7244H14.8964C14.5915 23.7244 14.3447 23.4196 14.3447 23.1727V20.9658C14.3447 20.661 14.5915 20.4141 14.8964 20.4141Z"
                                    fill="black"></path>
                                <path
                                    d="M26.4828 19.956V4.41379C26.4828 3.19449 25.4952 2.2069 24.2759 2.2069H22.6207V1.65517C22.6207 0.744837 21.8759 0 20.9655 0C20.0552 0 19.3103 0.744837 19.3103 1.65517V2.2069H20.4138V1.65517C20.4138 1.35172 20.6621 1.10345 20.9655 1.10345C21.269 1.10345 21.5172 1.35172 21.5172 1.65517V2.2069H20.4138V4.41379C20.4138 4.71724 20.6621 4.96552 20.9655 4.96552C21.269 4.96552 21.5172 4.71724 21.5172 4.41379C21.5172 4.11034 21.7655 3.86207 22.069 3.86207C22.3724 3.86207 22.6207 4.11034 22.6207 4.41379C22.6207 5.32413 21.8759 6.06897 20.9655 6.06897C20.0552 6.06897 19.3103 5.32413 19.3103 4.41379V2.2069H7.17241V1.65517C7.17241 0.744837 6.42758 0 5.51724 0C4.60691 0 3.86207 0.744837 3.86207 1.65517V2.2069H4.96552V1.65517C4.96552 1.35172 5.21379 1.10345 5.51724 1.10345C5.82069 1.10345 6.06897 1.35172 6.06897 1.65517V2.2069H4.96552V4.41379C4.96552 4.71724 5.21379 4.96552 5.51724 4.96552C5.82069 4.96552 6.06897 4.71724 6.06897 4.41379C6.06897 4.11034 6.31724 3.86207 6.62069 3.86207C6.92414 3.86207 7.17241 4.11034 7.17241 4.41379C7.17241 5.32413 6.42758 6.06897 5.51724 6.06897C4.60691 6.06897 3.86207 5.32413 3.86207 4.41379V2.2069H2.2069C0.987595 2.2069 0 3.19449 0 4.41379V26.4828C0 27.7021 0.987595 28.6897 2.2069 28.6897H19.1393C20.0496 31.2607 22.4993 33.1035 25.3793 33.1035C29.0318 33.1035 32 30.1352 32 26.4828C32 23.2055 29.611 20.48 26.4828 19.956ZM18.8525 25.3793H2.2069C1.59998 25.3793 1.10345 24.8828 1.10345 24.2759V8.82759H25.3793V19.8621C22.1021 19.8621 19.3766 22.251 18.8525 25.3793ZM25.3793 32C22.8745 32 20.7505 30.3173 20.0828 28.0276C19.9393 27.5366 19.8621 27.0179 19.8621 26.4828C19.8621 26.3338 19.8676 26.1848 19.8786 26.0414C19.8786 25.9972 19.8786 25.9586 19.8897 25.92C20.1766 23.1448 22.5269 20.9656 25.3794 20.9656C25.5283 20.9656 25.6773 20.9711 25.8207 20.9822C25.8594 20.9822 25.8925 20.9877 25.9256 20.9932H25.9366C28.7118 21.2801 30.891 23.6305 30.891 26.4829C30.891 29.5229 28.4138 32.0001 25.3738 32.0001L25.3793 32Z"
                                    fill="black"></path>
                                <path
                                    d="M27.7462 23.8822L24.2759 27.3526L23.0125 26.0891C22.7973 25.874 22.4497 25.874 22.2345 26.0891C22.0194 26.3043 22.0194 26.6519 22.2345 26.8671L23.8897 28.5222C24.0001 28.6326 24.138 28.6822 24.2814 28.6822C24.4249 28.6822 24.5628 28.6271 24.6732 28.5222L28.5354 24.66C28.7506 24.4448 28.7506 24.0972 28.5354 23.8821C28.3202 23.6669 27.9726 23.6669 27.7575 23.8821L27.7462 23.8822Z"
                                    fill="black"></path>
                            </svg>
