<?xml version="1.0" encoding="UTF-8" standalone="no"?>
<svg width="64" height="68" viewBox="0 0 64 68" fill="none" xmlns="http://www.w3.org/2000/svg"
                        class="flex-grow-0 flex-shrink-0 w-16 h-[68px]" preserveAspectRatio="none">
                        <path
                            d="M19.5483 35.9678L17.9208 27.3247L13.4552 28.9075L14.5586 33.5971L12.2778 34.4037L16.9983 38.166C17.678 37.2422 18.5486 36.4895 19.5483 35.9678Z"
                            fill="black"></path>
                        <path
                            d="M13.2412 44.5517H15.4481V42.9279C15.4481 41.9782 15.6169 41.072 15.9126 40.2302L13.2986 38.1479C13.2644 38.7189 13.2412 39.2911 13.2412 39.862V44.5517Z"
                            fill="black"></path>
                        <path
                            d="M49.4303 17.3976C46.8085 15.8277 43.9186 14.7773 40.9416 14.3306C39.6395 14.5979 38.375 15.0657 37.2186 15.7679L36.0688 16.4655C36.5488 16.4315 37.031 16.4139 37.5165 16.4139C40.8423 16.4139 44.1426 17.2288 47.1153 18.7553C47.8347 18.2183 48.6082 17.7599 49.4303 17.3976Z"
                            fill="black"></path>
                        <path
                            d="M29.4843 25.793L28.2838 29.6209L26.1211 28.8553L27.5644 32.9435C27.9329 32.8744 28.3081 32.8275 28.6888 32.8275C29.513 32.8275 30.2987 32.9951 31.0269 33.2894C30.9486 32.7548 30.8956 32.2119 30.8956 31.655C30.8956 29.4872 31.5158 27.4707 32.575 25.793H29.4843Z"
                            fill="black"></path>
                        <path
                            d="M30.6528 44.5517H33.1024V39.862C33.1024 37.2757 31.1228 35.1724 28.6887 35.1724C27.753 35.1724 26.8581 35.4924 26.1177 36.0575C27.924 37.0576 29.3088 38.8338 29.8296 41.0485L30.6528 44.5517Z"
                            fill="black"></path>
                        <path
                            d="M51.0458 41.7866L50.1167 44.5523H57.3784V41.708C56.3246 42.0257 55.2168 42.2075 54.0681 42.2075C53.0231 42.2075 52.0135 42.0515 51.0458 41.7866Z"
                            fill="black"></path>
                        <path
                            d="M59.585 44.552H61.7918V39.8624C61.7918 39.6642 61.7797 39.4649 61.7753 39.2656C61.1033 39.8542 60.3662 40.3571 59.585 40.7839V44.552Z"
                            fill="black"></path>
                        <path
                            d="M44.1372 29.3105C44.1372 35.1292 48.5918 39.8623 54.0681 39.8623C54.334 39.8623 54.5955 39.8423 54.857 39.82C58.7466 39.3992 61.7921 35.8971 61.7921 31.6554C61.7921 27.131 58.3262 23.4484 54.0681 23.4484C51.0259 23.4484 48.5509 26.0782 48.5509 29.3105C48.5509 32.5429 51.0259 35.1726 54.0681 35.1726C55.8931 35.1726 57.3784 33.5945 57.3784 31.6554C57.3784 29.7162 55.8931 28.1381 54.0681 28.1381C53.459 28.1381 52.9646 28.6633 52.9646 29.3105C52.9646 29.9577 53.459 30.4829 54.0681 30.4829H55.1715V32.8278H54.0681C52.243 32.8278 50.7578 31.2497 50.7578 29.3105C50.7578 27.3713 52.243 25.7933 54.0681 25.7933C57.1102 25.7933 59.5852 28.423 59.5852 31.6554C59.5852 34.8877 57.1102 37.5174 54.0681 37.5174C49.8099 37.5174 46.3441 33.8349 46.3441 29.3105C46.3441 24.7862 49.8099 21.1036 54.0681 21.1036C59.1714 21.1036 63.3832 25.2153 63.9338 30.4829C63.9747 30.0972 63.9989 29.7068 63.9989 29.3105C63.9989 23.4918 59.5444 18.7588 54.0681 18.7588C48.5918 18.7588 44.1372 23.4918 44.1372 29.3105Z"
                            fill="black"></path>
                        <path
                            d="M39.7231 42.1379V44.5519H41.93V42.1367C41.5659 42.1801 41.1984 42.2071 40.8266 42.2071C40.4536 42.2071 40.0862 42.1813 39.7231 42.1379Z"
                            fill="black"></path>
                        <path
                            d="M43.27 35.1724H33.8589C35.1013 37.9404 37.754 39.862 40.827 39.862C42.4822 39.862 44.0546 39.3028 45.3688 38.284C44.5313 37.3671 43.824 36.319 43.27 35.1724Z"
                            fill="black"></path>
                        <path
                            d="M27.6894 41.6159C27.1211 39.203 25.0886 37.5171 22.7471 37.5171C19.9389 37.5171 17.6548 39.944 17.6548 42.9278V44.5516H28.3801L27.6894 41.6159Z"
                            fill="black"></path>
                        <path d="M63.9999 46.8965H11.0342V49.2413H63.9999V46.8965Z" fill="black"></path>
                        <path
                            d="M19.8617 18.8935V0H0V23.2595L18.4736 20.3144C18.9205 19.8244 19.3828 19.3495 19.8617 18.8935Z"
                            fill="black"></path>
                        <path
                            d="M19.5961 24.2608L19.8808 25.7743C22.0722 22.6862 24.9356 20.2511 28.1785 18.6379C27.1402 18.4761 26.1328 18.1431 25.1916 17.6519C22.2432 19.5019 19.713 21.9722 17.7412 24.9161L19.5961 24.2608Z"
                            fill="black"></path>
                        <path
                            d="M29.792 67.9997H45.24C53.9947 67.9997 61.1636 60.7366 61.7352 51.5859H13.2969C13.8685 60.7366 21.0374 67.9997 29.792 67.9997ZM24.2749 60.9653V58.6204H37.516V60.9653H24.2749ZM46.3435 65.6549H33.1023V63.3101H46.3435V65.6549ZM35.3092 53.9308H41.9298V56.2756H35.3092V53.9308ZM19.8612 53.9308H33.1023V56.2756H19.8612V53.9308Z"
                            fill="black"></path>
                        <path
                            d="M33.8589 28.1384H41.9856C42.1169 26.6049 42.5076 25.1534 43.1001 23.8216C42.3696 23.5812 41.6105 23.4487 40.827 23.4487C37.754 23.4487 35.1025 25.3703 33.8589 28.1384Z"
                            fill="black"></path>
                        <path
                            d="M33.103 31.6548C33.103 32.0535 33.1394 32.4427 33.1913 32.8273H42.4016C42.1997 32.071 42.0563 31.2879 41.9867 30.4824H33.1913C33.1394 30.867 33.103 31.2562 33.103 31.6548Z"
                            fill="black"></path>
                        <path
                            d="M33.5146 15.3153L36.1231 13.7325C38.2859 12.4194 40.7465 11.7241 43.2392 11.7241H45.2408C45.8499 11.7241 46.3442 11.1989 46.3442 10.5517C46.3442 8.61256 44.859 7.03449 43.035 7.03449C42.4193 7.03449 41.8146 7.13883 41.2342 7.34518L37.6977 8.59732C36.2324 9.11552 34.7063 9.37932 33.1615 9.37932H30.8962V7.03449H33.1615C34.4691 7.03449 35.7601 6.81173 37.0004 6.37325L40.5357 5.12111C41.3401 4.83504 42.1821 4.68966 43.0339 4.68966C45.0576 4.68966 46.8121 5.86676 47.772 7.59725L56.37 11.6573C56.8257 11.8789 57.3785 11.4908 57.3785 10.9632V10.4755C57.3785 10.2082 57.245 9.95966 57.032 9.82132L43.7214 1.33655C42.3498 0.463104 40.7796 0 39.1796 0H22.0688V12.3326L24.7203 14.5872C27.1721 16.6717 30.7947 16.9707 33.5146 15.3153Z"
                            fill="black"></path>
                    </svg>
