<?xml version="1.0" encoding="UTF-8" standalone="no"?>
<svg width="56" height="57" viewBox="0 0 56 57" fill="none"
                                    xmlns="http://www.w3.org/2000/svg" class="flex-grow-0 flex-shrink-0"
                                    preserveAspectRatio="none">
                                    <path
                                        d="M50.6824 31.9862L51.5676 27.5613C51.6919 26.9357 51.6796 26.2907 51.5315 25.6702C51.3834 25.0497 51.1029 24.4683 50.7091 23.9656C50.3443 23.4575 49.8644 23.0423 49.3084 22.7539C48.7524 22.4654 48.1359 22.3118 47.5092 22.3054H47.4177V20.3457C47.4165 19.3303 47.0113 18.3568 46.2909 17.6387C45.5706 16.9207 44.594 16.5168 43.5753 16.5156H42.6387V8.91496C42.6388 8.74199 42.5702 8.576 42.448 8.45322L34.1596 0.190018C34.0365 0.0680146 33.8699 -0.000325939 33.6964 1.16887e-06H7.35945C7.27344 1.12847e-06 7.18828 0.0168968 7.10884 0.0497221C7.02939 0.0825474 6.95721 0.130659 6.89643 0.191306C6.83565 0.251953 6.78745 0.323947 6.7546 0.403172C6.72174 0.482397 6.70488 0.567299 6.70496 0.653026V10.1539H3.84239C2.82369 10.155 1.84704 10.5589 1.12671 11.277C0.406377 11.995 0.00117737 12.9685 1.66171e-07 13.984V49.1631C-8.60204e-05 49.2832 0.0333556 49.4009 0.0965841 49.5032C0.239604 50.1683 0.529617 50.7932 0.945506 51.3324C1.3102 51.8409 1.79014 52.2563 2.34629 52.545C2.90245 52.8337 3.51911 52.9875 4.14612 52.9938H32.0767C33.441 54.3256 35.063 55.3668 36.8439 56.054C38.6247 56.7411 40.5272 57.0598 42.4356 56.9908C44.344 56.9217 46.2183 56.4662 47.9445 55.6521C49.6706 54.838 51.2125 53.6823 52.4764 52.2553C53.7402 50.8283 54.6995 49.1599 55.2959 47.3516C55.8923 45.5433 56.1134 43.6329 55.9455 41.7368C55.7777 39.8406 55.2246 37.9983 54.3198 36.3221C53.4149 34.6458 52.1774 33.1705 50.6824 31.9862ZM43.5746 17.821C44.2462 17.8217 44.89 18.0879 45.3648 18.5613C45.8397 19.0346 46.1067 19.6764 46.1074 20.3457V22.3054H42.6387V17.821H43.5746ZM34.3515 2.22827L40.4026 8.26067H34.3515V2.22827ZM8.01456 1.30542H33.0419V8.91306C33.0419 9.08614 33.1108 9.25215 33.2335 9.37459C33.3563 9.49704 33.5227 9.56592 33.6964 9.56608H41.329V22.3054H8.01456V1.30542ZM3.84239 11.4586H6.70496V22.5746C6.15452 22.815 5.67244 23.1876 5.30185 23.6591C4.93126 24.1307 4.68373 24.6864 4.58139 25.2767L1.3096 41.6289V13.9833C1.31028 13.314 1.57734 12.6722 2.05218 12.1989C2.52703 11.7255 3.17086 11.4593 3.84239 11.4586ZM1.98823 50.5445C1.70529 50.19 1.50347 49.7782 1.3969 49.3378C1.29032 48.8974 1.28157 48.4392 1.37124 47.9951L5.86621 25.5319C5.9402 25.001 6.20376 24.5145 6.60852 24.1616C7.01329 23.8088 7.53212 23.6132 8.06985 23.6109H47.5092C47.9348 23.6162 48.3531 23.723 48.7289 23.9224C49.1047 24.1217 49.4273 24.4078 49.6696 24.7567C49.9524 25.1113 50.1541 25.5233 50.2605 25.9638C50.367 26.4042 50.3757 26.8625 50.2859 27.3067L49.5164 31.1507C46.7107 29.3579 43.3577 28.6156 40.0544 29.056C36.751 29.4964 33.7116 31.091 31.4772 33.5558C29.2427 36.0207 27.9582 39.1959 27.8523 42.5163C27.7463 45.8368 28.8258 49.087 30.8986 51.6884H4.14739C3.72209 51.683 3.30424 51.5764 2.92865 51.3774C2.55307 51.1784 2.23064 50.8929 1.98823 50.5445ZM41.9219 55.7022C39.3958 55.7022 36.9265 54.9555 34.8262 53.5566C32.7258 52.1577 31.0888 50.1693 30.1221 47.843C29.1555 45.5167 28.9025 42.9569 29.3953 40.4873C29.8882 38.0177 31.1046 35.7493 32.8908 33.9688C34.6769 32.1883 36.9527 30.9758 39.4302 30.4845C41.9077 29.9933 44.4757 30.2454 46.8095 31.209C49.1433 32.1726 51.138 33.8044 52.5414 35.898C53.9448 37.9916 54.6939 40.4531 54.6939 42.971C54.6893 46.3459 53.3422 49.5812 50.9479 51.9674C48.5536 54.3536 45.3076 55.6958 41.9219 55.6996V55.7022ZM12.0743 16.0444C12.0744 15.8713 12.1435 15.7054 12.2664 15.583C12.3892 15.4607 12.5557 15.392 12.7294 15.392H24.9352C25.1053 15.3973 25.2667 15.4684 25.3852 15.5902C25.5037 15.712 25.5699 15.875 25.5699 16.0447C25.5699 16.2144 25.5037 16.3774 25.3852 16.4992C25.2667 16.621 25.1053 16.6921 24.9352 16.6974H12.7294C12.5557 16.6972 12.3892 16.6284 12.2663 16.506C12.1435 16.3835 12.0744 16.2175 12.0743 16.0444ZM12.0743 12.5075C12.0744 12.3344 12.1435 12.1684 12.2663 12.046C12.3892 11.9235 12.5557 11.8547 12.7294 11.8545H24.9352C25.1053 11.8598 25.2667 11.9309 25.3852 12.0527C25.5037 12.1745 25.5699 12.3376 25.5699 12.5072C25.5699 12.6769 25.5037 12.8399 25.3852 12.9617C25.2667 13.0836 25.1053 13.1547 24.9352 13.1599H12.7294C12.5557 13.1599 12.3892 13.0912 12.2664 12.9689C12.1435 12.8466 12.0744 12.6806 12.0743 12.5075ZM12.0743 8.97006C12.0744 8.79692 12.1435 8.63092 12.2663 8.50849C12.3892 8.38606 12.5557 8.31721 12.7294 8.31704H20.2496C20.4197 8.32232 20.5811 8.39341 20.6996 8.51523C20.8181 8.63706 20.8843 8.80007 20.8843 8.96975C20.8843 9.13942 20.8181 9.30243 20.6996 9.42426C20.5811 9.54609 20.4197 9.61717 20.2496 9.62245H12.7294C12.5557 9.62245 12.3892 9.55374 12.2664 9.43141C12.1435 9.30908 12.0744 9.14315 12.0743 8.97006ZM49.2496 40.1366H44.7622V35.6636C44.7622 35.4904 44.6932 35.3243 44.5703 35.2019C44.4475 35.0794 44.2809 35.0106 44.1071 35.0106H39.736C39.5624 35.0108 39.3959 35.0796 39.2732 35.2021C39.1505 35.3245 39.0816 35.4905 39.0816 35.6636V40.1366H34.5936C34.4199 40.1368 34.2535 40.2057 34.1308 40.3281C34.008 40.4506 33.9391 40.6166 33.9391 40.7896V45.1467C33.9391 45.3198 34.008 45.4858 34.1308 45.6083C34.2535 45.7307 34.4199 45.7996 34.5936 45.7998H39.0816V50.2728C39.0816 50.4458 39.1505 50.6118 39.2732 50.7343C39.3959 50.8567 39.5624 50.9256 39.736 50.9258H44.1071C44.2809 50.9258 44.4475 50.857 44.5703 50.7345C44.6932 50.6121 44.7622 50.446 44.7622 50.2728V45.7998H49.2496C49.4233 45.7996 49.5898 45.7307 49.7126 45.6083C49.8354 45.4859 49.9045 45.3199 49.9047 45.1467V40.7903C49.9047 40.617 49.8357 40.4509 49.7128 40.3283C49.59 40.2057 49.4234 40.1368 49.2496 40.1366ZM48.5951 44.4943H44.1071C43.9335 44.4943 43.7671 44.5631 43.6443 44.6854C43.5216 44.8078 43.4526 44.9737 43.4526 45.1467V49.6204H40.3924V45.1467C40.3923 44.9737 40.3232 44.8077 40.2003 44.6854C40.0775 44.5631 39.911 44.4943 39.7373 44.4943H35.2487V41.442H39.736C39.8221 41.4422 39.9073 41.4255 39.9869 41.3928C40.0664 41.3602 40.1387 41.3122 40.1997 41.2517C40.2606 41.1911 40.309 41.1193 40.3421 41.0401C40.3752 40.9609 40.3923 40.876 40.3924 40.7903V36.316H43.4539V40.7903C43.4539 40.9633 43.5229 41.1292 43.6456 41.2516C43.7683 41.3739 43.9348 41.4427 44.1084 41.4427H48.5964L48.5951 44.4943Z"
                                        fill="#F7A71E"></path>
                                </svg>
