<?xml version="1.0" encoding="UTF-8" standalone="no"?>
<svg width="56" height="56" viewBox="0 0 56 56" fill="none"
                                    xmlns="http://www.w3.org/2000/svg" class="flex-grow-0 flex-shrink-0"
                                    preserveAspectRatio="none">
                                    <path
                                        d="M16.9923 12.6171H39.0081C39.4935 12.6171 39.8866 13.0121 39.8866 13.4998C39.8866 13.9876 39.4935 14.3826 39.0081 14.3826H16.9923C16.5069 14.3826 16.1137 13.9876 16.1137 13.4998C16.1137 13.0121 16.5069 12.6171 16.9923 12.6171ZM39.0081 16.7782H16.9923C16.5069 16.7782 16.1137 17.1733 16.1137 17.661C16.1137 18.1487 16.5069 18.5437 16.9923 18.5437H39.0081C39.4935 18.5437 39.8866 18.1487 39.8866 17.661C39.8866 17.1733 39.4935 16.7782 39.0081 16.7782ZM55.2936 43.4868L48.3944 44.8678C48.3374 44.879 48.2799 44.8846 48.2229 44.8846C48.0508 44.8846 47.8805 44.8336 47.735 44.7359C47.5412 44.6059 47.4068 44.4037 47.361 44.1742L47.1053 42.8834L44.8566 45.1428C45.259 46.4479 44.9234 47.9166 43.9446 48.9002C43.2455 49.6025 42.3125 49.9894 41.3187 49.99C41.2141 49.99 41.1101 49.9857 41.0067 49.977C41.0154 50.0809 41.0197 50.1854 41.0197 50.2905C41.0197 51.289 40.6346 52.2264 39.9356 52.9288C39.2365 53.6317 38.3035 54.018 37.3097 54.018C36.3364 54.018 35.4213 53.6473 34.7273 52.9717C34.5731 53.6448 34.235 54.2613 33.7385 54.7596C32.2903 56.2146 29.9344 56.2146 28.4862 54.7602L26.8572 53.1235C26.7025 53.796 26.365 54.4124 25.8685 54.9107C25.1694 55.6131 24.237 56 23.2426 56C22.2483 56 21.3158 55.6131 20.6168 54.9107L8.85359 43.093L8.63936 44.1742C8.59355 44.4037 8.45919 44.6059 8.2654 44.7359C8.1199 44.8336 7.95025 44.8846 7.77751 44.8846C7.72055 44.8846 7.66297 44.879 7.606 44.8678L0.70681 43.4868C0.231303 43.3916 -0.0776535 42.9269 0.0170765 42.4485L4.25888 21.0538C4.30469 20.8243 4.43905 20.6221 4.63284 20.4921C4.82664 20.3621 5.06377 20.3148 5.29224 20.3602L12.1914 21.7412C12.4899 21.8009 12.722 22.0056 12.831 22.2681V10.8429C12.831 10.1219 13.0991 9.47123 13.6068 8.96112L21.7493 0.779471C22.257 0.269362 22.9046 0 23.6222 0H40.52C41.9806 0 43.1688 1.19378 43.1688 2.66128V22.2681C43.2777 22.0056 43.5099 21.8009 43.8083 21.7412L50.7075 20.3602C50.936 20.3148 51.1731 20.3621 51.3669 20.4921C51.5607 20.6221 51.6951 20.8243 51.7409 21.0538L55.9827 42.4485C56.078 42.9269 55.7697 43.3916 55.2936 43.4868ZM43.1694 23.0333V24.0498C43.2325 24.0292 43.2957 24.0087 43.3588 23.9876L43.1694 23.0333ZM40.5207 1.76547H23.7677V8.50016C23.7677 9.87247 22.6563 10.9891 21.2905 10.9891H14.5882V23.0799H23.6259L24.0735 22.7042H16.9923C16.5069 22.7042 16.1137 22.3092 16.1137 21.8215C16.1137 21.3337 16.5069 20.9387 16.9923 20.9387H26.2703C27.8411 19.9813 29.7573 19.9857 31.4222 20.9387H39.0081C39.4935 20.9387 39.8866 21.3337 39.8866 21.8215C39.8866 22.3092 39.4935 22.7042 39.0081 22.7042H33.8549C36.7346 24.5947 39.2291 24.8547 41.4122 24.4846V2.6619C41.4122 2.16734 41.0123 1.76547 40.5207 1.76547ZM15.8302 9.22364H21.2905C21.6873 9.22364 22.0105 8.89891 22.0105 8.50016V3.01337L15.8302 9.22364ZM10.9866 23.3002L5.80985 22.2638L1.91168 41.9278L7.08839 42.9642L10.9866 23.3002ZM43.0963 45.4463L30.9424 33.0569C28.6856 30.9966 27.2046 30.6955 26.9 30.818C26.8975 30.8274 26.8944 30.8411 26.8919 30.8591C26.869 31.1011 26.848 31.3425 26.8269 31.5826C26.6616 33.4718 26.5049 35.2566 25.718 36.8261C24.8072 38.642 23.1851 39.8171 20.7592 40.4174C20.5289 40.474 20.2856 40.4355 20.0844 40.3098C19.8831 40.1841 19.7414 39.9813 19.6906 39.7487L17.6722 30.456C17.3942 29.1751 17.8697 27.9079 18.9773 26.9792L21.5202 24.846H12.4719L9.26656 41.0121L21.8588 53.6641C22.226 54.033 22.7176 54.2364 23.2426 54.2364C23.7677 54.2364 24.2587 54.033 24.6264 53.6641C24.9942 53.2946 25.1967 52.8012 25.1967 52.2737C25.1967 51.7468 24.9942 51.2529 24.6271 50.884L21.275 47.516C20.932 47.1714 20.932 46.6128 21.275 46.2675C21.618 45.9229 22.174 45.9229 22.517 46.2675L29.7282 53.5129C30.4917 54.2793 31.7331 54.2793 32.4958 53.5129C32.863 53.1434 33.0655 52.6501 33.0655 52.1226C33.0655 51.595 32.863 51.1017 32.4958 50.7322L25.7626 43.967C25.4196 43.6224 25.4196 43.0638 25.7626 42.7185C26.1056 42.3739 26.6616 42.3739 27.0046 42.7185L35.9253 51.6815C36.2925 52.051 36.7841 52.2538 37.3091 52.2538C37.8342 52.2538 38.3251 52.0504 38.6929 51.6809C39.0601 51.312 39.2625 50.818 39.2625 50.2905C39.2625 49.763 39.0601 49.2697 38.6929 48.9002L30.2502 40.4187C29.9072 40.074 29.9072 39.5154 30.2502 39.1701C30.5932 38.8255 31.1492 38.8255 31.4922 39.1701L39.9343 47.6523C40.3015 48.0211 40.7937 48.2246 41.3181 48.2246C41.8432 48.2246 42.3341 48.0211 42.7019 47.6516C43.2746 47.0774 43.4288 46.1854 43.0963 45.4463ZM46.6923 40.8025L43.7043 25.7319C40.4519 26.7714 36.22 27.0886 31.1647 22.8983C29.7864 21.7561 28.0157 21.6977 26.7582 22.7521L20.1042 28.3341C19.7587 28.6239 19.2058 29.2361 19.3891 30.0796L21.2063 38.4454C24.567 37.2547 24.7942 34.6551 25.0772 31.4283C25.0989 31.1801 25.1205 30.9313 25.1441 30.6806C25.1447 30.6737 25.1453 30.6663 25.1465 30.6594C25.2301 29.9502 25.6419 29.4072 26.2765 29.1695C27.6219 28.6656 29.8149 29.6367 32.1436 31.768C32.1553 31.7785 32.1665 31.7897 32.1776 31.8009L43.83 43.679L46.6923 40.8025ZM54.0887 41.9278L50.1899 22.2644L45.0132 23.3008L48.912 42.9642L54.0887 41.9278ZM35.9067 8.14059H36.1581C36.2919 8.14059 36.4052 8.25443 36.4052 8.3888C36.4052 8.52317 36.2919 8.63701 36.1581 8.63701H35.804C35.6913 8.63701 35.6263 8.56361 35.6034 8.53188C35.3192 8.13686 34.77 8.0479 34.3768 8.33406C33.9837 8.6196 33.8957 9.17138 34.1799 9.56641C34.4251 9.90731 34.7681 10.1586 35.1539 10.2924V10.4858C35.1539 10.9736 35.547 11.3686 36.0324 11.3686C36.5179 11.3686 36.911 10.9736 36.911 10.4858V10.2551C37.6441 9.95521 38.1623 9.23173 38.1623 8.38942C38.1623 7.279 37.2633 6.37636 36.1587 6.37636H35.9067C35.773 6.37636 35.6597 6.26252 35.6597 6.12815C35.6597 5.99378 35.773 5.87994 35.9067 5.87994H36.2609C36.3736 5.87994 36.4386 5.95334 36.4615 5.98507C36.7457 6.38009 37.2949 6.46905 37.688 6.18289C38.0812 5.89736 38.1691 5.34557 37.8849 4.95054C37.6397 4.60964 37.2967 4.35832 36.9104 4.22457V4.0311C36.9104 3.54339 36.5172 3.14837 36.0318 3.14837C35.5464 3.14837 35.1532 3.54339 35.1532 4.0311V4.2619C34.4202 4.56174 33.9019 5.28523 33.9019 6.12753C33.9032 7.23795 34.8022 8.14059 35.9067 8.14059ZM29.4205 8.14059H29.6719C29.8056 8.14059 29.9189 8.25443 29.9189 8.3888C29.9189 8.52317 29.8056 8.63701 29.6719 8.63701H29.3177C29.2051 8.63701 29.1401 8.56361 29.1171 8.53188C28.833 8.13686 28.2838 8.0479 27.8906 8.33406C27.4974 8.6196 27.4095 9.17138 27.6937 9.56641C27.9389 9.90731 28.2819 10.1586 28.6683 10.2924V10.4858C28.6683 10.9736 29.0614 11.3686 29.5468 11.3686C30.0322 11.3686 30.4254 10.9736 30.4254 10.4858V10.2551C31.1585 9.95521 31.6767 9.23173 31.6767 8.38942C31.6767 7.279 30.7777 6.37636 29.6731 6.37636H29.4218C29.288 6.37636 29.1747 6.26252 29.1747 6.12815C29.1747 5.99378 29.288 5.87994 29.4218 5.87994H29.7759C29.8886 5.87994 29.9536 5.95334 29.9765 5.98507C30.2607 6.38009 30.8099 6.46905 31.2031 6.18289C31.5962 5.89736 31.6848 5.34557 31.4 4.95054C31.1548 4.60964 30.8118 4.35832 30.4254 4.22395V4.03048C30.4254 3.54277 30.0322 3.14774 29.5468 3.14774C29.0614 3.14774 28.6683 3.54277 28.6683 4.03048V4.26127C27.9352 4.56112 27.417 5.2846 27.417 6.1269C27.417 7.23795 28.316 8.14059 29.4205 8.14059Z"
                                        fill="#F7A71E"></path>
                                </svg>
