<?xml version="1.0" encoding="UTF-8" standalone="no"?>
<svg width="12" height="10" viewBox="0 0 12 10" fill="none"
                                                xmlns="http://www.w3.org/2000/svg" class="absolute left-0 top-[366.5px]"
                                                preserveAspectRatio="xMidYMid meet">
                                                <path
                                                    d="M11.5806 0C11.8272 0 12 0.195625 12 0.414375C12 0.569375 11.913 0.73625 11.7018 0.853125C10.629 1.44562 9.387 3.49437 9.387 4.75812C11.1966 4.70062 11.9826 6.37188 11.9826 7.41938C11.9826 8.67375 10.9398 10 9.3978 10C7.4538 10 6.4998 8.40812 6.4998 6.68312C6.4998 2.94562 10.6002 0 11.5806 0ZM5.0808 0C5.3268 0 5.5002 0.195625 5.5002 0.414375C5.5002 0.569375 5.4132 0.73625 5.202 0.853125C4.1292 1.44562 2.8872 3.49437 2.8872 4.75812C4.6968 4.70062 5.4828 6.37188 5.4828 7.41938C5.4828 8.67375 4.4394 10 2.898 10C0.9534 10 0 8.40812 0 6.68312C0 2.94562 4.0998 0 5.0808 0Z"
                                                    fill="white"></path>
                                            </svg>
