<?xml version="1.0" encoding="UTF-8" standalone="no"?>
<svg width="57" height="57" viewBox="0 0 57 57" fill="none" xmlns="http://www.w3.org/2000/svg"
                        class="flex-grow-0 flex-shrink-0" preserveAspectRatio="none">
                        <path
                            d="M30.2934 37.3501H27.4715C27.2459 36.5335 26.9324 35.7395 26.5399 34.9906L28.5407 32.9921C28.9805 32.55 28.9805 31.8304 28.5407 31.3905L25.3443 28.1942C24.9022 27.7543 24.1849 27.7521 23.7428 28.1942L21.8028 30.1341C21.0472 29.7123 20.2464 29.3762 19.4186 29.1303V26.3513C19.4186 25.7264 18.911 25.2189 18.2862 25.2189H13.7658C13.141 25.2189 12.6334 25.7242 12.6334 26.3513V29.1303C11.8168 29.3717 11.0296 29.7033 10.2852 30.116L8.27536 28.1062C7.8355 27.664 7.11593 27.664 6.67383 28.1062L3.47745 31.3002C3.03759 31.7424 3.03759 32.4619 3.47745 32.9018L5.53241 34.9567C5.14894 35.6786 4.84217 36.441 4.61662 37.226L1.63229 37.2237C1.00747 37.2237 0.499939 37.729 0.499939 38.3561V42.8765C0.499939 43.4991 1.00522 44.0066 1.63229 44.0066H4.67748C4.90531 44.7533 5.21208 45.4796 5.58652 46.1676L3.3872 48.3669C3.17291 48.5812 3.05561 48.8654 3.05561 49.1677C3.05561 49.47 3.17516 49.7542 3.3872 49.9685L6.58357 53.1625C7.02344 53.6046 7.743 53.6046 8.18511 53.1625L10.3889 50.9587C11.0657 51.3241 11.7762 51.6241 12.5093 51.8497V55.0032C12.5093 55.628 13.0146 56.1355 13.6417 56.1355H18.1621C18.7869 56.1355 19.2922 55.628 19.2922 55.0032V51.9242C20.0411 51.7099 20.772 51.4189 21.4644 51.0647L23.6548 53.2528C24.0946 53.6926 24.8142 53.6926 25.2563 53.2528L28.4527 50.0564C28.667 49.8421 28.782 49.5579 28.782 49.2556C28.782 48.9534 28.6647 48.6692 28.4527 48.4549L26.3594 46.3616C26.7586 45.6555 27.088 44.9066 27.3361 44.1329H30.2956C30.9182 44.1329 31.4257 43.6254 31.4257 43.0006V38.4824C31.4257 37.8576 30.9181 37.35 30.2956 37.35L30.2934 37.3501ZM22.8066 40.6795C22.8066 44.451 19.7366 47.5213 15.9625 47.5213C12.1884 47.5213 9.1184 44.4513 9.1184 40.6795C9.1184 36.9057 12.1884 33.8354 15.9625 33.8354C19.7366 33.8354 22.8066 36.9054 22.8066 40.6795Z"
                            fill="#F7A71E"></path>
                        <path
                            d="M19.477 37.804L14.7784 42.5027L12.561 40.2853C12.2836 40.0079 11.8347 40.0079 11.5572 40.2853C11.2798 40.5628 11.2798 41.0117 11.5572 41.2891L14.2754 44.0072C14.413 44.1448 14.5957 44.2148 14.7761 44.2148C14.9566 44.2148 15.1393 44.1448 15.2769 44.0072L20.4786 38.8056C20.756 38.5281 20.756 38.0792 20.4786 37.8018C20.2011 37.5243 19.7522 37.5243 19.4748 37.8018L19.477 37.804Z"
                            fill="#F7A71E"></path>
                        <path
                            d="M6.12775 20.3286C6.64205 20.3286 7.05712 19.9113 7.05712 19.3992V9.62277C7.05712 9.02729 7.53984 8.54453 8.13536 8.54453H17.3655L16.0008 9.7874C15.6196 10.1325 15.5925 10.7213 15.9377 11.1025C16.1204 11.3055 16.373 11.407 16.6256 11.407C16.849 11.407 17.0723 11.328 17.2505 11.1656L20.3092 8.38207C20.4942 8.21289 20.6047 7.9783 20.6137 7.72792C20.6228 7.47754 20.5303 7.23392 20.3566 7.05344L17.5009 4.0556C17.1467 3.68341 16.558 3.66987 16.1858 4.02402C15.8136 4.37817 15.8001 4.9669 16.1542 5.33908L17.4378 6.68572L8.1354 6.68121C6.51579 6.68121 5.19623 7.99852 5.19623 9.62038V19.3968C5.19623 19.9111 5.61354 20.3262 6.1256 20.3262L6.12775 20.3286Z"
                            fill="#F7A71E"></path>
                        <path
                            d="M51.1002 37.0774C50.5859 37.0774 50.1708 37.4947 50.1708 38.0068V47.7855C50.1708 48.3788 49.6881 48.8638 49.0926 48.8638H39.8624L41.2271 47.6209C41.6083 47.2758 41.6354 46.687 41.288 46.3058C40.9429 45.9246 40.3541 45.8976 39.973 46.2427L36.9142 49.0262C36.7292 49.1954 36.6187 49.43 36.6097 49.6804C36.6007 49.9308 36.6931 50.1744 36.8668 50.3549L39.7225 53.3527C39.9053 53.5444 40.1511 53.6414 40.397 53.6414C40.6271 53.6414 40.8594 53.5557 41.0377 53.3843C41.4099 53.0301 41.4234 52.4414 41.0692 52.0692L39.7857 50.7226H49.0904C50.7122 50.7226 52.0296 49.4053 52.0296 47.7834V38.0046C52.0296 37.4903 51.6122 37.0753 51.1002 37.0753L51.1002 37.0774Z"
                            fill="#F7A71E"></path>
                        <path
                            d="M55.2819 12.3523H52.4578C52.2322 11.5471 51.9232 10.7666 51.5374 10.0245L53.5382 8.02137C53.7683 7.79128 53.8946 7.48676 53.8946 7.16193C53.8946 6.83709 53.7683 6.5303 53.5405 6.30249L50.2855 3.0475C49.8118 2.57381 49.0404 2.57381 48.5666 3.0475L46.6244 4.98969C45.8778 4.57689 45.0883 4.24303 44.2717 3.99714L44.274 1.21585C44.274 0.545876 43.7304 0 43.0581 0H38.4564C37.7865 0 37.2406 0.545882 37.2406 1.21585V3.99714C36.4376 4.2385 35.6593 4.56558 34.924 4.96936L32.9096 2.95499C32.6795 2.72491 32.375 2.60085 32.0502 2.60085C31.7254 2.60085 31.4186 2.72717 31.1908 2.95499L27.9358 6.20998C27.4621 6.68368 27.4621 7.45511 27.9358 7.92886L29.9952 9.98832C29.6208 10.7011 29.3162 11.45 29.0907 12.2215H26.1019C25.4319 12.2215 24.886 12.7674 24.886 13.4373V18.039C24.886 18.709 25.4319 19.2549 26.1019 19.2549H29.1539C29.3839 19.988 29.684 20.7008 30.0471 21.3798L27.8433 23.5858C27.6132 23.8159 27.4869 24.1205 27.4869 24.4453C27.4869 24.7701 27.6132 25.0769 27.8433 25.3047L31.0983 28.5597C31.572 29.0334 32.3434 29.0334 32.8172 28.5575L35.0278 26.3469C35.6932 26.7033 36.3925 26.9965 37.1121 27.2221V30.3891C37.1121 31.0591 37.6579 31.605 38.3279 31.605H42.9296C43.5996 31.605 44.1454 31.0613 44.1454 30.3891V27.2988C44.8808 27.0845 45.5981 26.8002 46.2816 26.4529L48.4787 28.6477C48.7088 28.8778 49.0133 29.0041 49.3381 29.0041C49.6629 29.0041 49.9674 28.8778 50.1975 28.6477L53.4525 25.3927C53.9262 24.919 53.9262 24.1476 53.4525 23.6738L51.3547 21.576C51.7472 20.8768 52.072 20.1391 52.3179 19.379H55.2842C55.9542 19.379 56.5 18.8331 56.5 18.1631V13.5614C56.5 12.8915 55.9564 12.3456 55.2842 12.3456L55.2819 12.3523ZM47.6871 15.8036C47.6871 19.6609 44.5494 22.7984 40.6923 22.7984C36.8352 22.7984 33.6975 19.6607 33.6975 15.8036C33.6975 11.9465 36.8352 8.81111 40.6923 8.81111C44.5494 8.81111 47.6871 11.9466 47.6871 15.8036Z"
                            fill="#F7A71E"></path>
                        <path
                            d="M40.6245 19.2552C39.1403 19.2552 37.8229 18.5266 37.0041 17.4033C36.3838 17.8296 35.5425 18.4905 35.0169 19.068C36.1763 21.0688 38.3553 22.3342 40.7532 22.3342C43.1239 22.3342 45.2352 21.0688 46.3947 19.068C45.8533 18.4341 45.0097 17.7709 44.3149 17.3018C43.5029 18.4815 42.1517 19.2529 40.6245 19.2529V19.2552Z"
                            fill="#F7A71E"></path>
                        <path
                            d="M44.4368 12.991C45.3098 15.0978 44.3083 17.5137 42.2037 18.3867C40.0969 19.2574 37.681 18.2581 36.8103 16.1513C35.9373 14.0445 36.9366 11.6308 39.0435 10.7579C41.1503 9.88493 43.5639 10.8864 44.4368 12.991Z"
                            fill="#F7A71E"></path>
                    </svg>
