<?xml version="1.0" encoding="UTF-8" standalone="no"?>
<svg width="48" height="47" viewBox="0 0 48 47" fill="none"
                                xmlns="http://www.w3.org/2000/svg" class="flex-grow-0 flex-shrink-0 w-12 h-[46.23px]"
                                preserveAspectRatio="xMidYMid meet">
                                <path d="M2.40326 42.8281H45.5962V44.147H2.40326V42.8281Z" fill="black"></path>
                                <path d="M0.50589 44.9141H47.4919V46.2329H0.50589V44.9141Z" fill="black"></path>
                                <path d="M13.8797 5.58429V1.93262H6.25626V10.155L13.8797 5.58429Z" fill="black"></path>
                                <path d="M5.54934 0H14.5866V1.04935H5.54934V0Z" fill="black"></path>
                                <path
                                    d="M4.55965 15.8703C4.58395 15.9299 4.60604 16.0006 4.60604 16.0713V41.9446H18.8972V34.639C18.8972 31.8357 21.1836 29.5382 23.998 29.5382C26.8147 29.5382 29.1122 31.8357 29.1122 34.639V41.9446H43.392L43.3942 16.0713C43.3942 16.0006 43.4185 15.9299 43.4539 15.8703L24.0005 4.20605L4.55965 15.8703ZM11.6176 30.8813H7.13963C6.89221 30.8813 6.69117 30.6803 6.69117 30.4461V25.533H11.6153L11.6176 30.8813ZM11.6176 24.6254H6.69121V19.7122C6.69121 19.4759 6.89225 19.277 7.13967 19.277H11.6176L11.6176 24.6254ZM17.4364 30.4442C17.4364 30.6805 17.2353 30.8794 17.0012 30.8794H12.5122V25.5311H17.4364L17.4364 30.4442ZM17.4364 24.6254H12.5122V19.2771H17.0012C17.2376 19.2771 17.4364 19.4781 17.4364 19.7123L17.4364 24.6254ZM36.4413 19.2881H40.8706C41.118 19.2881 41.3058 19.4891 41.3058 19.7233V24.6364H36.439L36.4413 19.2881ZM36.4413 25.5311H41.308V30.4442C41.308 30.6805 41.1202 30.8794 40.8728 30.8794H36.4435L36.4413 25.5311ZM30.5738 19.723C30.5738 19.4866 30.7616 19.2878 31.009 19.2878H35.5333V24.6361H30.5738L30.5738 19.723ZM30.5738 25.5311H35.5333V30.8794H31.009C30.7616 30.8794 30.5738 30.6783 30.5738 30.4442L30.5738 25.5311ZM29.8072 13.6898C29.8072 16.8953 27.2026 19.4979 23.9992 19.4979C20.7937 19.4979 18.1911 16.8933 18.1911 13.6898C18.1911 10.4844 20.7957 7.88177 23.9992 7.88177C27.2046 7.88177 29.8072 10.4863 29.8072 13.6898Z"
                                    fill="black"></path>
                                <path
                                    d="M28.8891 14.1387H24.4465V18.568C26.8037 18.3559 28.6659 16.4958 28.8891 14.1387Z"
                                    fill="black"></path>
                                <path
                                    d="M47.4585 14.6088L24 0.541016L0.554493 14.6088C0.212077 14.8098 0 15.1853 0 15.5741C0 15.9872 0.212077 16.3517 0.576566 16.5638C0.930027 16.7649 1.35418 16.7516 1.71867 16.5528L23.7769 3.31128C23.9183 3.22955 24.095 3.22955 24.2364 3.31128L46.2924 16.542C46.6458 16.7652 47.07 16.7652 47.4345 16.5663C47.7879 16.3543 48 15.9898 48 15.5766C48 15.1878 47.7876 14.8098 47.4585 14.6088Z"
                                    fill="black"></path>
                                <path d="M24.4485 8.8125V13.2551H28.891C28.6657 10.8869 26.8034 9.02458 24.4485 8.8125Z"
                                    fill="black"></path>
                                <path
                                    d="M24 30.4219C21.6782 30.4219 19.7828 32.3195 19.7828 34.6391V41.9447H28.2308V34.6391C28.2308 32.3173 26.3328 30.4219 24 30.4219Z"
                                    fill="black"></path>
                                <path
                                    d="M19.1222 13.2551H23.5648V8.8125C21.2077 9.02458 19.3343 10.8869 19.1222 13.2551Z"
                                    fill="black"></path>
                                <path d="M23.5645 18.568V14.1387H19.122C19.334 16.4958 21.2074 18.3559 23.5645 18.568Z"
                                    fill="black"></path>
                            </svg>
