<?xml version="1.0" encoding="UTF-8" standalone="no"?>
<svg width="32" height="16" viewBox="0 0 32 16" fill="none"
                                xmlns="http://www.w3.org/2000/svg" class="flex-grow-0 flex-shrink-0 w-8 h-[14.35px]"
                                preserveAspectRatio="none">
                                <path
                                    d="M1.10593 0.867188H2.14087C2.75224 0.867188 3.24679 1.31758 3.24679 1.6819V14.4003C3.24679 14.8507 2.75221 15.215 2.14087 15.215H1.10593C0.494551 15.215 0 14.7646 0 14.4003V1.6819C0 1.23151 0.49458 0.867188 1.10593 0.867188Z"
                                    fill="black"></path>
                                <path
                                    d="M21.939 1.44987L21.2292 1.97277H21.2269C20.7964 2.28989 20.7964 2.80436 21.2246 3.12318L26.2505 6.851H7.59628C6.98491 6.851 6.49036 7.21534 6.49036 7.66571V8.42813C6.49036 8.64404 6.60713 8.85152 6.8155 9.00332C7.02157 9.15682 7.30321 9.24284 7.59628 9.24284H26.2505L21.1971 12.9656C20.9887 13.1191 20.872 13.3283 20.872 13.5459C20.8743 13.7618 20.9933 13.971 21.204 14.1228L21.939 14.6541C22.3717 14.9679 23.0655 14.9662 23.496 14.6491L31.6771 8.62214V8.62382C31.8832 8.47033 32 8.26285 32 8.04696C32 7.83106 31.8832 7.62357 31.6771 7.47009L23.503 1.44835V1.45004C23.0702 1.13124 22.3695 1.13107 21.939 1.44987Z"
                                    fill="black"></path>
                            </svg>
