<?xml version="1.0" encoding="UTF-8" standalone="no"?>
<svg width="56" height="56" viewBox="0 0 56 56" fill="none"
                                    xmlns="http://www.w3.org/2000/svg" class="flex-grow-0 flex-shrink-0"
                                    preserveAspectRatio="none">
                                    <path
                                        d="M16.2581 16.2584V7.22618C16.2581 5.23367 14.6377 3.61328 12.6452 3.61328C10.6526 3.61328 9.03226 5.23367 9.03226 7.22618V8.6316C8.49845 8.32089 7.88696 8.12941 7.2258 8.12941C5.23329 8.12941 3.6129 9.7498 3.6129 11.7423C3.6129 13.7348 5.23329 15.3552 7.2258 15.3552C7.88696 15.3552 8.49845 15.1637 9.03226 14.853V16.2584C9.03226 18.251 10.6526 19.8713 12.6452 19.8713C14.6377 19.8713 16.2581 18.251 16.2581 16.2584ZM7.2258 13.5488C6.22955 13.5488 5.41935 12.7386 5.41935 11.7423C5.41935 10.7461 6.22955 9.93586 7.2258 9.93586C8.22206 9.93586 9.03226 10.7461 9.03226 11.7423C9.03226 12.7386 8.22206 13.5488 7.2258 13.5488ZM10.8387 16.2584V7.22618C10.8387 6.22993 11.6489 5.41973 12.6452 5.41973C13.6414 5.41973 14.4516 6.22993 14.4516 7.22618V16.2584C14.4516 17.2547 13.6414 18.0649 12.6452 18.0649C11.6489 18.0649 10.8387 17.2547 10.8387 16.2584Z"
                                        fill="#F7A71E"></path>
                                    <path
                                        d="M53.2903 7.35406V3.6129C53.2903 2.61665 52.4801 1.80645 51.4839 1.80645H49.6774C48.6812 1.80645 47.871 2.61665 47.871 3.6129H46.0645V1.80645C46.0645 0.810193 45.2543 0 44.2581 0H42.4516C41.4554 0 40.6452 0.810193 40.6452 1.80645V7.22581H19.871C19.871 3.24168 16.6293 0 12.6452 0C9.65548 0 6.96387 1.87961 5.90168 4.63716C2.49923 5.26129 0 8.21935 0 11.7419C0 15.2645 2.49923 18.2226 5.90168 18.8467C6.96387 21.6043 9.65548 23.4839 12.6452 23.4839V27.0968H11.7419C10.248 27.0968 9.03226 28.3125 9.03226 29.8064V53.2903C9.03226 54.7843 10.248 56 11.7419 56H44.2581C45.752 56 46.9677 54.7843 46.9677 53.2903V29.8064C46.9677 28.3125 45.752 27.0968 44.2581 27.0968H43.3548V16.2581H52.3871C54.3796 16.2581 56 14.6377 56 12.6452V10.8387C56 9.15961 54.8448 7.75781 53.2903 7.35406ZM42.4516 1.80645H44.2581V5.41935H49.6774V3.6129H51.4839V7.22581H42.4516V1.80645ZM18.0645 27.0968V21.0217C19.1854 19.7481 19.871 18.0835 19.871 16.2581H37.9355V27.0968H18.0645ZM7.44619 17.7791L7.27639 17.1956L6.67032 17.1342C3.89742 16.8515 1.80645 14.5338 1.80645 11.7419C1.80645 8.95006 3.89742 6.63239 6.67032 6.35058L7.27639 6.28916L7.44619 5.70568C8.11639 3.40968 10.2552 1.80645 12.6452 1.80645C15.6339 1.80645 18.0645 4.23703 18.0645 7.22581V16.2581C18.0645 19.2468 15.6339 21.6774 12.6452 21.6774C10.2552 21.6774 8.11639 20.0742 7.44619 17.7791ZM14.4516 23.2463C15.0929 23.0801 15.699 22.8308 16.2581 22.5066V27.0968H14.4516V23.2463ZM45.1613 29.8064V53.2903C45.1613 53.7889 44.7566 54.1935 44.2581 54.1935H11.7419C11.2434 54.1935 10.8387 53.7889 10.8387 53.2903V29.8064C10.8387 29.3079 11.2434 28.9032 11.7419 28.9032H44.2581C44.7566 28.9032 45.1613 29.3079 45.1613 29.8064ZM41.5484 27.0968H39.7419V16.2581H41.5484V27.0968ZM54.1935 12.6452C54.1935 13.6414 53.3834 14.4516 52.3871 14.4516H19.871V9.03226H52.3871C53.3834 9.03226 54.1935 9.84245 54.1935 10.8387V12.6452Z"
                                        fill="#F7A71E"></path>
                                    <path
                                        d="M43.3548 42.077L35.5997 34.3219H34.3226V30.709H28.9032V34.3219H22.9546L20.7742 32.1415L12.6452 40.2705V52.3864H43.3548V42.077ZM30.7097 32.5154H32.5161V37.9348H30.7097V32.5154ZM28.9032 36.1283V39.7412H34.3226V36.1283H34.8519L40.2712 41.5477H28.9032V40.2705L24.761 36.1283H28.9032ZM25.8196 39.7412H15.7288L20.7742 34.6958L25.8196 39.7412ZM21.6774 50.58H19.871V45.1606H21.6774V50.58ZM23.4839 50.58V43.3541H18.0645V50.58H14.4516V41.5477H27.0968V50.58H23.4839ZM28.9032 50.58V43.3541H41.5484V50.58H28.9032Z"
                                        fill="#F7A71E"></path>
                                    <path d="M32.5161 45.1621H30.7097V48.775H32.5161V45.1621Z" fill="#F7A71E"></path>
                                    <path d="M36.129 45.1621H34.3226V48.775H36.129V45.1621Z" fill="#F7A71E"></path>
                                    <path d="M39.7419 45.1621H37.9355V48.775H39.7419V45.1621Z" fill="#F7A71E"></path>
                                </svg>
