<?xml version="1.0" encoding="UTF-8" standalone="no"?>
<svg width="40" height="36" viewBox="0 0 40 36" fill="none"
                                xmlns="http://www.w3.org/2000/svg">
                                <path
                                    d="M32.5901 8.04451L39.7138 11.5579C40.1984 11.8002 40.0288 12.5271 39.4958 12.5271H39.2535C38.9627 12.5271 38.7446 12.7694 38.7446 13.036V33.5834C38.7446 33.8742 38.5023 34.0922 38.2358 34.0922H19.3602C19.0695 34.0922 18.8514 33.8499 18.8514 33.5834V22.9705C18.8514 22.6797 18.6091 22.4616 18.3426 22.4616H11.1704C10.8796 22.4616 10.6615 22.7039 10.6615 22.9705V33.5834C10.6615 33.8742 10.4192 34.0922 10.1527 34.0922H2.302C2.01124 34.0922 1.79317 33.8499 1.79317 33.5834V13.036C1.79317 12.7452 1.55086 12.5271 1.28433 12.5271H1.04202C0.508952 12.5271 0.339338 11.8002 0.823947 11.5579L19.9902 2.08382C20.1356 2.01112 20.3052 2.01112 20.4506 2.08382L28.8344 6.17876L32.5901 8.04451ZM30.1428 27.0169V22.9705C30.1428 22.6797 29.9005 22.4616 29.634 22.4616H22.171C21.8802 22.4616 21.6621 22.7039 21.6621 22.9705V27.0169C21.6621 27.3077 21.9044 27.5258 22.171 27.5258H29.6097C29.9005 27.5258 30.1428 27.2835 30.1428 27.0169ZM30.1428 17.1794V13.1329C30.1428 12.8421 29.9005 12.6241 29.634 12.6241H22.171C21.8802 12.6241 21.6621 12.8664 21.6621 13.1329V17.1794C21.6621 17.4702 21.9044 17.6882 22.171 17.6882H29.6097C29.9005 17.6882 30.1428 17.4459 30.1428 17.1794ZM18.8029 17.1794V13.1329C18.8029 12.8421 18.5606 12.6241 18.2941 12.6241H10.8554C10.5646 12.6241 10.3465 12.8664 10.3465 13.1329V17.1794C10.3465 17.4702 10.5888 17.6882 10.8554 17.6882H18.2941C18.5849 17.6882 18.8029 17.4459 18.8029 17.1794Z"
                                    fill="#131313" />
                                <path
                                    d="M32.5901 0.508839V6.76029C32.5901 7.14798 32.1782 7.39029 31.8632 7.22067L29.1252 5.91223C28.9313 5.81531 28.8344 5.64569 28.8344 5.45185V0.508839C28.8344 0.218074 29.0767 0 29.3432 0H32.0813C32.3478 0 32.5901 0.218074 32.5901 0.508839Z"
                                    fill="#9D9D9D" />
                                <path
                                    d="M22.1708 22.4375H29.6096C29.9003 22.4375 30.1184 22.6798 30.1184 22.9463V26.9928C30.1184 27.2836 29.8761 27.5017 29.6096 27.5017H22.1708C21.88 27.5017 21.662 27.2594 21.662 26.9928V22.9463C21.662 22.6798 21.88 22.4375 22.1708 22.4375Z"
                                    fill="white" />
                                <path
                                    d="M11.1459 22.4375H18.2939C18.5846 22.4375 18.8027 22.6798 18.8027 22.9463V33.5593C18.8027 33.85 18.5604 34.0681 18.2939 34.0681H11.1459C10.8551 34.0681 10.637 33.8258 10.637 33.5593V22.9463C10.6128 22.6798 10.8551 22.4375 11.1459 22.4375Z"
                                    fill="#F6A720" />
                                <path d="M39.8349 34.334H0V35.0609H39.8349V34.334Z" fill="#F6A720" />
                            </svg>
