<?xml version="1.0" encoding="UTF-8" standalone="no"?>
<svg width="64" height="68" viewBox="0 0 64 68" fill="none" xmlns="http://www.w3.org/2000/svg"
                        class="flex-grow-0 flex-shrink-0" preserveAspectRatio="none">
                        <path fill-rule="evenodd" clip-rule="evenodd"
                            d="M34.0097 5.33639C32.2242 3.43907 29.158 4.78932 29.158 7.47187C29.158 10.1699 32.2373 11.4908 34.0097 9.60736C35.1196 8.42813 35.1196 6.51562 34.0097 5.33639ZM32.1318 11.9366C29.1412 11.9366 26.4733 13.1767 24.5081 15.5204C28.1901 20.9586 35.8102 20.9587 39.4921 15.5203C37.6149 13.28 34.9649 11.9758 32.1318 11.9366ZM32.0001 3.005C30.8394 3.005 29.7884 3.50505 29.0277 4.31343C27.3009 6.14839 27.4046 9.15144 29.2491 10.8494C27.155 11.408 25.2586 12.5922 23.7736 14.2393C21.9587 10.4476 22.6681 5.85641 25.4778 2.87073C29.0798 -0.956909 34.9205 -0.956909 38.5225 2.87073C41.3321 5.85626 42.0416 10.4474 40.2267 14.239C38.7327 12.5806 36.8344 11.4059 34.7504 10.85C35.6461 10.0259 36.2037 8.81344 36.2037 7.47187C36.2037 5.00505 34.3215 3.005 32.0001 3.005ZM56.7838 29.5368C54.9983 27.6395 51.9321 28.9898 51.9321 31.6723C51.9321 34.3705 55.0114 35.6912 56.7838 33.808C57.8937 32.6286 57.8937 30.7162 56.7838 29.5368ZM54.9056 36.137C51.9346 36.137 49.2548 37.3666 47.2821 39.7207C50.9641 45.159 58.5839 45.159 62.2661 39.7209C60.4008 37.4964 57.7601 36.1762 54.9056 36.137ZM54.7742 27.2055C53.6136 27.2055 52.5626 27.7055 51.8018 28.5139C50.0745 30.3494 50.1792 33.3535 52.0238 35.0504C49.9399 35.6063 48.0414 36.7811 46.5475 38.4395C44.7327 34.6477 45.4421 30.0567 48.2518 27.0712C51.8538 23.2435 57.6945 23.2435 61.2965 27.0712C64.1062 30.0569 64.8156 34.648 63.0007 38.4398C61.5157 36.7926 59.6193 35.6085 57.5252 35.0498C58.4206 34.2255 58.9779 33.0137 58.9779 31.6723C58.9778 29.2055 57.0955 27.2055 54.7742 27.2055ZM11.2357 29.5368C9.45021 27.6395 6.38399 28.9898 6.38399 31.6723C6.38399 34.3705 9.46328 35.6912 11.2357 33.808C12.3454 32.6286 12.3454 30.7162 11.2357 29.5368ZM9.35748 36.137C6.38644 36.137 3.70664 37.3666 1.73393 39.7207C5.41587 45.159 13.0359 45.1589 16.718 39.7209C14.8526 37.4964 12.2118 36.1762 9.35748 36.137ZM9.22595 27.2055C8.06531 27.2055 7.01428 27.7055 6.25354 28.5139C4.52619 30.3494 4.6309 33.3535 6.47549 35.0504C4.39153 35.6063 2.4933 36.7811 0.999197 38.4395C-0.815566 34.6479 -0.106163 30.0567 2.7034 27.0712C6.30542 23.2435 12.1461 23.2435 15.7481 27.0712C18.5578 30.0569 19.2672 34.648 17.4522 38.4398C15.9672 36.7926 14.0707 35.6085 11.9767 35.0498C12.8721 34.2255 13.4294 33.0137 13.4294 31.6723C13.4297 29.2055 11.5474 27.2055 9.22595 27.2055ZM34.0097 53.7374C32.2242 51.8401 29.158 53.1904 29.158 55.8729C29.158 58.571 32.2373 59.8918 34.0097 58.0084C35.1196 56.8292 35.1196 54.9167 34.0097 53.7374ZM32.1315 60.3376C29.1604 60.3376 26.4806 61.5673 24.5081 63.9213C28.19 69.3596 35.81 69.3595 39.4921 63.9213C37.6267 61.697 34.986 60.3767 32.1315 60.3376ZM32.0001 51.406C30.8394 51.406 29.7884 51.9061 29.0277 52.7145C27.3003 54.55 27.405 57.5541 29.2496 59.251C27.1657 59.8069 25.2674 60.9816 23.7733 62.6401C21.9586 58.8485 22.668 54.2573 25.4775 51.2718C29.0796 47.4441 34.9202 47.4441 38.5222 51.2718C41.3319 54.2575 42.0413 58.8486 40.2264 62.6404C38.7415 60.9932 36.845 59.8091 34.751 59.2504C35.6464 58.4261 36.2037 57.2143 36.2037 55.8729C36.2037 53.4061 34.3215 51.406 32.0001 51.406ZM16.1159 11.5385C15.7443 11.4824 15.486 11.1168 15.5388 10.7219C15.5916 10.327 15.9357 10.0526 16.3073 10.1087L19.5476 10.6093C19.9013 10.6707 20.1494 11.0333 20.0997 11.4216L19.6327 14.8382C19.5798 15.2331 19.2357 15.5075 18.8642 15.4514C18.4926 15.3953 18.2343 15.0296 18.2871 14.6348L18.5423 12.7678C15.5695 14.9004 13.0652 17.7242 11.2396 21.0085C10.7847 21.8269 9.61442 21.0926 10.0696 20.2738C11.9504 16.8901 14.4916 13.9884 17.526 11.7562L16.1159 11.5385ZM53.1399 17.123C53.1927 16.7281 53.5368 16.4537 53.9084 16.5098C54.28 16.5659 54.5383 16.9316 54.4854 17.3264L54.0143 20.7696C53.9566 21.1455 53.6154 21.4092 53.2499 21.3563L50.0347 20.8601C49.6631 20.8039 49.4048 20.4383 49.4577 20.0434C49.5105 19.6486 49.8546 19.3741 50.2262 19.4302L51.9829 19.7014C49.9755 16.5422 47.319 13.8818 44.2275 11.9418C43.4574 11.4585 44.1483 10.2148 44.919 10.6985C48.1043 12.6974 50.8334 15.3967 52.935 18.6218L53.1399 17.123ZM47.8843 56.466C48.2559 56.5221 48.5142 56.8878 48.4614 57.2826C48.4085 57.6775 48.0644 57.952 47.6929 57.8958L44.4526 57.3952C44.0989 57.3339 43.8508 56.9711 43.9005 56.5829L44.3675 53.1662C44.4204 52.7713 44.7644 52.4969 45.136 52.553C45.5076 52.6091 45.7659 52.9748 45.7131 53.3696L45.4579 55.2364C48.431 53.1031 50.9342 50.2806 52.7601 46.9953C53.2149 46.1769 54.3853 46.9111 53.9303 47.73C52.0492 51.1149 49.5091 54.0151 46.4741 56.2482L47.8843 56.466ZM10.8606 50.8811C10.8077 51.276 10.4637 51.5504 10.0921 51.4943C9.72049 51.4382 9.46219 51.0725 9.51502 50.6777L9.98614 47.2345C10.0439 46.8586 10.3851 46.595 10.7506 46.6478L13.9659 47.1441C14.3375 47.2002 14.5958 47.5658 14.5429 47.9607C14.4901 48.3555 14.146 48.63 13.7744 48.5739L12.0175 48.3027C14.0247 51.462 16.6816 54.123 19.7728 56.063C20.5429 56.5465 19.8519 57.7901 19.0813 57.3065C15.8965 55.3076 13.1666 52.6077 11.0655 49.3828L10.8606 50.8811ZM33.3431 31.5985H34.0028V27.102C34.0028 26.5125 33.5465 26.0275 32.9918 26.0275H24.2784C23.7235 26.0275 23.2674 26.5124 23.2674 27.102V34.1137C23.2674 34.7032 23.7236 35.1882 24.2784 35.1882H26.0259C26.4018 35.1882 26.7067 35.5121 26.7067 35.9116V36.9377L28.1498 35.4042C28.2733 35.2708 28.4452 35.1882 28.6351 35.1882H31.3501V33.7167C31.3499 32.5502 32.2455 31.5985 33.3431 31.5985ZM40.1014 33.0454C40.4474 33.0454 40.733 33.3487 40.733 33.7165V39.1551C40.733 39.5228 40.4476 39.8262 40.1014 39.8262H38.7459C38.37 39.8262 38.0651 40.1502 38.0651 40.5496V40.9538L37.2075 40.0424C37.084 39.909 36.9121 39.8263 36.7222 39.8263H33.3429C32.9969 39.8263 32.7114 39.5231 32.7114 39.1553V33.7167C32.7114 33.349 32.9969 33.0456 33.3429 33.0456H40.1014V33.0454ZM25.0056 31.3686C24.1092 31.3686 24.1092 29.9217 25.0056 29.9217H25.2083C26.1047 29.9217 26.1047 31.3686 25.2083 31.3686H25.0056ZM27.3577 31.3686C26.4613 31.3686 26.4613 29.9217 27.3577 29.9217H27.5603C28.4566 29.9217 28.4566 31.3686 27.5603 31.3686H27.3577ZM29.7096 31.3686C28.8132 31.3686 28.8132 29.9217 29.7096 29.9217H29.9122C30.8085 29.9217 30.8085 31.3686 29.9122 31.3686H29.7096ZM32.0614 31.3686C31.165 31.3686 31.165 29.9217 32.0614 29.9217H32.2641C33.1605 29.9217 33.1605 31.3686 32.2641 31.3686H32.0614ZM34.269 36.9919C33.3726 36.9919 33.3726 35.545 34.269 35.545H34.4716C35.3679 35.545 35.3679 36.9919 34.4716 36.9919H34.269ZM36.6209 36.9919H36.8236C37.72 36.9919 37.72 35.545 36.8236 35.545H36.6209C35.7245 35.545 35.7245 36.9919 36.6209 36.9919ZM38.9728 36.9919H39.1754C40.0718 36.9919 40.0718 35.545 39.1754 35.545H38.9728C38.0764 35.545 38.0764 36.9919 38.9728 36.9919Z"
                            fill="black"></path>
                    </svg>
