<?xml version="1.0" encoding="UTF-8" standalone="no"?>
<svg width="56" height="57" viewBox="0 0 56 57" fill="none"
                                    xmlns="http://www.w3.org/2000/svg" class="flex-grow-0 flex-shrink-0"
                                    preserveAspectRatio="none">
                                    <path fill-rule="evenodd" clip-rule="evenodd"
                                        d="M45.3325 16.5903C45.3325 13.6453 47.72 11.2578 50.6675 11.2578C53.6125 11.2578 56 13.6453 56 16.5903V35.4876C56 36.5476 55.5775 37.5651 54.8275 38.3152L42.6675 50.4777V55.2578C42.6675 55.9953 42.07 56.5903 41.3325 56.5903H28C27.2625 56.5903 26.6675 55.9953 26.6675 55.2578V39.2577C26.6675 38.5203 27.2625 37.9253 28 37.9253C28.7375 37.9253 29.3325 38.5203 29.3325 39.2577V53.9253H40V49.9253C40 49.5703 40.14 49.2328 40.39 48.9803L52.9424 36.4305C53.1924 36.1805 53.3324 35.8405 53.3324 35.4879V16.5906C53.3324 15.1181 52.1399 13.9256 50.6674 13.9256C49.1948 13.9256 47.9998 15.1181 47.9998 16.5906V31.2582C47.9998 31.6107 47.8598 31.9507 47.6098 32.2007L42.2773 37.5357C41.7548 38.0557 40.9098 38.0557 40.3898 37.5357C39.8698 37.0132 39.8698 36.1682 40.3898 35.6482L45.3324 30.7057L45.3325 16.5903Z"
                                        fill="#F7A71E"></path>
                                    <path fill-rule="evenodd" clip-rule="evenodd"
                                        d="M10.6675 16.5903C10.6675 13.6453 8.27995 11.2578 5.33249 11.2578C2.38746 11.2578 0 13.6453 0 16.5903V35.4876C0 36.5476 0.422503 37.5651 1.17248 38.3152L13.3325 50.4777V55.2578C13.3325 55.9953 13.93 56.5903 14.6675 56.5903H28C28.7375 56.5903 29.3325 55.9953 29.3325 55.2578L29.3325 39.2577C29.3325 38.5203 28.7375 37.9253 28 37.9253C27.2625 37.9253 26.6675 38.5203 26.6675 39.2577L26.6675 53.9253H16V49.9253C16 49.5703 15.86 49.2328 15.61 48.9803L3.05762 36.4305C2.80762 36.1805 2.66762 35.8405 2.66762 35.4879V16.5906C2.66762 15.1181 3.86013 13.9256 5.33265 13.9256C6.80516 13.9256 8.00017 15.1181 8.00017 16.5906V31.2582C8.00017 31.6107 8.14017 31.9507 8.39018 32.2007L13.7252 37.5357C14.2452 38.0557 15.0902 38.0557 15.6102 37.5357C16.1302 37.0132 16.1302 36.1682 15.6102 35.6482L10.6676 30.7057L10.6675 16.5903Z"
                                        fill="#F7A71E"></path>
                                    <path fill-rule="evenodd" clip-rule="evenodd"
                                        d="M45.3325 29.6968C45.3325 27.5243 42.7075 26.4368 41.1725 27.9718L28.9427 40.2016C28.4227 40.7216 27.5777 40.7216 27.0577 40.2016C26.5377 39.6791 26.5377 38.8366 27.0577 38.3141L39.285 26.0869C42.5024 22.8719 47.9999 25.1494 47.9999 29.6969C47.9999 31.0494 47.4624 32.3468 46.5049 33.3044L42.2774 37.5344C41.7549 38.0544 40.9099 38.0544 40.3899 37.5344C39.8699 37.0144 39.8699 36.1694 40.3899 35.6494L44.6199 31.4194C45.0774 30.9619 45.3325 30.3418 45.3325 29.6968Z"
                                        fill="#F7A71E"></path>
                                    <path fill-rule="evenodd" clip-rule="evenodd"
                                        d="M10.6675 29.6968C10.6675 27.5243 13.2925 26.4368 14.8275 27.9718L27.0577 40.2016C27.5777 40.7216 28.4227 40.7216 28.9427 40.2016C29.4627 39.6791 29.4623 38.8366 28.9423 38.3141L16.7151 26.0869C13.4976 22.8719 8.00015 25.1494 8.00015 29.6969C8.00015 31.0494 8.53765 32.3468 9.49513 33.3044L13.7252 37.5344C14.2452 38.0544 15.0902 38.0544 15.6102 37.5344C16.1302 37.0144 16.1302 36.1694 15.6102 35.6494L11.3801 31.4194C10.9226 30.9619 10.6675 30.3418 10.6675 29.6968Z"
                                        fill="#F7A71E"></path>
                                    <path fill-rule="evenodd" clip-rule="evenodd"
                                        d="M29.4227 2.95749C28.9377 2.56999 28.2477 2.56999 27.7627 2.95749L23.1702 6.61248C22.8527 6.86498 22.6677 7.24998 22.6677 7.65498V13.925C22.6677 14.66 23.2627 15.2575 24.0002 15.2575H33.1855C33.9229 15.2575 34.5179 14.66 34.5179 13.925V7.65498C34.5179 7.24998 34.3329 6.86496 34.0154 6.61248L29.4227 2.95749ZM26.1027 0.870002C27.5602 -0.290001 29.6252 -0.290001 31.0827 0.870002L35.6777 4.52499C36.6302 5.28499 37.1852 6.4375 37.1852 7.65498V13.925C37.1852 16.135 35.3952 17.925 33.1852 17.925H23.9999C21.7899 17.925 19.9999 16.135 19.9999 13.925V7.65498C19.9999 6.4375 20.5549 5.28499 21.5099 4.52499L26.1027 0.870002Z"
                                        fill="#F7A71E"></path>
                                </svg>
