<?xml version="1.0" encoding="UTF-8" standalone="no"?>
<svg width="24" height="14" viewBox="0 0 24 14" fill="none"
                                        xmlns="http://www.w3.org/2000/svg" class="flex-grow-0 flex-shrink-0"
                                        preserveAspectRatio="none">
                                        <path
                                            d="M7.98456 3.6655C8.14469 3.6655 8.2746 3.53559 8.2746 3.37547V2.57241C8.2746 2.41228 8.14469 2.28237 7.98456 2.28237C7.82444 2.28237 7.69453 2.41228 7.69453 2.57241V3.37547C7.69453 3.53559 7.82444 3.6655 7.98456 3.6655Z"
                                            fill="white"></path>
                                        <path
                                            d="M9.59062 3.6655C9.75074 3.6655 9.88065 3.53559 9.88065 3.37547V2.57241C9.88065 2.41228 9.75074 2.28237 9.59062 2.28237C9.4305 2.28237 9.30059 2.41228 9.30059 2.57241V3.37547C9.30059 3.53559 9.4305 3.6655 9.59062 3.6655Z"
                                            fill="white"></path>
                                        <path
                                            d="M11.1973 3.6655C11.3574 3.6655 11.4873 3.53559 11.4873 3.37547V2.57241C11.4873 2.41228 11.3574 2.28237 11.1973 2.28237C11.0371 2.28237 10.9072 2.41228 10.9072 2.57241V3.37547C10.9072 3.53559 11.0371 3.6655 11.1973 3.6655Z"
                                            fill="white"></path>
                                        <path
                                            d="M12.8033 3.6655C12.9634 3.6655 13.0933 3.53559 13.0933 3.37547V2.57241C13.0933 2.41228 12.9634 2.28237 12.8033 2.28237C12.6432 2.28237 12.5133 2.41228 12.5133 2.57241V3.37547C12.5133 3.53559 12.6432 3.6655 12.8033 3.6655Z"
                                            fill="white"></path>
                                        <path
                                            d="M14.41 3.6655C14.5701 3.6655 14.7 3.53559 14.7 3.37547V2.57241C14.7 2.41228 14.5701 2.28237 14.41 2.28237C14.2498 2.28237 14.1199 2.41228 14.1199 2.57241V3.37547C14.1199 3.53559 14.2498 3.6655 14.41 3.6655Z"
                                            fill="white"></path>
                                        <path
                                            d="M16.016 3.6655C16.1761 3.6655 16.306 3.53559 16.306 3.37547V2.57241C16.306 2.41228 16.1761 2.28237 16.016 2.28237C15.8559 2.28237 15.726 2.41228 15.726 2.57241V3.37547C15.726 3.53559 15.8559 3.6655 16.016 3.6655Z"
                                            fill="white"></path>
                                        <path
                                            d="M24 10.1951C24 8.79718 23.0865 7.61036 21.8259 7.19528V3.95321C21.8259 2.28344 20.4044 0.925049 18.6571 0.925049H5.34313C3.59576 0.925049 2.1743 2.28344 2.1743 3.95321V7.15839C0.919781 7.52475 0 8.68325 0 10.0545V12.6098C0 12.7699 0.12991 12.8998 0.290033 12.8998H3.70075C3.86087 12.8998 3.99078 12.7699 3.99078 12.6098V11.0267H19.6174C19.8334 11.0267 20.0094 11.2027 20.0094 11.4191V12.6098C20.0094 12.6355 20.0178 12.6586 20.0241 12.6823C20.0178 12.7061 20.0094 12.7291 20.0094 12.7548C20.0094 12.9149 20.1393 13.0449 20.2994 13.0449H23.71C23.8701 13.0449 24 12.9149 24 12.7548C24 12.7291 23.9916 12.7061 23.9853 12.6823C23.9916 12.6586 24 12.6355 24 12.6098V10.1951ZM2.75436 3.95321C2.75436 2.60331 3.91563 1.50511 5.34313 1.50511H18.6571C20.0846 1.50511 21.2458 2.60331 21.2458 3.95321V7.06487C21.1129 7.04776 20.9784 7.03594 20.841 7.03594H20.0638V6.99439C20.0638 5.72966 19.0347 4.70057 17.77 4.70057H14.8137C13.549 4.70057 12.5199 5.72966 12.5199 6.99439V7.03594H11.4803V6.99439C11.4803 5.72966 10.4512 4.70057 9.18644 4.70057H6.23022C4.96548 4.70057 3.9364 5.72966 3.9364 6.99439V7.03594H3.01872C2.92947 7.03594 2.84165 7.04169 2.75436 7.04932L2.75436 3.95321ZM13.1 7.03594V6.99439C13.1 6.04933 13.8689 5.28063 14.8137 5.28063H17.77C18.7148 5.28063 19.4837 6.04933 19.4837 6.99439V7.03594H13.1ZM4.51646 7.03594V6.99439C4.51646 6.04933 5.28535 5.28063 6.23022 5.28063H9.18644C10.1313 5.28063 10.9002 6.04933 10.9002 6.99439V7.03594H4.51646ZM3.01872 7.616H4.22549C4.22516 7.616 4.22582 7.616 4.22549 7.616C4.22582 7.616 4.22704 7.616 4.22737 7.616H11.1893C11.189 7.616 11.1896 7.616 11.1893 7.616C11.1896 7.616 11.1908 7.616 11.1912 7.616H12.809C12.8087 7.616 12.8093 7.616 12.809 7.616C12.8093 7.616 12.8106 7.616 12.8109 7.616H19.7728C19.7725 7.616 19.7731 7.616 19.7728 7.616C19.7731 7.616 19.7744 7.616 19.7747 7.616H20.841C22.2632 7.616 23.4199 8.77292 23.4199 10.1951V12.4648H22.977V10.1951C22.977 9.01745 22.0185 8.05917 20.8406 8.05917H3.01834C1.91826 8.05917 1.02323 8.95438 1.02323 10.0547V12.3198H0.580065V10.0545C0.580065 8.70985 1.67392 7.616 3.01872 7.616ZM19.6174 10.4466H3.70075C3.54062 10.4466 3.41071 10.5766 3.41071 10.7367V12.3198H1.6033V10.0547C1.6033 9.27425 2.23812 8.63923 3.01834 8.63923H20.8406C21.6986 8.63923 22.3969 9.33712 22.3969 10.1951V12.4648H20.5895V11.4191C20.5895 10.8828 20.1533 10.4466 19.6174 10.4466Z"
                                            fill="white"></path>
                                    </svg>
