<?xml version="1.0" encoding="UTF-8" standalone="no"?>
<svg width="20" height="20" viewBox="0 0 20 20" fill="none"
                                        xmlns="http://www.w3.org/2000/svg" class="flex-grow-0 flex-shrink-0"
                                        preserveAspectRatio="none">
                                        <path
                                            d="M0 15.5695H3.94183V14.8237H0.745853V0.920973H3.94183V0.17512H0V15.5695Z"
                                            fill="white"></path>
                                        <path d="M3.94175 10.6916H2.0622V11.4375H3.94175V10.6916Z" fill="white"></path>
                                        <path d="M3.94175 6.46635H2.0622V7.2122H3.94175V6.46635Z" fill="white"></path>
                                        <path d="M3.94175 2.24115H2.0622V2.987H3.94175V2.24115Z" fill="white"></path>
                                        <path d="M3.94176 12.8061H2.81552V13.552H3.94176V12.8061Z" fill="white"></path>
                                        <path d="M3.94176 8.5809H2.81552V9.32675H3.94176V8.5809Z" fill="white"></path>
                                        <path d="M3.94176 4.35188H2.81552V5.09773H3.94176V4.35188Z" fill="white"></path>
                                        <path
                                            d="M6.7611 14.8199H7.50696V8.05879H15.7785V14.8199H16.5243V8.05879H19.9068V7.31293H16.5243V0.171387H15.7785V7.31293H7.50696V0.171387H6.7611V7.31293H4.88155V8.05879H6.7611V14.8199Z"
                                            fill="white"></path>
                                        <path
                                            d="M19.2541 15.8567V19.0527H5.34771V15.8567H4.60186V19.7985H20V15.8567H19.2541Z"
                                            fill="white"></path>
                                        <path d="M15.8643 15.8567H15.1185V17.7363H15.8643V15.8567Z" fill="white"></path>
                                        <path d="M11.639 15.8567H10.8932V17.7363H11.639V15.8567Z" fill="white"></path>
                                        <path d="M7.41374 15.8567H6.66789V17.7363H7.41374V15.8567Z" fill="white"></path>
                                        <path d="M17.9788 15.8567H17.2329V16.9829H17.9788V15.8567Z" fill="white"></path>
                                        <path d="M13.7535 15.8567H13.0076V16.9829H13.7535V15.8567Z" fill="white"></path>
                                        <path d="M9.5282 15.8567H8.78235V16.9829H9.5282V15.8567Z" fill="white"></path>
                                    </svg>
