<?xml version="1.0" encoding="UTF-8" standalone="no"?>
<svg width="40" height="43" viewBox="0 0 40 43" fill="none"
                                xmlns="http://www.w3.org/2000/svg">
                                <path d="M37.857 0H1.8927V42.0286H37.857V0Z" fill="#131313" />
                                <path d="M40 41.457H0V42.5713H40V41.457Z" fill="#F7A81E" />
                                <path d="M38.107 11.3711H1.67847V19.5997H38.107V11.3711Z" fill="#F7A81E" />
                                <path d="M16.3928 12.7422H7.78564V18.1993H16.3928V12.7422Z" fill="white" />
                                <path d="M35.2141 12.7422H19.3213V18.1993H35.2141V12.7422Z" fill="white" />
                                <path d="M12.6788 4.82812H5.25024V10.7424H12.6788V4.82812Z" fill="white" />
                                <path d="M35.4645 4.82812H28.0359V10.7424H35.4645V4.82812Z" fill="white" />
                                <path d="M28.036 20.5146H5.25024V26.4289H28.036V20.5146Z" fill="white" />
                                <path d="M26.0001 4.82812H14.7144V10.7424H26.0001V4.82812Z" fill="white" />
                                <path d="M35.8213 28.1426H19.3213V34.0569H35.8213V28.1426Z" fill="white" />
                            </svg>
