<?xml version="1.0" encoding="UTF-8" standalone="no"?>
<svg width="48" height="49" viewBox="0 0 48 49" fill="none" xmlns="http://www.w3.org/2000/svg"
                            class="flex-grow-0 flex-shrink-0" preserveAspectRatio="xMidYMid meet">
                            <path fill-rule="evenodd" clip-rule="evenodd"
                                d="M48 47.3431H0.000274395V48.2324H48V47.3431ZM2.66796 45.5645H13.3349V14.4542H2.66796V45.5645ZM34.667 14.4542V45.5645H45.334V14.4542H34.667ZM32.8885 4.67853H15.1116V45.5667H18.6666V36.6781C18.6666 36.1874 19.0651 35.791 19.5537 35.791H28.4444C28.9351 35.791 29.3315 36.1895 29.3315 36.6781V45.5667H32.8865V4.67853H32.8885ZM20.4448 37.5674V45.5667H23.1105V37.5674H20.4448ZM24.889 37.5674H27.5547V45.5667H24.889V37.5674ZM5.77692 36.6781C5.28621 36.6781 4.88977 37.0766 4.88977 37.5674V42.901C4.88977 43.3917 5.28834 43.7882 5.77692 43.7882H10.2212C10.7119 43.7882 11.1083 43.3896 11.1083 42.901V37.5674C11.1083 37.0745 10.7098 36.6781 10.2212 36.6781H5.77692ZM43.1097 37.5674C43.1097 37.0745 42.7112 36.6781 42.2226 36.6781H37.7783C37.2876 36.6781 36.8912 37.0766 36.8912 37.5674V42.901C36.8912 43.3917 37.2897 43.7882 37.7783 43.7882H42.2226C42.7133 43.7882 43.1097 43.3896 43.1097 42.901V37.5674ZM41.3312 38.4545V42.0096H38.6655V38.4545H41.3312ZM6.66439 38.4545H9.3301V42.0096H6.66439V38.4545ZM43.108 27.7874C43.108 27.2967 42.7094 26.9003 42.2208 26.9003H37.7766C37.2858 26.9003 36.8894 27.2989 36.8894 27.7874V33.1211C36.8894 33.614 37.288 34.0104 37.7766 34.0104H42.2208C42.7115 34.0104 43.108 33.6118 43.108 33.1211V27.7874ZM5.77516 26.9003C5.28445 26.9003 4.88802 27.2989 4.88802 27.7874V33.1211C4.88802 33.614 5.28659 34.0104 5.77516 34.0104H10.2194C10.7102 34.0104 11.1066 33.6118 11.1066 33.1211V27.7874C11.1066 27.2967 10.708 26.9003 10.2194 26.9003H5.77516ZM31.108 27.7874C31.108 27.2967 30.7095 26.9003 30.2209 26.9003H25.7766C25.2859 26.9003 24.8895 27.2989 24.8895 27.7874V33.1211C24.8895 33.614 25.288 34.0104 25.7766 34.0104H30.2209C30.7116 34.0104 31.108 33.6118 31.108 33.1211V27.7874ZM23.1066 27.7874C23.1066 27.2967 22.7081 26.9003 22.2195 26.9003H17.7752C17.2845 26.9003 16.8881 27.2989 16.8881 27.7874V33.1211C16.8881 33.614 17.2866 34.0104 17.7752 34.0104H22.2195C22.7102 34.0104 23.1066 33.6118 23.1066 33.1211V27.7874ZM21.3281 28.6767V32.2318H18.6623V28.6767H21.3281ZM41.3294 28.6767V32.2318H38.6637V28.6767H41.3294ZM6.66264 28.6767H9.32835V32.2318H6.66264V28.6767ZM29.3295 28.6767V32.2318H26.6638V28.6767H29.3295ZM23.1065 18.0097C23.1065 17.5189 22.7079 17.1225 22.2194 17.1225H17.7751C17.2844 17.1225 16.8879 17.5211 16.8879 18.0097V23.3433C16.8879 23.8362 17.2865 24.2326 17.7751 24.2326H22.2194C22.7101 24.2326 23.1065 23.834 23.1065 23.3433V18.0097ZM43.1079 18.0097C43.1079 17.5189 42.7093 17.1225 42.2207 17.1225H37.7764C37.2857 17.1225 36.8893 17.5211 36.8893 18.0097V23.3433C36.8893 23.8362 37.2879 24.2326 37.7764 24.2326H42.2207C42.7114 24.2326 43.1079 23.834 43.1079 23.3433V18.0097ZM5.77505 17.1225C5.28434 17.1225 4.88791 17.5211 4.88791 18.0097V23.3433C4.88791 23.8362 5.28648 24.2326 5.77505 24.2326H10.2193C10.71 24.2326 11.1065 23.834 11.1065 23.3433V18.0097C11.1065 17.5189 10.7079 17.1225 10.2193 17.1225H5.77505ZM31.1079 18.0097C31.1079 17.5189 30.7094 17.1225 30.2208 17.1225H25.7765C25.2858 17.1225 24.8894 17.5211 24.8894 18.0097V23.3433C24.8894 23.8362 25.2879 24.2326 25.7765 24.2326H30.2208C30.7115 24.2326 31.1079 23.834 31.1079 23.3433V18.0097ZM21.3303 18.899V22.454H18.6645V18.899H21.3303ZM41.3316 18.899V22.454H38.6659V18.899H41.3316ZM6.66483 18.899H9.33054V22.454H6.66483V18.899ZM29.3317 18.899V22.454H26.666V18.899H29.3317ZM23.1087 8.23188C23.1087 7.73902 22.7101 7.34258 22.2216 7.34258H17.7773C17.2866 7.34258 16.8901 7.74116 16.8901 8.23188V13.5655C16.8901 14.0563 17.2887 14.4527 17.7773 14.4527H22.2216C22.7123 14.4527 23.1087 14.0541 23.1087 13.5655V8.23188ZM31.1101 8.23188C31.1101 7.73902 30.7116 7.34258 30.223 7.34258H25.7787C25.288 7.34258 24.8916 7.74116 24.8916 8.23188V13.5655C24.8916 14.0563 25.2901 14.4527 25.7787 14.4527H30.223C30.7137 14.4527 31.1101 14.0541 31.1101 13.5655V8.23188ZM34.6651 10.0105V12.6762H47.9981V10.0105H34.6651ZM13.333 12.6762H0V10.0105H13.333V12.6762ZM21.3322 9.12118V12.6762H18.6665V9.12118H21.3322ZM29.3336 9.12118V12.6762H26.6679V9.12118H29.3336ZM12.4437 2.90032H35.5565V0.232422H12.4437V2.90032Z"
                                fill="black"></path>
                        </svg>
