<?xml version="1.0" encoding="UTF-8" standalone="no"?>
<svg width="64" height="68" viewBox="0 0 64 68" fill="none" xmlns="http://www.w3.org/2000/svg"
                        class="flex-grow-0 flex-shrink-0" preserveAspectRatio="xMidYMid meet">
                        <path fill-rule="evenodd" clip-rule="evenodd"
                            d="M45.8625 15.5495C45.8758 15.5595 45.8891 15.5729 45.8991 15.5862L48.2538 17.8863V15.3025L32.5835 0L16.9132 15.3025V17.8863L19.2679 15.5862C19.2779 15.5729 19.2912 15.5595 19.3045 15.5495L32.3368 2.82021L32.3901 2.7668L32.4301 2.74677L32.4401 2.74343L32.48 2.7234L32.49 2.72006L32.4967 2.71672H32.6366L32.6432 2.72006L32.6532 2.7234L32.6865 2.74009L32.6965 2.74343L32.7498 2.77014L32.7964 2.81687L45.8287 15.5461L45.8625 15.5495ZM29.8691 10.3084H31.6409C31.834 10.3084 31.9906 10.4653 31.9906 10.6589V12.4349C31.9906 12.6285 31.8341 12.7854 31.6409 12.7854H29.8691C29.6759 12.7854 29.5193 12.6285 29.5193 12.4349V10.6589C29.5193 10.4653 29.6759 10.3084 29.8691 10.3084ZM33.4127 10.3084H35.1845C35.3777 10.3084 35.5343 10.4653 35.5343 10.6589V12.4349C35.5343 12.6285 35.3777 12.7854 35.1845 12.7854H33.4127C33.2195 12.7854 33.063 12.6285 33.063 12.4349V10.6589C33.063 10.4653 33.2195 10.3084 33.4127 10.3084ZM29.8691 13.8603H31.6409C31.834 13.8603 31.9906 14.0172 31.9906 14.2108V15.9868C31.9906 16.1804 31.8341 16.3373 31.6409 16.3373H29.8691C29.6759 16.3373 29.5193 16.1804 29.5193 15.9868V14.2108C29.5193 14.0172 29.6759 13.8603 29.8691 13.8603ZM33.4127 13.8603H35.1845C35.3777 13.8603 35.5343 14.0172 35.5343 14.2108V15.9868C35.5343 16.1804 35.3777 16.3373 35.1845 16.3373H33.4127C33.2195 16.3373 33.063 16.1804 33.063 15.9868V14.2108C33.063 14.0172 33.2195 13.8603 33.4127 13.8603ZM40.5134 22.7233H41.6092C41.8024 22.7233 41.9589 22.8802 41.9589 23.0739V24.1722C41.9589 24.3658 41.8024 24.5227 41.6092 24.5227H40.5134C40.3202 24.5227 40.1637 24.3658 40.1637 24.1722V23.0739C40.1637 22.8803 40.3202 22.7233 40.5134 22.7233ZM42.7049 22.7233H43.8007C43.9939 22.7233 44.1504 22.8802 44.1504 23.0739V24.1722C44.1504 24.3658 43.9939 24.5227 43.8007 24.5227H42.7049C42.5117 24.5227 42.3552 24.3658 42.3552 24.1722V23.0739C42.3552 22.8803 42.5117 22.7233 42.7049 22.7233ZM40.5134 24.9199H41.6092C41.8024 24.9199 41.9589 25.0768 41.9589 25.2705V26.3688C41.9589 26.5624 41.8024 26.7193 41.6092 26.7193H40.5134C40.3202 26.7193 40.1637 26.5624 40.1637 26.3688V25.2705C40.1637 25.0768 40.3202 24.9199 40.5134 24.9199ZM42.7049 24.9199H43.8007C43.9939 24.9199 44.1504 25.0768 44.1504 25.2705V26.3688C44.1504 26.5624 43.9939 26.7193 43.8007 26.7193H42.7049C42.5117 26.7193 42.3552 26.5624 42.3552 26.3688V25.2705C42.3552 25.0768 42.5117 24.9199 42.7049 24.9199ZM40.3802 29.4867H44.1104C44.3035 29.4867 44.4601 29.6436 44.4601 29.8373V36.9645H49.7657V26.0649L42.2453 19.602L34.7249 26.0649V36.9645H40.0305V29.8373C40.0305 29.6436 40.187 29.4867 40.3802 29.4867ZM30.0652 26.6725L31.2775 27.7141C31.424 27.841 31.6439 27.8243 31.7704 27.6741C31.827 27.6073 31.8537 27.5272 31.8537 27.4471V25.5543C31.8537 25.4375 31.7971 25.334 31.7105 25.2706L22.0716 16.9849C22.0549 16.9716 22.0383 16.9582 22.0183 16.9449L22.0116 16.9415L22.0016 16.9382L21.9883 16.9315L21.9783 16.9282L21.9717 16.9249C21.935 16.9082 21.8951 16.9015 21.8584 16.8981H21.8285C21.7885 16.9015 21.7519 16.9082 21.7152 16.9249L21.7019 16.9315L21.6919 16.9349L21.6719 16.9449C21.6519 16.9549 21.6353 16.9682 21.6186 16.9849L19.8868 18.4738V15.9634L32.5891 3.55805L45.2915 15.9634V19.4018L42.4805 16.9883C42.4638 16.9749 42.4472 16.9616 42.4272 16.9482L42.4205 16.9449L42.4105 16.9415L42.3972 16.9349L42.3872 16.9315L42.3805 16.9282C42.3439 16.9115 42.3039 16.9048 42.2673 16.9015H42.2373C42.1974 16.9048 42.1607 16.9115 42.1241 16.9282L42.1108 16.9349L42.1008 16.9382L42.0808 16.9482C42.0608 16.9582 42.0442 16.9716 42.0275 16.9883L32.3886 25.2739C32.302 25.3373 32.2454 25.4408 32.2454 25.5576V27.4504C32.2454 27.5305 32.2721 27.6106 32.3287 27.6774C32.4553 27.8243 32.6751 27.841 32.8216 27.7175L34.0339 26.6759V36.9713H30.0773V26.6759L30.0652 26.6725ZM29.9253 25.6243L22.0752 18.8776C22.0585 18.8643 22.0419 18.8509 22.0219 18.8376L22.0152 18.8342L22.0053 18.8309L21.9919 18.8242L21.9819 18.8209L21.9753 18.8176C21.9386 18.8009 21.8987 18.7942 21.862 18.7909H21.8321C21.7921 18.7942 21.7555 18.8009 21.7188 18.8176L21.7055 18.8242L21.6955 18.8276L21.6755 18.8376C21.6556 18.8476 21.6389 18.861 21.6223 18.8776L13.7722 25.6243C13.7589 25.6343 13.7455 25.6443 13.7322 25.6577L12.5399 26.6825V25.7144L19.7472 19.5219C19.7605 19.5119 19.7738 19.5019 19.7872 19.4885L21.8521 17.7126L31.1644 25.7145V26.6825L29.9721 25.6577C29.9588 25.6444 29.9488 25.6343 29.9355 25.6243L29.9253 25.6243ZM20.1099 22.7233C19.9167 22.7233 19.7602 22.8802 19.7602 23.0739V24.1722C19.7602 24.3658 19.9167 24.5227 20.1099 24.5227H21.2057C21.3989 24.5227 21.5554 24.3658 21.5554 24.1722V23.0739C21.5554 22.8803 21.3989 22.7233 21.2057 22.7233H20.1099ZM22.3047 22.7233C22.1116 22.7233 21.955 22.8802 21.955 23.0739V24.1722C21.955 24.3658 22.1115 24.5227 22.3047 24.5227H23.4005C23.5937 24.5227 23.7502 24.3658 23.7502 24.1722V23.0739C23.7502 22.8803 23.5937 22.7233 23.4005 22.7233H22.3047ZM20.1099 24.9199C19.9167 24.9199 19.7602 25.0768 19.7602 25.2705V26.3688C19.7602 26.5624 19.9167 26.7193 20.1099 26.7193H21.2057C21.3989 26.7193 21.5554 26.5624 21.5554 26.3688V25.2705C21.5554 25.0768 21.3989 24.9199 21.2057 24.9199H20.1099ZM22.3047 24.9199C22.1116 24.9199 21.955 25.0768 21.955 25.2705V26.3688C21.955 26.5624 22.1115 26.7193 22.3047 26.7193H23.4005C23.5937 26.7193 23.7502 26.5624 23.7502 26.3688V25.2705C23.7502 25.0768 23.5937 24.9199 23.4005 24.9199H22.3047ZM19.9766 29.4867H23.7069C23.9 29.4867 24.0566 29.6436 24.0566 29.8373V36.9645H29.3622V26.0649L21.8418 19.602L14.3214 26.0649V36.9645H19.627V29.8373C19.627 29.6436 19.7835 29.4867 19.9766 29.4867ZM62.8575 35.6225C62.9807 34.4842 63.1073 33.3258 63.2238 32.2041C63.6735 27.9645 64.0398 24.239 63.9965 23.9786C63.9765 23.8484 63.9266 23.7583 63.86 23.7049C63.78 23.6381 63.6601 23.6114 63.5169 23.6147C63.3437 23.6214 63.1472 23.6781 62.9474 23.7816C62.5444 23.9886 62.1481 24.3758 61.9349 24.8933C61.3521 26.2954 60.999 27.9578 60.6493 29.6337C60.2963 31.3095 59.9433 32.9987 59.3438 34.4809C60.353 34.0169 61.3621 33.9568 62.2747 34.6745C62.3246 34.7146 62.3713 34.7546 62.4212 34.8047C62.6544 35.0384 62.7942 35.3188 62.8575 35.6293L62.8575 35.6225ZM42.2616 67.9401C38.3082 67.0822 34.6046 65.7134 33.4625 65.2761C36.6399 59.137 37.8922 55.5653 38.7814 53.028C39.4509 51.1152 39.9105 49.8033 40.8397 48.4345C42.7648 45.5937 45.4026 44.3618 48.2402 43.0365C50.7948 41.8415 53.5092 40.5762 56.067 38.0124C56.9663 37.1111 58.0321 36.0461 59.0845 35.4085C60.057 34.8177 61.0262 34.5873 61.8389 35.2249C61.8722 35.2483 61.8989 35.275 61.9222 35.2984C62.2819 35.6589 62.2619 36.2865 62.0454 36.9708C61.8056 37.7286 61.3294 38.5365 60.8331 39.1674C60.6666 39.3811 60.4967 39.5747 60.3335 39.7383L59.7507 40.3258C57.1762 42.9197 55.3377 44.7724 49.509 47.9705C49.3391 48.0639 49.2758 48.2742 49.3691 48.4445C49.4624 48.6147 49.6722 48.6782 49.842 48.5847C55.7637 45.3365 57.6289 43.4571 60.2432 40.8199L60.826 40.2323C61.0058 40.0521 61.1924 39.8384 61.3822 39.5981C61.8951 38.9438 62.3914 38.1092 62.6678 37.3013C62.2348 41.2305 61.8418 44.5688 61.7685 44.8959C60.806 49.1456 55.1974 52.3537 53.0854 53.559L52.9289 53.6491L52.9089 53.6591C50.914 54.8008 48.6125 56.3164 46.6175 58.6198C44.6759 60.8632 43.0305 63.8443 42.2578 67.947L42.2616 67.9401ZM59.8904 29.8266C59.5107 31.6226 59.111 33.4119 58.3983 34.8808C58.375 34.9309 58.3616 34.9843 58.365 35.0377C57.9853 35.2981 57.6123 35.5952 57.2492 35.9123C57.4091 34.3867 57.3225 32.7476 57.2326 31.1152C57.1393 29.406 57.0494 27.7034 57.2526 26.2012C57.3258 25.6471 57.6089 25.1697 57.9453 24.8659C58.1085 24.7157 58.285 24.6089 58.4515 24.5588C58.5848 24.5154 58.7113 24.5121 58.8046 24.5554C58.8845 24.5922 58.9545 24.6656 59.0077 24.7858C59.0377 24.8526 59.1343 25.3566 59.2775 26.1612C59.4474 27.1159 59.6605 28.3912 59.8903 29.83L59.8904 29.8266ZM53.962 31.7761C53.912 31.6893 53.8521 31.6326 53.7888 31.6025C53.6922 31.5592 53.569 31.5625 53.4358 31.6059C53.2693 31.656 53.0927 31.7628 52.9295 31.913C52.5931 32.2201 52.3101 32.6942 52.2368 33.2483C52.0369 34.7339 52.1235 36.166 52.2168 37.6649C52.2634 38.4527 52.3134 39.2573 52.3234 40.1052C52.9129 39.7313 53.4991 39.3174 54.0819 38.8534C54.2418 37.3712 54.1552 35.7455 54.0686 34.1331C54.0253 33.3419 53.982 32.5507 53.9687 31.7763L53.962 31.7761ZM54.6614 31.6693V31.6994C54.6747 32.4839 54.718 33.2884 54.7613 34.0996C54.8379 35.4916 54.9112 36.8904 54.8346 38.2157C55.0844 37.992 55.3309 37.7583 55.5773 37.5113C55.8504 37.2376 56.1402 36.9505 56.4399 36.66C56.743 34.9775 56.6397 33.0581 56.5365 31.1519C56.4732 29.9535 56.4066 28.7583 56.4432 27.62C56.4066 27.5799 56.3666 27.5532 56.3233 27.5365C56.2134 27.4931 56.0735 27.5065 55.9237 27.5632C55.7405 27.6333 55.5473 27.7669 55.3741 27.9538C55.0844 28.2609 54.8512 28.6916 54.7846 29.189C54.678 29.9735 54.6547 30.8114 54.6681 31.676L54.6614 31.6693ZM1.32576 37.3544C1.75873 41.2836 2.15173 44.6218 2.22502 44.949C3.18754 49.1986 8.79616 52.4067 10.9081 53.612L11.0646 53.7022L11.0846 53.7122C13.0796 54.8539 15.3811 56.3695 17.3793 58.6729C19.321 60.9162 20.9663 63.8973 21.739 68C25.6924 67.1421 29.396 65.7733 30.5381 65.336C27.3607 59.1969 26.1085 55.6252 25.2192 53.0879C24.5497 51.1751 24.0901 49.8632 23.1609 48.4944C21.2358 45.6536 18.598 44.4217 15.7604 43.0964C13.2059 41.9014 10.4915 40.6361 7.93359 38.0723C7.03433 37.171 5.96856 36.1061 4.91608 35.4684C3.94358 34.8776 2.97441 34.6472 2.16169 35.2848C2.13505 35.3082 2.10507 35.3316 2.07843 35.3583C1.71872 35.7188 1.73871 36.3464 1.9552 37.0274C2.195 37.7852 2.67126 38.593 3.16754 39.224C3.33407 39.4376 3.50392 39.6312 3.66712 39.7948L4.24997 40.3824C6.82445 42.9762 8.66296 44.8289 14.4916 48.027C14.6615 48.1205 14.7248 48.3308 14.6315 48.5011C14.5383 48.6713 14.3284 48.7347 14.1586 48.6413C8.23688 45.3931 6.37177 43.5137 3.75747 40.8764L3.17462 40.2889C2.99477 40.1086 2.80826 39.895 2.61843 39.6546C2.10553 39.0003 1.60927 38.1657 1.33285 37.3579L1.32576 37.3544ZM4.65626 34.5302C3.6471 34.0661 2.63794 34.0061 1.72538 34.7238C1.67209 34.7672 1.62214 34.8072 1.57883 34.8506C1.34569 35.0843 1.20581 35.3647 1.14253 35.6752C1.0193 34.5369 0.892739 33.3785 0.776169 32.2568C0.326548 28.0172 -0.0398144 24.2917 0.00348166 24.0279C0.0234654 23.8977 0.0734238 23.8076 0.140037 23.7542C0.21997 23.6874 0.339874 23.6607 0.483081 23.6641C0.656265 23.6707 0.852769 23.7275 1.05261 23.831C1.45561 24.0379 1.85194 24.4252 2.06509 24.9426C2.64793 26.3447 3.00101 28.0071 3.35067 29.683C3.70371 31.3588 4.0568 33.048 4.65626 34.5302ZM6.75115 35.969C6.38812 35.6518 6.0151 35.3547 5.63541 35.0944C5.63541 35.041 5.62542 34.9876 5.60211 34.9375C4.88937 33.4653 4.48969 31.6793 4.11002 29.8833C4.34316 28.4478 4.55298 27.1692 4.72284 26.2145C4.86606 25.41 4.96264 24.9093 4.99262 24.8391C5.04591 24.7189 5.11585 24.6455 5.19578 24.6088C5.29237 24.5654 5.4156 24.5687 5.54882 24.6121C5.71534 24.6622 5.89186 24.769 6.05506 24.9192C6.39145 25.2263 6.67454 25.7004 6.74782 26.2545C6.95098 27.7601 6.85773 29.4593 6.76447 31.1685C6.67788 32.8009 6.58795 34.4433 6.74782 35.9656L6.75115 35.969ZM11.6803 40.1652C11.0908 39.7914 10.5046 39.3774 9.92179 38.9134C9.76192 37.4312 9.84852 35.8055 9.93844 34.1931C9.98174 33.4019 10.025 32.6107 10.0384 31.8363C10.0883 31.7495 10.1483 31.6928 10.2115 31.6627C10.3081 31.6193 10.4314 31.6227 10.5646 31.6661C10.7311 31.7161 10.9076 31.8229 11.0708 31.9732C11.4072 32.2803 11.6903 32.7543 11.7636 33.3085C11.9634 34.794 11.8768 36.2262 11.7836 37.7251C11.7369 38.5129 11.687 39.3174 11.677 40.1654L11.6803 40.1652ZM9.33894 31.7561C9.32562 32.5406 9.28232 33.3485 9.23902 34.1564C9.16242 35.5484 9.08915 36.9472 9.16575 38.2725C8.91596 38.0488 8.6695 37.8151 8.42304 37.5681C8.14994 37.2944 7.86017 37.0073 7.56044 36.7168C7.25736 35.0343 7.36061 33.1149 7.46386 31.2087C7.52714 30.0103 7.59375 28.8151 7.55712 27.6768C7.59375 27.6367 7.63372 27.61 7.67701 27.5933C7.78693 27.5499 7.92681 27.5633 8.07668 27.62C8.25986 27.6901 8.4497 27.8237 8.62622 28.0106C8.91597 28.3177 9.14911 28.7484 9.21573 29.2458C9.32231 30.0303 9.34562 30.8681 9.3323 31.7328V31.7595L9.33894 31.7561ZM42.0685 18.8406C42.0485 18.8506 42.0318 18.8639 42.0152 18.8806L34.1651 25.6273C34.1518 25.6373 34.1385 25.6473 34.1251 25.6606L32.9328 26.6855V25.7174L42.2452 17.7155L45.3892 20.4162C45.4025 20.4296 45.4158 20.4396 45.4292 20.4496L51.5574 25.7174V26.6855L50.3651 25.6607C50.3517 25.6473 50.3384 25.6373 50.3251 25.6273L42.475 18.8807C42.4584 18.8673 42.4417 18.854 42.4217 18.8406L42.4151 18.8373L42.4051 18.8339L42.3918 18.8273L42.3818 18.8239L42.3751 18.8206C42.3385 18.8039 42.2985 18.7972 42.2619 18.7939H42.2319C42.1919 18.7972 42.1553 18.8039 42.1187 18.8206L42.1053 18.8273L42.0953 18.8306L42.0754 18.8406L42.0685 18.8406Z"
                            fill="black"></path>
                    </svg>
