<?xml version="1.0" encoding="UTF-8" standalone="no"?>
<svg width="16" height="13" viewBox="0 0 16 13" fill="none"
                                    xmlns="http://www.w3.org/2000/svg" class="flex-grow-0 flex-shrink-0"
                                    preserveAspectRatio="none">
                                    <path
                                        d="M15.95 6.25191C14.2159 2.66285 11.4548 0.0992366 8 0C4.54523 0.0992366 1.78408 2.66285 0.0500208 6.25191C-0.0166736 6.40076 -0.0166736 6.59924 0.0500208 6.74809C1.74406 10.271 4.5719 13 8 13C11.4281 13 14.2559 10.271 15.95 6.74809C16.0167 6.59924 16.0167 6.40076 15.95 6.25191ZM13.8024 8.71628C13.3089 9.37786 12.762 9.95674 12.1484 10.4529C10.9079 11.4618 9.48062 12.0242 8 12.0242C6.58608 12.0242 5.19883 11.4949 3.99833 10.5687C3.38474 10.0891 2.82451 9.52672 2.31763 8.88168C1.9308 8.3855 0.997082 7.36005 0.930387 6.68193C0.796999 5.29262 3.01125 3.22519 3.83827 2.54707C5.09212 1.53817 6.49271 1.00891 7.98666 0.975827C9.41392 1.02544 10.7745 1.48855 11.9883 2.4313C12.842 3.09288 15.0563 5.11069 15.0563 6.5C15.0696 7.19466 14.1626 8.25318 13.8024 8.71628Z"
                                        fill="white"></path>
                                    <path
                                        d="M8.00021 9.51028C9.39991 9.51028 10.5346 8.06631 10.5346 6.28509C10.5346 4.50386 9.39991 3.05989 8.00021 3.05989C6.60051 3.05989 5.46582 4.50386 5.46582 6.28509C5.46582 8.06631 6.60051 9.51028 8.00021 9.51028Z"
                                        fill="white"></path>
                                </svg>
