<?xml version="1.0" encoding="UTF-8" standalone="no"?>
<svg width="57" height="56" viewBox="0 0 57 56" fill="none" xmlns="http://www.w3.org/2000/svg"
                        class="flex-grow-0 flex-shrink-0" preserveAspectRatio="none">
                        <path fill-rule="evenodd" clip-rule="evenodd"
                            d="M30.7728 20.9991H30.7164C30.2173 20.9991 29.8131 21.4033 29.8131 21.9024C29.8131 22.3992 30.2173 22.8057 30.7164 22.8057H30.8654V25.2648C30.8654 26.3667 31.7687 27.1684 32.7691 27.1684H33.1959C33.5233 27.7939 34.1782 28.223 34.9301 28.223C35.6799 28.223 36.3347 27.7939 36.6644 27.1684H37.0889C38.1909 27.1684 38.9926 26.2674 38.9926 25.2648V22.8057H39.1416C39.6407 22.8057 40.0449 22.3992 40.0449 21.9024C40.0449 21.4033 39.6407 20.9991 39.1416 20.9991H39.1303C39.3155 20.0439 39.7987 19.1881 40.5394 18.5151C42.3708 16.8621 43.4389 14.3805 43.2018 11.6596C43.2018 11.6551 43.2018 11.6505 43.1995 11.646C42.7886 7.57004 39.4171 4.32742 35.341 4.14648C30.5537 3.91163 26.6518 7.69404 26.6518 12.4224C26.6518 14.8454 27.6566 16.9726 29.3119 18.5079C29.3141 18.5102 29.3164 18.5125 29.3187 18.5147C30.0616 19.1899 30.5741 20.0439 30.7728 20.9991ZM37.2989 20.9991C37.4999 19.52 38.1999 18.2013 39.3245 17.1783L39.3267 17.176C40.7584 15.8844 41.5848 13.9446 41.4019 11.822C41.0768 8.6357 38.446 6.09073 35.2597 5.95089H35.253C31.5089 5.76797 28.4581 8.72618 28.4581 12.4226C28.4581 14.3172 29.244 15.9814 30.5402 17.1828C31.6602 18.2035 32.3941 19.5245 32.6086 20.9991H32.9609C32.8322 17.3703 31.7867 13.8545 29.9417 10.7808C29.6843 10.3518 29.8243 9.79628 30.2511 9.54111C30.6779 9.28594 31.2334 9.42369 31.4908 9.85048C31.6556 10.126 31.816 10.406 31.9695 10.6905C32.2405 10.5189 32.5341 10.4398 32.8231 10.4398C33.1844 10.4398 33.5525 10.564 33.8754 10.8373C34.1983 10.564 34.5664 10.4398 34.93 10.4398C35.2913 10.4398 35.6616 10.564 35.9823 10.8373C36.3052 10.564 36.6732 10.4398 37.0346 10.4398C37.3259 10.4398 37.6217 10.5189 37.8927 10.6928C38.044 10.4105 38.202 10.1327 38.3646 9.85499C38.6175 9.42594 39.173 9.28368 39.6021 9.53885C40.0311 9.79176 40.1734 10.3472 39.9205 10.7763C38.0756 13.8948 37.0278 17.4128 36.899 20.9992L37.2989 20.9991ZM37.0731 12.3683L37.0302 12.3253C36.7095 12.5963 36.3437 12.7205 35.9824 12.7205C35.6211 12.7205 35.2508 12.5963 34.9301 12.3208C34.6072 12.5963 34.2391 12.7205 33.8755 12.7205C33.5165 12.7205 33.1484 12.5963 32.8278 12.3253L32.7939 12.3592C33.993 15.0645 34.6704 17.9956 34.7675 20.9988H35.0927C35.1898 18.027 35.8695 15.0963 37.0731 12.3683Z"
                            fill="#F7A71E"></path>
                        <path fill-rule="evenodd" clip-rule="evenodd"
                            d="M7.04642 36.7744C7.04642 36.2709 6.8477 35.7876 6.48866 35.4331C6.13412 35.0808 5.65089 34.8843 5.14732 34.8843L2.37653 34.9002C1.33777 34.9069 0.5 35.7515 0.5 36.7902V53.7941C0.5 54.2977 0.698718 54.7787 1.05776 55.1355C1.41455 55.4877 1.89553 55.6864 2.3991 55.6842L5.16988 55.6684C6.20865 55.6616 7.04642 54.817 7.04642 53.7783V36.7744Z"
                            fill="#F7A71E"></path>
                        <path fill-rule="evenodd" clip-rule="evenodd"
                            d="M56.5 11.6137C56.5 8.53132 55.2783 5.5796 53.0992 3.40078C50.9224 1.22393 47.9687 0 44.8863 0H25.4388C22.3587 0 19.4047 1.22393 17.2259 3.40078C15.0491 5.57989 13.8251 8.53358 13.8251 11.6137V20.888C13.8251 23.9681 15.0491 26.9221 17.2259 29.1009C19.405 31.28 22.3587 32.5039 25.4388 32.5039H27.8934C29.5938 32.5039 31.2039 33.2604 32.2878 34.5679C33.0827 35.5299 33.8166 36.415 33.8166 36.415C33.986 36.6205 34.2366 36.7402 34.5031 36.7425C34.7673 36.747 35.0225 36.6318 35.1963 36.4309C35.1963 36.4309 36.0228 35.4757 36.8922 34.473C37.9761 33.222 39.5478 32.504 41.203 32.504H44.8861C51.3017 32.504 56.4999 27.3012 56.4999 20.8878L56.5 11.6137ZM29.646 20.4452C29.1989 20.7748 28.9099 21.3033 28.9099 21.9017C28.9099 22.6288 29.3412 23.2566 29.9622 23.5433V25.2641C29.9622 26.8673 31.2584 28.0416 32.7149 28.071C33.241 28.7123 34.0404 29.1255 34.9301 29.1255C35.8198 29.1255 36.6192 28.7123 37.1431 28.071C38.7396 28.0416 39.8958 26.7251 39.8958 25.2641V23.5433C40.5168 23.2565 40.9481 22.6288 40.9481 21.9017C40.9481 21.3145 40.6681 20.7906 40.2322 20.4609C40.4355 19.9822 40.7448 19.5487 41.1468 19.1828C43.1768 17.3515 44.3646 14.5988 44.1027 11.5798C44.1004 11.5708 44.1004 11.564 44.0982 11.555C43.642 7.0364 39.9025 3.44612 35.3864 3.24495C30.0752 2.983 25.7485 7.17867 25.7485 12.4221C25.7485 15.107 26.8618 17.4669 28.6977 19.1696C28.7022 19.1741 28.7067 19.1786 28.7112 19.1831C29.1109 19.5467 29.4292 19.9732 29.646 20.4452Z"
                            fill="#F7A71E"></path>
                        <path fill-rule="evenodd" clip-rule="evenodd"
                            d="M7.94939 36.5035V38.3936C9.41721 37.8832 10.885 37.8855 12.3528 38.4026L19.5656 40.7737C21.0402 41.2998 22.6186 41.5143 24.1971 41.5143H28.9325C30.0977 41.5143 30.9896 42.4041 30.9896 43.5693C30.9896 44.7367 30.0977 45.6287 28.9325 45.6287H18.08C17.5832 45.6287 17.179 46.0307 17.179 46.5297C17.179 47.0288 17.5832 47.433 18.08 47.433H28.9325C30.4251 47.433 31.6784 46.6539 32.3242 45.4661L52.0694 39.2112C53.3701 38.8815 54.6663 39.8345 54.6663 41.2029V41.3L54.6731 41.3045V41.3068L54.6663 41.3023C54.6663 42.122 54.1944 42.8762 53.4492 43.2285C53.4356 43.2352 29.2845 53.0265 29.2845 53.0265C29.2799 53.0265 29.2777 53.0288 29.2754 53.031C27.0941 53.9388 24.6417 54.1239 22.3655 53.5843C22.3565 53.582 14.9816 51.4187 14.9816 51.4187C12.6805 50.7299 10.2688 50.6012 7.94972 50.9919V52.8278C10.0904 52.4168 12.335 52.5094 14.4665 53.1484L21.8713 55.3208C21.8871 55.3253 21.9006 55.3298 21.9142 55.3321C24.563 55.9689 27.4218 55.7566 29.9646 54.6975L54.134 44.9018C54.1452 44.895 54.1565 44.8905 54.1678 44.886C55.5747 44.2469 56.4734 42.8378 56.4734 41.3023V41.2029C56.4734 38.6309 54.0346 36.8266 51.5913 37.468C51.5777 37.4725 51.5619 37.477 51.5484 37.4815L32.7923 43.4248C32.72 41.3067 31.0738 39.7079 28.9331 39.7079H24.1977C22.8225 39.7079 21.445 39.5295 20.1601 39.0711C20.1533 39.0666 20.1466 39.0643 20.1398 39.0621L12.9455 36.6978C11.2812 36.1129 9.61695 36.0474 7.95044 36.5036L7.94939 36.5035Z"
                            fill="#F7A71E"></path>
                    </svg>
