<?xml version="1.0" encoding="UTF-8" standalone="no"?>
<svg width="64" height="68" viewBox="0 0 64 68" fill="none" xmlns="http://www.w3.org/2000/svg"
                        class="flex-grow-0 flex-shrink-0 w-16 h-[68px]" preserveAspectRatio="none">
                        <path
                            d="M3.50779 14.3009C3.50779 13.6546 2.97184 13.1292 2.31242 13.1292C1.03882 13.1292 0 12.1138 0 10.8624C0 9.614 1.03581 8.5957 2.31242 8.5957C2.97183 8.5957 3.50779 8.07034 3.50779 7.42395V3.43947H6.52782C7.05775 5.41698 8.89744 6.87797 11.0804 6.87797C13.2603 6.87797 15.1 5.41698 15.6329 3.43947H18.6529V6.39983C16.6356 6.9193 15.1451 8.72264 15.1451 10.8624C15.1451 12.9993 16.6356 14.8026 18.6529 15.3251V18.2854H14.5882C13.9288 18.2854 13.3928 18.8108 13.3928 19.4572C13.3928 20.7056 12.357 21.7239 11.0804 21.7239C9.80676 21.7239 8.76794 20.7086 8.76794 19.4572C8.76794 18.8108 8.23199 18.2854 7.57257 18.2854H3.50779V14.3009ZM63.9291 44.1668L59.9667 48.1395C59.7319 48.3756 59.6084 48.7003 59.6265 49.0308L59.9426 54.1989L55.5376 55.8605C55.1341 56.014 54.8451 56.3652 54.7849 56.7844C54.7216 57.2035 54.8933 57.6226 55.2365 57.8823L58.1963 60.1284C57.1605 63.7292 56.2572 65.2699 54.8872 65.7982C53.2703 66.421 50.458 65.8868 46.1493 64.7564C45.8362 64.6737 45.505 64.7209 45.228 64.8803C44.951 65.0426 44.7522 65.3083 44.677 65.6152L44.0958 68L18.8126 62.7699C19.8212 61.1289 20.854 59.3994 21.5556 57.7701C21.9139 56.9407 21.7242 55.9933 21.0738 55.3558L17.0241 51.3861C15.0247 47.8384 13.6307 44.3231 12.8659 40.9145C14.2209 40.3714 15.2597 39.2262 15.6361 37.8183H19.8545C20.5139 37.8183 21.0498 37.293 21.0498 36.6466V32.5115C23.0672 31.992 24.5576 30.1887 24.5576 28.0489C24.5576 25.912 23.0672 24.1087 21.0498 23.5863V20.6259H25.1146C25.774 20.6259 26.31 20.1006 26.31 19.4542C26.31 18.2057 27.3458 17.1874 28.6224 17.1874C29.896 17.1874 30.9348 18.2028 30.9348 19.4542C30.9348 20.1005 31.4708 20.6259 32.1302 20.6259H37.3903C38.0497 20.6259 38.5857 20.1006 38.5857 19.4542V14.2979C38.5857 13.6516 38.0498 13.1262 37.3903 13.1262C36.478 13.1262 35.6892 12.6038 35.3128 11.8511C43.7709 11.5294 51.2978 15.4578 56.1184 22.7776C56.7929 23.7988 57.1241 24.4038 57.1813 25.0739L58.0364 34.9848C58.0696 35.3774 58.199 35.7286 58.4279 36.0533L63.956 43.8864C64.0223 43.9779 64.0132 44.0871 63.9319 44.1668L63.9291 44.1668ZM50.2804 34.2762C50.2804 28.2729 45.2973 23.3913 39.1762 23.3913C33.0519 23.3913 28.0719 28.2731 28.0719 34.2762C28.0719 36.785 28.9631 39.2347 30.5861 41.1738C31.6158 42.4076 32.2752 43.7269 32.5884 45.182C32.0825 45.3177 31.7092 45.7723 31.7092 46.3124V50.8104C31.7092 51.4244 32.1879 51.9261 32.7992 51.9793V52.6256C32.7992 56.073 35.6626 58.8798 39.1794 58.8798C42.6962 58.8798 45.5596 56.073 45.5596 52.6256V51.9793C46.1708 51.9261 46.6496 51.4244 46.6496 50.8104V46.3124C46.6496 45.7723 46.2763 45.3178 45.7704 45.182C46.0806 43.7269 46.74 42.4076 47.7728 41.1738C49.3927 39.2347 50.2869 36.7879 50.2869 34.2762H50.2804ZM39.1762 25.7374C34.3736 25.7374 30.4653 29.5684 30.4653 34.2762C30.4653 36.2449 31.1638 38.1663 32.4375 39.6863C33.8255 41.3451 34.6716 43.1396 35.0149 45.1377H37.9807V38.3079C35.7857 37.7796 34.1538 35.8376 34.1538 33.5236C34.1538 32.8772 34.6898 32.3518 35.3492 32.3518C36.0086 32.3518 36.5446 32.8772 36.5446 33.5236C36.5446 34.9462 37.7248 36.1032 39.1762 36.1032C40.6275 36.1032 41.8078 34.9463 41.8078 33.5236C41.8078 32.8772 42.3437 32.3518 43.0032 32.3518C43.6626 32.3518 44.1985 32.8772 44.1985 33.5236C44.1985 35.8346 42.5636 37.7796 40.3716 38.3079V45.1377H43.3375C43.6807 43.1366 44.5268 41.3451 45.9149 39.6863C47.1855 38.1663 47.8871 36.2449 47.8871 34.2762C47.8871 29.5686 43.9788 25.7374 39.1762 25.7374ZM17.5365 10.8615C17.5365 12.11 18.5723 13.1283 19.8489 13.1283C20.5083 13.1283 21.0443 13.6536 21.0443 14.3V18.2845H24.0643C24.5943 16.307 26.4339 14.846 28.6139 14.846C30.7938 14.846 32.6335 16.307 33.1664 18.2845H36.1864V15.3241C34.1691 14.8047 32.6786 13.0013 32.6786 10.8615C32.6786 10.8291 32.6786 10.7996 32.6816 10.7671V10.7258C32.7419 8.64792 34.2142 6.90654 36.1864 6.39886V3.4385H32.1217C31.4623 3.4385 30.9263 2.91313 30.9263 2.26674C30.9263 1.0183 29.8905 0 28.6139 0C27.3403 0 26.3014 1.01535 26.3014 2.26674C26.3014 2.91312 25.7655 3.4385 25.1061 3.4385H21.0413V7.42298C21.0413 8.06935 20.5053 8.59473 19.8459 8.59473C18.5723 8.59473 17.5335 9.61008 17.5335 10.8615L17.5365 10.8615ZM14.5888 35.4738H18.6536V31.4893C18.6536 30.843 19.1895 30.3176 19.8489 30.3176C21.1225 30.3176 22.1613 29.3022 22.1613 28.0508C22.1613 26.8024 21.1255 25.7841 19.8489 25.7841C19.1895 25.7841 18.6536 25.2587 18.6536 24.6124V20.6279H15.6335C15.1036 22.6054 13.2639 24.0664 11.081 24.0664C8.90106 24.0664 7.06137 22.6054 6.52844 20.6279H3.50841V23.5882C5.52577 24.1077 7.0162 25.911 7.0162 28.0508C7.0162 30.1877 5.52577 31.991 3.50841 32.5135V35.4738H7.57319C8.23259 35.4738 8.76856 35.9992 8.76856 36.6456C8.76856 37.894 9.80437 38.9123 11.081 38.9123C12.3546 38.9123 13.3934 37.897 13.3934 36.6456C13.3934 35.9992 13.9294 35.4738 14.5888 35.4738ZM34.0995 49.6319H44.2526V47.4802H34.0995V49.6319ZM35.1895 52.6188C35.1895 54.7734 36.978 56.5266 39.176 56.5266C41.3741 56.5266 43.1626 54.7734 43.1626 52.6188V51.9783H35.1893L35.1895 52.6188Z"
                            fill="black"></path>
                    </svg>
