<?xml version="1.0" encoding="UTF-8" standalone="no"?>
<svg width="56" height="56" viewBox="0 0 56 56" fill="none"
                                    xmlns="http://www.w3.org/2000/svg" class="flex-grow-0 flex-shrink-0"
                                    preserveAspectRatio="none">
                                    <path
                                        d="M55.5268 39.1797C55.0145 38.2191 54.1589 37.5159 53.1124 37.2031C52.0685 36.8903 50.9665 37.0066 50.05 37.5076L39.1022 42.8781C39.069 42.6456 39.0136 42.4158 38.9333 42.1888C38.6038 41.2531 37.9254 40.5112 37.0256 40.096C33.5783 38.507 27.2572 35.6307 23.6684 34.1995C19.2244 32.425 11.9976 35.7885 9.15662 37.2779C8.84651 35.437 7.24336 34.0279 5.3162 34.0279H3.89855C1.74995 34.0279 0 35.7775 0 37.9257V52.0994C0 54.2476 1.74995 55.9972 3.89855 55.9972H5.3162C7.14363 55.9972 8.6776 54.732 9.09843 53.0323C11.4824 53.287 19.4707 54.1756 24.6926 55.2248C27.6941 55.8283 29.7153 56 31.0471 56C32.5063 56 33.1376 55.7924 33.312 55.7204C33.3452 55.7066 33.3785 55.6899 33.4089 55.6733L53.821 44.6802C54.7846 44.1764 55.4934 43.3265 55.8173 42.2857C56.1385 41.2447 56.0333 40.143 55.5239 39.1852L55.5268 39.1797ZM7.09406 52.0969C7.09406 53.0741 6.2994 53.8686 5.322 53.8686H3.90434C2.92694 53.8686 2.13228 53.0741 2.13228 52.0969V37.9232C2.13228 36.946 2.92694 36.1515 3.90434 36.1515H5.322C6.2994 36.1515 7.09406 36.946 7.09406 37.9232V52.0969ZM53.788 41.6523C53.6357 42.1451 53.2979 42.5492 52.8272 42.7956L32.4952 53.7469C32.1879 53.8217 30.2884 54.176 25.1135 53.1351C19.7225 52.0528 11.4849 51.142 9.21735 50.9039V39.6649C11.9225 38.1091 19.1905 34.6986 22.8786 36.1713C26.4227 37.5859 32.705 40.4455 36.1358 42.0262C36.5096 42.1979 36.7892 42.5051 36.9277 42.8927C37.0578 43.2637 37.0356 43.6595 36.875 44.0166C36.7366 44.1384 36.6314 44.2907 36.5732 44.4596C36.1994 44.8361 35.6429 45.0021 35.1113 44.861L26.5083 42.566C25.9379 42.4138 25.3564 42.7515 25.2069 43.319C25.0546 43.8865 25.3924 44.4679 25.9601 44.6201L34.5631 46.915C34.8732 46.9981 35.1833 47.0368 35.4934 47.0368C36.6231 47.0368 37.7002 46.5025 38.3924 45.5974L51.0293 39.3964C51.4834 39.1472 52.0067 39.0918 52.5024 39.2413C52.998 39.3908 53.405 39.723 53.6487 40.1798C53.8923 40.6365 53.9422 41.1597 53.7899 41.6525L53.788 41.6523ZM16.586 27.4396L18.4356 26.0721V30.5595C18.4356 31.1464 18.9118 31.6225 19.4988 31.6225C20.0858 31.6225 20.5621 31.1464 20.5621 30.5595V24.4997L32.2577 15.8573L45.371 25.5464V35.7224C45.371 36.3093 45.8472 36.7854 46.4342 36.7854C47.0212 36.7854 47.4975 36.3093 47.4975 35.7224V27.1154L47.9294 27.4338C48.1205 27.575 48.342 27.6414 48.5607 27.6414C48.8874 27.6414 49.2086 27.4919 49.4163 27.2095C49.7651 26.7389 49.6655 26.0717 49.1948 25.7229L47.0433 24.1339C47.0378 24.1311 47.0322 24.1256 47.0267 24.1201L33.3237 13.9937V10.5001C36.674 10.3201 39.2269 9.27647 40.9244 7.383C43.4081 4.6175 43.062 1.09896 43.0454 0.949495C42.9872 0.409676 42.5304 0 41.9877 0C36.6244 0 33.8858 2.92332 32.5156 5.49783C30.6106 1.24573 25.779 0 22.9436 0C22.4203 0 21.9745 0.382023 21.8914 0.899675C21.8693 1.04916 21.346 4.59532 23.73 7.38024C25.347 9.27101 27.8556 10.3174 31.1946 10.4973V13.9937L18.9149 23.0684C18.9011 23.0767 18.89 23.0878 18.8789 23.0961L15.3237 25.7232C14.853 26.072 14.7534 26.7364 15.1022 27.2098C15.4511 27.6804 16.1156 27.78 16.5891 27.4312L16.586 27.4396ZM40.9129 2.18425C40.8243 3.16146 40.492 4.68676 39.3374 5.96848C38.0914 7.35538 36.1642 8.15541 33.5948 8.35477C34.1928 6.36159 35.9677 2.65205 40.9155 2.18149L40.9129 2.18425ZM25.3577 6.0239C24.2557 4.74771 23.9982 3.19469 23.9594 2.2092C26.0139 2.46388 30.4773 3.56569 31.1171 8.37142C28.4895 8.19979 26.5566 7.4108 25.3577 6.0239ZM35.4471 36.3478V32.9594C35.4471 31.9822 34.6525 31.1877 33.6751 31.1877H30.8398C29.9593 31.1877 29.2061 31.841 29.087 32.7075C29.0067 33.2888 28.4668 33.6958 27.8881 33.6155C27.3067 33.5352 26.8997 32.9981 26.98 32.4168C27.2458 30.5039 28.9043 29.0616 30.8398 29.0616H33.6751C35.8237 29.0616 37.5736 30.8112 37.5736 32.9594V36.3477C37.5736 36.9346 37.0974 37.4108 36.5104 37.4108C35.9234 37.4108 35.4471 36.9347 35.4471 36.3478Z"
                                        fill="#F7A71E"></path>
                                </svg>
