<?xml version="1.0" encoding="UTF-8" standalone="no"?>
<svg width="64" height="68" viewBox="0 0 64 68" fill="none" xmlns="http://www.w3.org/2000/svg"
                        class="flex-grow-0 flex-shrink-0 w-16 h-[68px]" preserveAspectRatio="none">
                        <path fill-rule="evenodd" clip-rule="evenodd"
                            d="M52.1342 38.6563C52.9641 36.2476 53.3999 33.6654 53.3999 31.0034V12.7034C53.3999 12.3763 53.1468 12.1033 52.7815 12.0379C43.8184 10.4909 32.4295 8.48889 27.03 0.170631C26.9595 0.0625653 26.841 0 26.7 0C26.559 0 26.4404 0.0625631 26.3699 0.170631C20.9704 8.48889 9.58156 10.4938 0.618466 12.0409C0.256358 12.1034 0 12.3764 0 12.7063V31.0063C0 38.2751 3.26538 44.9805 8.86711 49.0646L26.0878 61.617C26.4467 61.8786 26.953 61.8786 27.3151 61.617L32.7178 57.6783L35.2974 53.7112L35.3615 53.3757L33.41 52.1471C33.3715 52.1215 33.3299 52.096 33.2946 52.0704L27.4241 56.3531C27.0203 56.6574 26.4178 56.6745 25.9949 56.3645L11.7315 45.9678C9.36022 44.2387 7.60419 41.9978 6.41847 39.5265C5.12708 36.8335 4.50862 33.8702 4.50862 31.0066L4.51183 16.2302C4.51183 15.7723 4.86752 15.3628 5.39304 15.2605C9.23521 14.5211 13.0325 13.6281 16.5382 12.3427C20.0055 11.0687 23.2132 9.40223 25.9304 7.0988C26.3566 6.73764 27.036 6.7348 27.4653 7.0988C30.1859 9.4023 33.3904 11.0687 36.8575 12.3427C40.3503 13.6253 44.1316 14.5154 47.9543 15.2519C48.483 15.3316 48.8836 15.7382 48.8836 16.2302L48.8868 31.0067C48.8868 32.0105 48.8066 33.0372 48.6496 34.0751C48.5727 34.5699 48.4798 35.0591 48.3676 35.5482C49.2296 35.7899 49.9762 36.2733 50.5274 36.9615L51.9118 38.6934L52.1342 38.6563ZM46.1097 35.4627C45.1003 35.6618 44.2223 36.1793 43.6006 36.9585L42.2163 38.6904L39.8578 38.3349C38.4734 38.1273 37.134 38.5056 36.1438 39.3843C35.1505 40.2658 34.7242 41.4517 34.9614 42.6802L35.3619 44.7732L33.4104 46.0018C32.2664 46.7212 31.6223 47.8303 31.6223 49.0759C31.6223 49.5821 31.7281 50.0656 31.9332 50.5092L26.7003 54.3228L13.1482 44.4408C11.0749 42.9279 9.52707 40.9457 8.47284 38.7503C7.30639 36.316 6.74881 33.6201 6.74881 31.0065L6.7456 17.0265C10.3827 16.3013 13.9877 15.4198 17.3847 14.1713C20.775 12.9257 23.941 11.3218 26.6997 9.15769C29.4587 11.3219 32.6248 12.9257 36.0147 14.1713C39.4114 15.4197 43.0165 16.3013 46.6537 17.0265V31.0065C46.6537 31.9478 46.5833 32.889 46.4423 33.8105C46.3589 34.3622 46.2475 34.9138 46.1097 35.4627ZM19.5543 23.7119H20.3234L22.9158 20.123L22.7716 16.6024C22.7684 16.4972 22.7813 16.3948 22.8133 16.2981H22.8101C23.185 15.135 24.2649 14.3615 25.5307 14.1624C26.146 14.0657 26.8061 14.1055 27.4501 14.3103C28.0686 14.5065 28.6711 14.8563 29.187 15.3824C30.3598 16.5683 31.0968 18.7068 30.488 22.054H36.3682C37.1949 22.054 37.948 22.3526 38.4895 22.836C39.0343 23.3195 39.3707 23.9849 39.3707 24.7186V24.8636C39.3707 25.1679 39.3131 25.4608 39.2073 25.7338C39.5886 25.8703 39.9347 26.0722 40.2199 26.3282C40.7647 26.8116 41.1012 27.477 41.1012 28.2107V28.3558C41.1012 29.0895 40.7647 29.7578 40.2199 30.2383C39.8162 30.5967 39.3034 30.8526 38.7267 30.9607C38.8036 31.1967 38.8452 31.4441 38.8452 31.7029V31.8479C38.8452 32.5816 38.5088 33.2499 37.964 33.7305C37.6948 33.9693 37.3776 34.1627 37.0219 34.2964C37.1341 34.5779 37.1982 34.8794 37.1982 35.195V35.3401C37.1982 36.0738 36.8617 36.7421 36.317 37.2226C35.7722 37.7061 35.0224 38.0047 34.1956 38.0047V38.0018H23.002C22.8482 38.0075 22.688 37.9848 22.5342 37.9279L19.4803 36.8102C19.3617 37.0121 19.2015 37.197 19.0124 37.3534C18.5862 37.7117 17.9998 37.9307 17.3621 37.9307H14.2602C13.6226 37.9307 13.0393 37.7089 12.61 37.3534C12.1645 36.9809 11.8889 36.4661 11.8889 35.8945V24.4881C11.8889 23.9165 12.1645 23.3989 12.61 23.0292C13.0361 22.6709 13.6226 22.4519 14.2602 22.4519H17.3621C17.9998 22.4519 18.583 22.6737 19.0124 23.0292C19.2463 23.2254 19.4293 23.4559 19.5543 23.7119ZM19.737 34.7689V25.6971H20.9322C21.352 25.6971 21.7205 25.4895 21.9096 25.1853L24.8801 21.0732C24.9731 20.9452 25.0403 20.8059 25.0884 20.6551C25.1333 20.5073 25.1525 20.3565 25.1461 20.203L25.0051 16.725C25.1621 16.398 25.5114 16.179 25.912 16.1165C26.1619 16.0767 26.4311 16.0937 26.6971 16.179C26.9823 16.27 27.2643 16.435 27.511 16.6852C28.4147 17.6009 28.8986 19.5091 28.0494 22.8307C27.9148 23.3624 28.2929 23.8914 28.8921 24.0108C28.9754 24.0279 29.0555 24.0364 29.1357 24.0364V24.0393H36.3681C36.5796 24.0393 36.7719 24.1161 36.9097 24.2412C37.0507 24.3663 37.1372 24.5341 37.1372 24.7218V24.8668C37.1372 25.0545 37.0507 25.2251 36.9097 25.3474C36.7719 25.4726 36.5796 25.5493 36.3681 25.5493H32.7567C32.1383 25.5493 31.6384 25.993 31.6384 26.5418C31.6384 27.0907 32.1383 27.5343 32.7567 27.5343H38.0986C38.3101 27.5343 38.5023 27.6111 38.6433 27.7362C38.7811 27.8585 38.8709 28.0291 38.8709 28.2168V28.3619C38.8709 28.5496 38.7843 28.7202 38.6433 28.8425C38.5055 28.9648 38.3133 29.0444 38.1018 29.0444H31.7954C31.1769 29.0444 30.677 29.488 30.677 30.0369C30.677 30.5857 31.1769 31.0294 31.7954 31.0294H35.8426C36.0541 31.0294 36.2464 31.1062 36.3842 31.2313C36.522 31.3564 36.6117 31.5242 36.6117 31.7147V31.8598C36.6117 32.0474 36.5252 32.2181 36.3842 32.3404C36.2464 32.4655 36.0541 32.5423 35.8426 32.5423H30.5008C29.8823 32.5423 29.3824 32.9859 29.3824 33.5348C29.3824 34.0836 29.8823 34.5273 30.5008 34.5273H34.1955C34.407 34.5273 34.5993 34.604 34.7371 34.7292C34.8781 34.8543 34.9646 35.0221 34.9646 35.2098V35.3548C34.9646 35.5425 34.8781 35.7131 34.7371 35.8354C34.5993 35.9577 34.407 36.0373 34.1955 36.0373V36.0402L23.1816 36.0288L19.737 34.7689ZM17.3657 24.4377C17.4202 24.4377 17.4618 24.4519 17.4875 24.4747C17.4971 24.4832 17.5035 24.4889 17.5035 24.4946V35.901C17.5035 35.9067 17.4971 35.9124 17.4875 35.9209C17.4618 35.9437 17.417 35.9579 17.3657 35.9579H14.2638C14.2125 35.9579 14.1677 35.9437 14.142 35.9209C14.1324 35.9124 14.126 35.9067 14.126 35.901V24.4946C14.126 24.4889 14.1324 24.4832 14.142 24.4747C14.1677 24.4519 14.2125 24.4377 14.2638 24.4377H17.3657ZM59.0942 57.0642L63.949 64.5234C64.0355 64.6571 64.0099 64.822 63.8881 64.9301C63.7663 65.0382 63.5805 65.0609 63.4299 64.9841L58.7417 62.5954C58.62 62.5328 58.4822 62.5328 58.3636 62.5954C58.2418 62.6579 58.1746 62.7632 58.1746 62.8854L58.1714 67.6602C58.1714 67.8137 58.0592 67.9445 57.8894 67.9844C57.7195 68.0242 57.5497 67.9588 57.4632 67.828L52.0701 59.4842L54.2651 59.8169C55.6495 60.0245 56.9889 59.6463 57.9791 58.7676C58.5303 58.2785 58.9083 57.6955 59.0942 57.0642ZM49.2246 60.3716C48.7119 61.0143 47.9492 61.3641 47.0648 61.3641C46.1772 61.3641 45.4145 61.0143 44.9018 60.3716L43.4598 58.5658L42.9375 57.9145L42.0499 58.0482L39.592 58.4207C38.7172 58.5515 37.9001 58.3212 37.2752 57.7638C36.6503 57.2093 36.3876 56.4813 36.5382 55.7078L36.9547 53.5266L37.1054 52.7388L36.3715 52.2753L34.3367 50.9956C33.6125 50.5406 33.2183 49.8638 33.2183 49.0789C33.2183 48.2912 33.6124 47.6144 34.3367 47.1594L36.3715 45.8797L37.1054 45.4161L36.9547 44.6284L36.535 42.4472C36.3876 41.6709 36.6471 40.9457 37.2752 40.3912C37.9033 39.8338 38.7204 39.6035 39.592 39.7371L42.0498 40.1068L42.9375 40.2404L43.4598 39.5892L44.9018 37.7834C45.4145 37.1407 46.1772 36.7909 47.0648 36.7909C47.9524 36.7909 48.7119 37.1407 49.2246 37.7834L50.6666 39.5892L51.1889 40.2404L52.0765 40.1068L54.5344 39.7371C55.4092 39.6063 56.2263 39.8366 56.8512 40.3912C57.4793 40.9457 57.7388 41.6737 57.5914 42.4472L57.1716 44.6284L57.021 45.4161L57.7549 45.8797L59.7897 47.1594C60.5139 47.6144 60.9081 48.2912 60.9081 49.0789C60.9081 49.8666 60.514 50.5406 59.7897 50.9956L57.7549 52.2753L57.021 52.7388L57.1716 53.5266L57.5882 55.7078C57.7356 56.4841 57.4761 57.2093 56.8512 57.7638C56.2263 58.3212 55.406 58.5515 54.5344 58.4207L52.0765 58.051L51.1889 57.9174L50.6666 58.5686L49.2246 60.3716ZM35.0097 56.9875C35.1859 57.6501 35.5704 58.2587 36.144 58.7677C37.1374 59.6493 38.4737 60.0275 39.858 59.8171L41.9729 59.4986L36.5894 67.8306C36.5029 67.9643 36.3298 68.0297 36.1632 67.987C35.9934 67.9472 35.8812 67.8164 35.8812 67.6629V62.8881C35.8812 62.7658 35.8107 62.6578 35.6922 62.5981C35.5704 62.5355 35.4326 62.5355 35.314 62.5981L30.6259 64.9868C30.4753 65.0636 30.2894 65.0408 30.1677 64.9328C30.0459 64.8247 30.0203 64.6598 30.1068 64.5261L35.0097 56.9875ZM47.0646 41.8274C49.3206 41.8274 51.3619 42.6379 52.8391 43.9489C54.3164 45.2599 55.2297 47.0714 55.2297 49.0734C55.2297 51.0755 54.3164 52.887 52.8391 54.198C51.3619 55.509 49.3206 56.3195 47.0646 56.3195C44.8087 56.3195 42.7674 55.509 41.2901 54.198C39.8129 52.887 38.8996 51.0755 38.8996 49.0734C38.8996 47.0714 39.8129 45.2599 41.2901 43.9489C42.7674 42.6379 44.8087 41.8274 47.0646 41.8274ZM49.4904 46.3576C49.9102 45.9595 50.6184 45.9396 51.067 46.3149C51.5156 46.6903 51.5381 47.3159 51.1151 47.7141L46.7955 51.7978C46.3757 52.1959 45.6675 52.2158 45.2189 51.8405C45.2028 51.8262 45.1868 51.812 45.1708 51.7978L43.011 49.756C42.588 49.3578 42.6104 48.7322 43.0591 48.3568C43.5077 47.9842 44.2126 48.0013 44.6357 48.3994L45.9847 49.6735L49.4904 46.3576ZM51.2592 45.3537C52.3327 46.3064 52.9961 47.6231 52.9961 49.0763C52.9961 50.5295 52.3327 51.8461 51.2592 52.7988C50.1857 53.7515 48.702 54.3402 47.0646 54.3402C45.4271 54.3402 43.9434 53.7515 42.8699 52.7988C41.7964 51.8461 41.1331 50.5295 41.1331 49.0763C41.1331 47.6231 41.7964 46.3064 42.8699 45.3537C43.9434 44.4011 45.4271 43.8124 47.0646 43.8124C48.702 43.8124 50.1857 44.4011 51.2592 45.3537Z"
                            fill="black"></path>
                    </svg>
