<?xml version="1.0" encoding="UTF-8" standalone="no"?>
<svg width="20" height="26" viewBox="0 0 20 26" fill="none"
                                    xmlns="http://www.w3.org/2000/svg" class="flex-grow-0 flex-shrink-0"
                                    preserveAspectRatio="none">
                                    <path
                                        d="M10 0C4.64646 0 0 3.69697 0 9.59596C0 15.4949 10 25.4848 10 25.4848C10 25.4848 20 15.5051 20 9.59596C20 3.68687 15.3535 0 10 0ZM1.77778 9.74748C1.77778 4.89899 5.59596 1.85859 10 1.85859C14.404 1.85859 18.2222 4.88889 18.2222 9.74748C18.2222 14.6061 10 22.8182 10 22.8182C10 22.8182 1.77778 14.596 1.77778 9.74748Z"
                                        fill="#F7A71E"></path>
                                    <path
                                        d="M10 12.7373C11.9972 12.7373 13.6162 11.1183 13.6162 9.12114C13.6162 7.12399 11.9972 5.50497 10 5.50497C8.00288 5.50497 6.38387 7.12399 6.38387 9.12114C6.38387 11.1183 8.00288 12.7373 10 12.7373Z"
                                        fill="#F7A71E"></path>
                                </svg>
