<?xml version="1.0" encoding="UTF-8" standalone="no"?>
<svg width="19" height="19" viewBox="0 0 19 19" fill="none"
                                xmlns="http://www.w3.org/2000/svg" class="flex-grow-0 flex-shrink-0"
                                preserveAspectRatio="none">
                                <path
                                    d="M3.78508 0.0004034C3.1746 0.0137031 2.63719 0.345329 2.31558 0.712889L0.653111 2.61285C0.120795 3.22121 0 4.01048 0 4.75031C0 7.2648 1.72974 10.8063 4.95771 14.0349C8.18629 17.2629 11.7352 19 14.2497 19C14.9895 19 15.7714 18.8792 16.3797 18.3469L18.2797 16.6844C18.6472 16.3628 18.9863 15.8254 18.9996 15.2149C19.0134 14.5793 18.6693 14.0979 18.3168 13.7454L15.7044 11.133C15.371 10.7996 14.8679 10.4501 14.2497 10.4502C13.5854 10.4501 13.0894 10.8387 12.795 11.133L11.8525 12.0681C11.6992 12.2042 11.6177 12.258 11.563 12.2165L6.78345 7.4369C6.71889 7.3394 6.81959 7.26064 6.87432 7.19495C6.88709 7.18006 7.86702 6.19748 7.86702 6.19748C8.16138 5.90319 8.54982 5.41452 8.54982 4.75031C8.54982 4.13217 8.2004 3.62902 7.86702 3.29565L5.25458 0.683202C4.90208 0.330704 4.42076 -0.0134283 3.78508 0.0004034ZM4.24522 1.68513L6.85767 4.29758C7.05187 4.46374 7.14032 4.62086 7.13863 4.75731C7.13659 4.92269 7.0085 5.06132 6.85767 5.19561C6.85767 5.19561 5.86966 6.18509 5.85466 6.20132C5.26975 6.78721 5.15481 7.68453 5.67019 8.33498L10.6576 13.3224C11.3216 13.8485 12.1905 13.6764 12.7552 13.1845C12.7863 13.157 13.8044 12.135 13.8044 12.135C13.9677 11.9612 14.1149 11.8721 14.2503 11.8746C14.4203 11.8777 14.5703 12.0103 14.695 12.135L17.3074 14.7475C17.6998 15.1521 17.6243 15.4308 17.3446 15.6084L15.4446 17.2709C15.2587 17.4335 14.802 17.5751 14.2497 17.5751C12.4498 17.5751 8.9938 16.0592 5.96706 13.033C2.94089 10.0062 1.42497 6.55013 1.42497 4.75031C1.42497 4.19796 1.55918 3.7413 1.72184 3.55541L3.3843 1.65545C3.6792 1.29717 3.94892 1.39499 4.24522 1.68513Z"
                                    fill="white"></path>
                            </svg>
