<?xml version="1.0" encoding="UTF-8" standalone="no"?>
<svg width="21" height="21" viewBox="0 0 21 21" fill="none"
                                        xmlns="http://www.w3.org/2000/svg" class="flex-grow-0 flex-shrink-0"
                                        preserveAspectRatio="xMidYMid meet">
                                        <path
                                            d="M3.67962 2.08514L3.73734 2.02742C4.12786 1.63689 4.76103 1.63689 5.15155 2.02742L8.18178 5.05765C8.57231 5.44817 8.57231 6.08134 8.18178 6.47186L6.96861 7.68504C6.78829 7.86536 6.74359 8.14082 6.85763 8.36891C8.17614 11.0059 10.3144 13.1442 12.9514 14.4627C13.1795 14.5767 13.455 14.532 13.6353 14.3517L14.8484 13.1385C15.239 12.748 15.8721 12.748 16.2627 13.1385L19.2929 16.1688C19.6834 16.5593 19.6834 17.1925 19.2929 17.583L19.2352 17.6407C17.1238 19.752 13.7813 19.9896 11.3925 18.198L9.29524 16.6251C7.55171 15.3174 6.00289 13.7686 4.69524 12.0251L3.12226 9.92777C1.33072 7.53905 1.56827 4.19649 3.67962 2.08514Z"
                                            stroke="black" stroke-width="2"></path>
                                    </svg>
